<svg xmlns="http://www.w3.org/2000/svg" xmlns:v="https://svgstorm.com"
viewBox = "0 0 927 927"
width="927"
height="927">
<g fill="None" fill-opacity="0.0" stroke="#000000" stroke-opacity="0.00" stroke-width="0.3"><path d="
M 0.00 927.00 
L 415.00 927.00
C 472.50 868.67 530.71 810.45 589.00 753.00
C 533.74 812.09 473.39 868.45 417.00 927.00
L 927.00 927.00
L 927.00 417.00
C 915.84 426.67 906.12 438.38 895.00 448.00
C 903.77 436.09 916.27 425.54 927.00 415.00
L 927.00 0.00
L 515.00 0.00
C 478.93 35.39 444.38 73.03 408.00 108.00
C 423.36 97.63 438.19 86.95 454.25 79.25 C 470.30 71.54 486.36 66.15 502.75 60.75 C 519.13 55.34 539.83 52.82 556.75 50.40 C 573.66 47.99 590.21 49.46 607.70 50.35 C 625.19 51.24 645.32 54.84 663.08 59.93 C 680.83 65.01 696.56 70.80 715.23 79.77 C 733.90 88.74 751.12 100.22 767.08 112.92 C 783.05 125.61 796.85 138.73 810.30 154.70 C 823.75 170.68 834.53 186.28 844.77 205.23 C 855.01 224.18 860.12 240.31 866.40 260.75 C 872.67 281.19 878.00 310.44 878.00 334.00 C 878.00 357.56 877.10 388.81 871.02 411.02 C 864.95 433.24 858.29 454.13 848.69 473.69 C 839.10 493.26 828.29 509.22 815.75 525.75 C 803.21 542.29 789.58 555.66 774.75 568.19 C 759.92 580.73 744.59 592.52 728.77 600.77 C 712.95 609.02 695.74 618.50 679.30 623.30 C 662.87 628.11 647.58 634.10 630.75 635.80 C 613.93 637.50 597.41 640.68 580.25 639.60 C 563.10 638.52 544.43 638.41 526.92 633.94 C 509.40 629.46 494.07 625.95 476.25 630.39 C 458.43 634.84 445.18 643.96 431.25 660.25 C 417.31 676.54 402.58 687.09 388.25 703.25 C 373.92 719.41 358.71 716.89 339.92 717.93 C 321.13 718.98 304.51 706.61 291.70 691.30 C 278.90 675.99 262.63 664.29 248.90 649.10 C 235.17 633.91 216.48 622.54 213.00 600.00 C 209.53 577.46 211.05 550.51 229.75 535.75 C 248.46 521.00 255.21 507.42 272.75 492.75 C 290.30 478.08 301.77 459.21 300.98 435.98 C 300.18 412.75 291.40 387.71 291.00 363.00 C 290.60 338.29 290.48 308.18 295.99 284.99 C 301.51 261.81 307.74 241.99 317.30 221.30 C 326.87 200.62 336.20 185.28 349.00 167.00
C 294.92 221.08 240.22 275.15 186.00 329.00
C 211.95 300.30 241.59 271.91 269.25 244.25 C 296.90 216.59 325.41 186.84 353.00 162.00
C 368.73 143.77 386.70 126.61 404.00 111.00
C 417.79 91.46 440.65 74.82 457.75 55.75 C 474.85 36.68 496.11 19.28 513.00 0.00
L 0.00 0.00
L 0.00 927.00
M 118.00 396.00 
C 116.11 400.83 110.81 404.51 107.00 408.00
C 108.89 403.17 114.19 399.49 118.00 396.00
M 84.00 430.00 
C 81.48 435.52 75.46 439.83 71.00 444.00
C 73.52 438.49 79.54 434.17 84.00 430.00
M 47.00 467.00 
C 44.80 472.17 39.13 476.17 35.00 480.00
C 37.20 474.83 42.87 470.83 47.00 467.00
M 12.00 502.00 
C 10.11 506.83 4.81 510.51 1.00 514.00
C 2.89 509.17 8.19 505.49 12.00 502.00
M 321.00 731.00 
C 325.36 742.71 313.81 755.20 303.00 751.00
C 294.10 740.14 281.17 727.77 270.70 716.30 C 260.22 704.84 246.41 694.17 235.92 683.08 C 225.42 672.00 211.96 659.24 202.10 648.90 C 192.24 638.56 168.76 622.13 182.75 609.75 C 196.74 597.37 208.04 620.89 218.70 629.30 C 229.36 637.72 240.19 652.87 252.25 663.75 C 264.30 674.64 275.44 687.17 286.70 697.30 C 297.95 707.44 308.34 721.92 321.00 731.00
M 172.00 631.00 
C 178.64 640.01 188.10 647.95 195.90 656.10 C 203.70 664.25 211.95 671.87 220.25 680.75 C 228.55 689.63 236.61 696.53 245.08 704.92 C 253.55 713.31 260.64 721.05 269.70 729.30 C 278.76 737.56 283.96 745.69 293.90 754.10 C 303.84 762.51 288.38 782.62 278.77 774.23 C 269.16 765.83 262.63 758.55 253.92 750.08 C 245.21 741.62 238.07 733.68 229.30 725.70 C 220.53 717.72 213.90 708.87 205.23 700.77 C 196.56 692.67 189.13 684.99 180.75 676.25 C 172.37 667.52 164.56 661.32 155.92 652.08 C 147.27 642.85 161.26 625.64 172.00 631.00
M 139.00 655.00 
C 148.94 652.86 156.84 667.93 164.70 674.30 C 172.57 680.67 181.04 691.63 189.23 698.77 C 197.43 705.91 205.04 715.99 213.75 723.25 C 222.45 730.52 228.68 740.91 238.10 747.90 C 247.52 754.89 251.96 766.49 262.70 772.30 C 273.45 778.11 275.81 797.46 262.25 800.59 C 248.70 803.72 245.82 787.77 236.30 781.70 C 226.77 775.63 221.14 763.80 212.10 756.90 C 203.06 750.00 196.31 739.69 187.70 732.30 C 179.08 724.92 171.37 715.50 162.90 708.10 C 154.43 700.70 147.36 689.98 138.30 683.70 C 129.23 677.43 122.66 658.51 139.00 655.00
M 119.00 674.00 
C 125.72 682.60 133.92 690.19 141.90 698.10 C 149.88 706.01 157.82 714.37 165.90 722.10 C 173.98 729.83 181.67 738.74 189.90 746.10 C 198.13 753.46 205.37 762.31 213.30 769.70 C 221.23 777.10 229.18 787.00 237.30 793.70 C 245.42 800.41 257.74 812.19 246.75 819.75 C 235.76 827.32 230.78 827.42 219.92 829.06 C 209.06 830.71 201.58 828.97 191.25 826.60 C 180.93 824.23 172.00 818.01 162.25 813.61 C 152.50 809.20 144.75 809.93 134.70 803.29 C 124.64 796.65 120.38 785.74 119.00 774.00 C 117.62 762.26 106.10 753.64 104.01 740.99 C 101.92 728.35 96.98 712.64 101.00 700.00 C 105.01 687.35 109.42 680.31 119.00 674.00 Z"/>
</g>
<g fill="None" fill-opacity="0.0" stroke="#E76500" stroke-opacity="0.07" stroke-width="0.3"><path d="
M 404.00 111.00 
C 405.17 109.94 406.91 109.05 408.00 108.00
C 444.38 73.03 478.93 35.39 515.00 0.00
L 513.00 0.00
C 496.11 19.28 474.85 36.68 457.75 55.75 C 440.65 74.82 417.79 91.46 404.00 111.00 Z"/>
</g>
<g fill="None" fill-opacity="0.0" stroke="#E96E00" stroke-opacity="1.00" stroke-width="0.3"><path d="
M 408.00 108.00 
C 406.91 109.05 405.17 109.94 404.00 111.00
C 386.70 126.61 368.73 143.77 353.00 162.00
C 351.67 163.54 350.38 165.62 349.00 167.00
C 336.20 185.28 326.87 200.62 317.30 221.30 C 307.74 241.99 301.51 261.81 295.99 284.99 C 290.48 308.18 290.60 338.29 291.00 363.00 C 291.40 387.71 300.18 412.75 300.98 435.98 C 301.77 459.21 290.30 478.08 272.75 492.75 C 255.21 507.42 248.46 521.00 229.75 535.75 C 211.05 550.51 209.53 577.46 213.00 600.00 C 216.48 622.54 235.17 633.91 248.90 649.10 C 262.63 664.29 278.90 675.99 291.70 691.30 C 304.51 706.61 321.13 718.98 339.92 717.93 C 358.71 716.89 373.92 719.41 388.25 703.25 C 402.58 687.09 417.31 676.54 431.25 660.25 C 445.18 643.96 458.43 634.84 476.25 630.39 C 494.07 625.95 509.40 629.46 526.92 633.94 C 544.43 638.41 563.10 638.52 580.25 639.60 C 597.41 640.68 613.93 637.50 630.75 635.80 C 647.58 634.10 662.87 628.11 679.30 623.30 C 695.74 618.50 712.95 609.02 728.77 600.77 C 744.59 592.52 759.92 580.73 774.75 568.19 C 789.58 555.66 803.21 542.29 815.75 525.75 C 828.29 509.22 839.10 493.26 848.69 473.69 C 858.29 454.13 864.95 433.24 871.02 411.02 C 877.10 388.81 878.00 357.56 878.00 334.00 C 878.00 310.44 872.67 281.19 866.40 260.75 C 860.12 240.31 855.01 224.18 844.77 205.23 C 834.53 186.28 823.75 170.68 810.30 154.70 C 796.85 138.73 783.05 125.61 767.08 112.92 C 751.12 100.22 733.90 88.74 715.23 79.77 C 696.56 70.80 680.83 65.01 663.08 59.93 C 645.32 54.84 625.19 51.24 607.70 50.35 C 590.21 49.46 573.66 47.99 556.75 50.40 C 539.83 52.82 519.13 55.34 502.75 60.75 C 486.36 66.15 470.30 71.54 454.25 79.25 C 438.19 86.95 423.36 97.63 408.00 108.00
M 595.00 266.00 
C 587.07 234.40 577.62 203.18 568.00 172.00
C 578.87 168.78 586.16 169.37 597.25 166.80 C 608.34 164.23 619.72 161.84 631.03 160.02 C 642.33 158.21 652.84 155.07 664.08 161.92 C 675.31 168.78 679.38 177.60 683.00 192.00 C 686.62 206.41 683.53 222.91 681.67 237.67 C 679.82 252.44 666.57 252.28 655.30 254.31 C 644.04 256.34 636.58 257.96 625.92 259.93 C 615.26 261.91 606.50 264.63 595.00 266.00
M 490.00 158.00 
C 510.74 180.86 532.61 200.45 555.00 222.00
C 548.36 251.91 539.09 281.16 532.00 311.00
C 528.31 302.23 526.36 292.18 523.00 283.00
C 500.95 288.60 479.07 291.16 457.00 298.00
C 444.51 282.78 431.43 271.01 424.01 250.99 C 416.59 230.97 425.62 204.95 445.25 202.20 C 464.88 199.45 474.71 192.05 493.00 189.00
C 494.19 178.39 488.01 167.61 490.00 158.00
M 765.00 341.00 
C 773.87 342.72 781.93 347.26 792.00 349.00
C 765.01 356.41 735.69 361.51 707.00 368.00
C 686.32 346.45 664.45 323.70 645.00 304.00
C 655.02 305.40 671.18 316.92 673.78 302.78 C 676.38 288.63 680.59 277.34 683.78 263.78 C 686.97 250.21 690.91 238.89 692.98 224.98 C 695.04 211.06 694.56 194.84 689.00 182.00
C 704.42 195.54 719.21 207.83 733.75 224.25 C 748.29 240.66 764.61 249.56 774.31 270.69 C 784.00 291.83 767.56 319.40 765.00 341.00
M 523.00 373.00 
C 515.63 385.34 502.00 395.89 491.25 407.25 C 480.49 418.61 468.25 430.21 457.00 441.00
C 438.67 423.20 427.21 407.51 406.77 390.23 C 386.33 372.96 381.71 344.14 392.33 318.33 C 402.94 292.51 405.05 264.58 413.00 238.00
C 415.48 270.52 440.66 290.78 461.25 311.75 C 481.85 332.72 501.42 353.82 523.00 373.00
M 748.00 414.00 
C 743.46 425.67 740.68 438.08 737.02 450.02 C 733.37 461.97 729.31 475.17 726.07 487.07 C 722.83 498.98 712.93 503.77 703.75 506.20 C 694.57 508.62 683.42 505.40 676.08 501.87 C 668.74 498.34 658.70 495.34 651.90 488.09 C 645.10 480.85 629.25 475.38 630.98 463.98 C 632.71 452.57 638.75 438.06 640.99 425.99 C 643.23 413.92 649.15 400.39 651.00 388.00
C 682.73 396.21 712.80 404.90 748.00 414.00
M 595.00 412.00 
C 587.97 420.39 576.41 430.49 586.25 437.75 C 596.09 445.00 602.24 454.40 610.25 461.75 C 618.27 469.09 620.42 472.61 629.75 481.25 C 639.08 489.89 644.54 495.04 654.75 502.25 C 664.96 509.46 675.31 511.93 686.00 515.00
C 676.37 517.85 667.06 518.30 657.75 521.80 C 648.44 525.30 639.32 526.83 629.75 529.20 C 620.19 531.57 611.27 535.59 601.25 537.59 C 591.24 539.60 583.19 543.19 572.31 541.69 C 561.42 540.19 550.20 534.54 542.70 525.30 C 535.20 516.07 525.68 510.41 517.90 501.10 C 510.12 491.79 499.67 509.71 492.00 515.00
C 497.85 486.69 506.86 459.27 513.00 431.00
C 540.38 426.41 567.57 416.61 595.00 412.00 Z"/>
</g>
<g fill="None" fill-opacity="0.0" stroke="#000000" stroke-opacity="0.00" stroke-width="0.3"><path d="
M 595.00 266.00 
C 606.50 264.63 615.26 261.91 625.92 259.93 C 636.58 257.96 644.04 256.34 655.30 254.31 C 666.57 252.28 679.82 252.44 681.67 237.67 C 683.53 222.91 686.62 206.41 683.00 192.00 C 679.38 177.60 675.31 168.78 664.08 161.92 C 652.84 155.07 642.33 158.21 631.03 160.02 C 619.72 161.84 608.34 164.23 597.25 166.80 C 586.16 169.37 578.87 168.78 568.00 172.00
C 577.62 203.18 587.07 234.40 595.00 266.00 Z"/>
</g>
<g fill="None" fill-opacity="0.0" stroke="#000000" stroke-opacity="0.00" stroke-width="0.3"><path d="
M 490.00 158.00 
C 488.01 167.61 494.19 178.39 493.00 189.00
C 474.71 192.05 464.88 199.45 445.25 202.20 C 425.62 204.95 416.59 230.97 424.01 250.99 C 431.43 271.01 444.51 282.78 457.00 298.00
C 479.07 291.16 500.95 288.60 523.00 283.00
C 526.36 292.18 528.31 302.23 532.00 311.00
C 539.09 281.16 548.36 251.91 555.00 222.00
C 532.61 200.45 510.74 180.86 490.00 158.00 Z"/>
</g>
<g fill="None" fill-opacity="0.0" stroke="#E96800" stroke-opacity="0.08" stroke-width="0.3"><path d="
M 349.00 167.00 
C 350.38 165.62 351.67 163.54 353.00 162.00
C 325.41 186.84 296.90 216.59 269.25 244.25 C 241.59 271.91 211.95 300.30 186.00 329.00
C 240.22 275.15 294.92 221.08 349.00 167.00 Z"/>
</g>
<g fill="None" fill-opacity="0.0" stroke="#000000" stroke-opacity="0.00" stroke-width="0.3"><path d="
M 765.00 341.00 
C 767.56 319.40 784.00 291.83 774.31 270.69 C 764.61 249.56 748.29 240.66 733.75 224.25 C 719.21 207.83 704.42 195.54 689.00 182.00
C 694.56 194.84 695.04 211.06 692.98 224.98 C 690.91 238.89 686.97 250.21 683.78 263.78 C 680.59 277.34 676.38 288.63 673.78 302.78 C 671.18 316.92 655.02 305.40 645.00 304.00
C 664.45 323.70 686.32 346.45 707.00 368.00
C 735.69 361.51 765.01 356.41 792.00 349.00
C 781.93 347.26 773.87 342.72 765.00 341.00 Z"/>
</g>
<g fill="None" fill-opacity="0.0" stroke="#000000" stroke-opacity="0.00" stroke-width="0.3"><path d="
M 523.00 373.00 
C 501.42 353.82 481.85 332.72 461.25 311.75 C 440.66 290.78 415.48 270.52 413.00 238.00
C 405.05 264.58 402.94 292.51 392.33 318.33 C 381.71 344.14 386.33 372.96 406.77 390.23 C 427.21 407.51 438.67 423.20 457.00 441.00
C 468.25 430.21 480.49 418.61 491.25 407.25 C 502.00 395.89 515.63 385.34 523.00 373.00 Z"/>
</g>
<g fill="None" fill-opacity="0.0" stroke="#000000" stroke-opacity="0.00" stroke-width="0.3"><path d="
M 748.00 414.00 
C 712.80 404.90 682.73 396.21 651.00 388.00
C 649.15 400.39 643.23 413.92 640.99 425.99 C 638.75 438.06 632.71 452.57 630.98 463.98 C 629.25 475.38 645.10 480.85 651.90 488.09 C 658.70 495.34 668.74 498.34 676.08 501.87 C 683.42 505.40 694.57 508.62 703.75 506.20 C 712.93 503.77 722.83 498.98 726.07 487.07 C 729.31 475.17 733.37 461.97 737.02 450.02 C 740.68 438.08 743.46 425.67 748.00 414.00 Z"/>
</g>
<g fill="None" fill-opacity="0.0" stroke="#ED7500" stroke-opacity="0.09" stroke-width="0.3"><path d="
M 118.00 396.00 
C 114.19 399.49 108.89 403.17 107.00 408.00
C 110.81 404.51 116.11 400.83 118.00 396.00 Z"/>
</g>
<g fill="None" fill-opacity="0.0" stroke="#000000" stroke-opacity="0.00" stroke-width="0.3"><path d="
M 595.00 412.00 
C 567.57 416.61 540.38 426.41 513.00 431.00
C 506.86 459.27 497.85 486.69 492.00 515.00
C 499.67 509.71 510.12 491.79 517.90 501.10 C 525.68 510.41 535.20 516.07 542.70 525.30 C 550.20 534.54 561.42 540.19 572.31 541.69 C 583.19 543.19 591.24 539.60 601.25 537.59 C 611.27 535.59 620.19 531.57 629.75 529.20 C 639.32 526.83 648.44 525.30 657.75 521.80 C 667.06 518.30 676.37 517.85 686.00 515.00
C 675.31 511.93 664.96 509.46 654.75 502.25 C 644.54 495.04 639.08 489.89 629.75 481.25 C 620.42 472.61 618.27 469.09 610.25 461.75 C 602.24 454.40 596.09 445.00 586.25 437.75 C 576.41 430.49 587.97 420.39 595.00 412.00 Z"/>
</g>
<g fill="None" fill-opacity="0.0" stroke="#EF6900" stroke-opacity="0.07" stroke-width="0.3"><path d="
M 927.00 417.00 
L 927.00 415.00
C 916.27 425.54 903.77 436.09 895.00 448.00
C 906.12 438.38 915.84 426.67 927.00 417.00 Z"/>
</g>
<g fill="None" fill-opacity="0.0" stroke="#ED7500" stroke-opacity="0.09" stroke-width="0.3"><path d="
M 84.00 430.00 
C 79.54 434.17 73.52 438.49 71.00 444.00
C 75.46 439.83 81.48 435.52 84.00 430.00 Z"/>
</g>
<g fill="None" fill-opacity="0.0" stroke="#EC7400" stroke-opacity="0.10" stroke-width="0.3"><path d="
M 47.00 467.00 
C 42.87 470.83 37.20 474.83 35.00 480.00
C 39.13 476.17 44.80 472.17 47.00 467.00 Z"/>
</g>
<g fill="None" fill-opacity="0.0" stroke="#ED7700" stroke-opacity="0.09" stroke-width="0.3"><path d="
M 12.00 502.00 
C 8.19 505.49 2.89 509.17 1.00 514.00
C 4.81 510.51 10.11 506.83 12.00 502.00 Z"/>
</g>
<g fill="None" fill-opacity="0.0" stroke="#EC7900" stroke-opacity="0.97" stroke-width="0.3"><path d="
M 321.00 731.00 
C 308.34 721.92 297.95 707.44 286.70 697.30 C 275.44 687.17 264.30 674.64 252.25 663.75 C 240.19 652.87 229.36 637.72 218.70 629.30 C 208.04 620.89 196.74 597.37 182.75 609.75 C 168.76 622.13 192.24 638.56 202.10 648.90 C 211.96 659.24 225.42 672.00 235.92 683.08 C 246.41 694.17 260.22 704.84 270.70 716.30 C 281.17 727.77 294.10 740.14 303.00 751.00
C 313.81 755.20 325.36 742.71 321.00 731.00 Z"/>
</g>
<g fill="None" fill-opacity="0.0" stroke="#EC7A00" stroke-opacity="0.98" stroke-width="0.3"><path d="
M 172.00 631.00 
C 161.26 625.64 147.27 642.85 155.92 652.08 C 164.56 661.32 172.37 667.52 180.75 676.25 C 189.13 684.99 196.56 692.67 205.23 700.77 C 213.90 708.87 220.53 717.72 229.30 725.70 C 238.07 733.68 245.21 741.62 253.92 750.08 C 262.63 758.55 269.16 765.83 278.77 774.23 C 288.38 782.62 303.84 762.51 293.90 754.10 C 283.96 745.69 278.76 737.56 269.70 729.30 C 260.64 721.05 253.55 713.31 245.08 704.92 C 236.61 696.53 228.55 689.63 220.25 680.75 C 211.95 671.87 203.70 664.25 195.90 656.10 C 188.10 647.95 178.64 640.01 172.00 631.00 Z"/>
</g>
<g fill="None" fill-opacity="0.0" stroke="#EC7B00" stroke-opacity="0.98" stroke-width="0.3"><path d="
M 139.00 655.00 
C 122.66 658.51 129.23 677.43 138.30 683.70 C 147.36 689.98 154.43 700.70 162.90 708.10 C 171.37 715.50 179.08 724.92 187.70 732.30 C 196.31 739.69 203.06 750.00 212.10 756.90 C 221.14 763.80 226.77 775.63 236.30 781.70 C 245.82 787.77 248.70 803.72 262.25 800.59 C 275.81 797.46 273.45 778.11 262.70 772.30 C 251.96 766.49 247.52 754.89 238.10 747.90 C 228.68 740.91 222.45 730.52 213.75 723.25 C 205.04 715.99 197.43 705.91 189.23 698.77 C 181.04 691.63 172.57 680.67 164.70 674.30 C 156.84 667.93 148.94 652.86 139.00 655.00 Z"/>
</g>
<g fill="None" fill-opacity="0.0" stroke="#EC7D00" stroke-opacity="0.99" stroke-width="0.3"><path d="
M 119.00 674.00 
C 109.42 680.31 105.01 687.35 101.00 700.00 C 96.98 712.64 101.92 728.35 104.01 740.99 C 106.10 753.64 117.62 762.26 119.00 774.00 C 120.38 785.74 124.64 796.65 134.70 803.29 C 144.75 809.93 152.50 809.20 162.25 813.61 C 172.00 818.01 180.93 824.23 191.25 826.60 C 201.58 828.97 209.06 830.71 219.92 829.06 C 230.78 827.42 235.76 827.32 246.75 819.75 C 257.74 812.19 245.42 800.41 237.30 793.70 C 229.18 787.00 221.23 777.10 213.30 769.70 C 205.37 762.31 198.13 753.46 189.90 746.10 C 181.67 738.74 173.98 729.83 165.90 722.10 C 157.82 714.37 149.88 706.01 141.90 698.10 C 133.92 690.19 125.72 682.60 119.00 674.00 Z"/>
</g>
<g fill="None" fill-opacity="0.0" stroke="#F07300" stroke-opacity="0.07" stroke-width="0.3"><path d="
M 415.00 927.00 
L 417.00 927.00
C 473.39 868.45 533.74 812.09 589.00 753.00
C 530.71 810.45 472.50 868.67 415.00 927.00 Z"/>
</g>
<g fill="#000000" fill-opacity="0.00" stroke="None">
<path d="
M 0.00 927.00 
L 415.00 927.00
C 472.50 868.67 530.71 810.45 589.00 753.00
C 533.74 812.09 473.39 868.45 417.00 927.00
L 927.00 927.00
L 927.00 417.00
C 915.84 426.67 906.12 438.38 895.00 448.00
C 903.77 436.09 916.27 425.54 927.00 415.00
L 927.00 0.00
L 515.00 0.00
C 478.93 35.39 444.38 73.03 408.00 108.00
C 423.36 97.63 438.19 86.95 454.25 79.25 C 470.30 71.54 486.36 66.15 502.75 60.75 C 519.13 55.34 539.83 52.82 556.75 50.40 C 573.66 47.99 590.21 49.46 607.70 50.35 C 625.19 51.24 645.32 54.84 663.08 59.93 C 680.83 65.01 696.56 70.80 715.23 79.77 C 733.90 88.74 751.12 100.22 767.08 112.92 C 783.05 125.61 796.85 138.73 810.30 154.70 C 823.75 170.68 834.53 186.28 844.77 205.23 C 855.01 224.18 860.12 240.31 866.40 260.75 C 872.67 281.19 878.00 310.44 878.00 334.00 C 878.00 357.56 877.10 388.81 871.02 411.02 C 864.95 433.24 858.29 454.13 848.69 473.69 C 839.10 493.26 828.29 509.22 815.75 525.75 C 803.21 542.29 789.58 555.66 774.75 568.19 C 759.92 580.73 744.59 592.52 728.77 600.77 C 712.95 609.02 695.74 618.50 679.30 623.30 C 662.87 628.11 647.58 634.10 630.75 635.80 C 613.93 637.50 597.41 640.68 580.25 639.60 C 563.10 638.52 544.43 638.41 526.92 633.94 C 509.40 629.46 494.07 625.95 476.25 630.39 C 458.43 634.84 445.18 643.96 431.25 660.25 C 417.31 676.54 402.58 687.09 388.25 703.25 C 373.92 719.41 358.71 716.89 339.92 717.93 C 321.13 718.98 304.51 706.61 291.70 691.30 C 278.90 675.99 262.63 664.29 248.90 649.10 C 235.17 633.91 216.48 622.54 213.00 600.00 C 209.53 577.46 211.05 550.51 229.75 535.75 C 248.46 521.00 255.21 507.42 272.75 492.75 C 290.30 478.08 301.77 459.21 300.98 435.98 C 300.18 412.75 291.40 387.71 291.00 363.00 C 290.60 338.29 290.48 308.18 295.99 284.99 C 301.51 261.81 307.74 241.99 317.30 221.30 C 326.87 200.62 336.20 185.28 349.00 167.00
C 294.92 221.08 240.22 275.15 186.00 329.00
C 211.95 300.30 241.59 271.91 269.25 244.25 C 296.90 216.59 325.41 186.84 353.00 162.00
C 368.73 143.77 386.70 126.61 404.00 111.00
C 417.79 91.46 440.65 74.82 457.75 55.75 C 474.85 36.68 496.11 19.28 513.00 0.00
L 0.00 0.00
L 0.00 927.00
M 118.00 396.00 
C 116.11 400.83 110.81 404.51 107.00 408.00
C 108.89 403.17 114.19 399.49 118.00 396.00
M 84.00 430.00 
C 81.48 435.52 75.46 439.83 71.00 444.00
C 73.52 438.49 79.54 434.17 84.00 430.00
M 47.00 467.00 
C 44.80 472.17 39.13 476.17 35.00 480.00
C 37.20 474.83 42.87 470.83 47.00 467.00
M 12.00 502.00 
C 10.11 506.83 4.81 510.51 1.00 514.00
C 2.89 509.17 8.19 505.49 12.00 502.00
M 321.00 731.00 
C 325.36 742.71 313.81 755.20 303.00 751.00
C 294.10 740.14 281.17 727.77 270.70 716.30 C 260.22 704.84 246.41 694.17 235.92 683.08 C 225.42 672.00 211.96 659.24 202.10 648.90 C 192.24 638.56 168.76 622.13 182.75 609.75 C 196.74 597.37 208.04 620.89 218.70 629.30 C 229.36 637.72 240.19 652.87 252.25 663.75 C 264.30 674.64 275.44 687.17 286.70 697.30 C 297.95 707.44 308.34 721.92 321.00 731.00
M 172.00 631.00 
C 178.64 640.01 188.10 647.95 195.90 656.10 C 203.70 664.25 211.95 671.87 220.25 680.75 C 228.55 689.63 236.61 696.53 245.08 704.92 C 253.55 713.31 260.64 721.05 269.70 729.30 C 278.76 737.56 283.96 745.69 293.90 754.10 C 303.84 762.51 288.38 782.62 278.77 774.23 C 269.16 765.83 262.63 758.55 253.92 750.08 C 245.21 741.62 238.07 733.68 229.30 725.70 C 220.53 717.72 213.90 708.87 205.23 700.77 C 196.56 692.67 189.13 684.99 180.75 676.25 C 172.37 667.52 164.56 661.32 155.92 652.08 C 147.27 642.85 161.26 625.64 172.00 631.00
M 139.00 655.00 
C 148.94 652.86 156.84 667.93 164.70 674.30 C 172.57 680.67 181.04 691.63 189.23 698.77 C 197.43 705.91 205.04 715.99 213.75 723.25 C 222.45 730.52 228.68 740.91 238.10 747.90 C 247.52 754.89 251.96 766.49 262.70 772.30 C 273.45 778.11 275.81 797.46 262.25 800.59 C 248.70 803.72 245.82 787.77 236.30 781.70 C 226.77 775.63 221.14 763.80 212.10 756.90 C 203.06 750.00 196.31 739.69 187.70 732.30 C 179.08 724.92 171.37 715.50 162.90 708.10 C 154.43 700.70 147.36 689.98 138.30 683.70 C 129.23 677.43 122.66 658.51 139.00 655.00
M 119.00 674.00 
C 125.72 682.60 133.92 690.19 141.90 698.10 C 149.88 706.01 157.82 714.37 165.90 722.10 C 173.98 729.83 181.67 738.74 189.90 746.10 C 198.13 753.46 205.37 762.31 213.30 769.70 C 221.23 777.10 229.18 787.00 237.30 793.70 C 245.42 800.41 257.74 812.19 246.75 819.75 C 235.76 827.32 230.78 827.42 219.92 829.06 C 209.06 830.71 201.58 828.97 191.25 826.60 C 180.93 824.23 172.00 818.01 162.25 813.61 C 152.50 809.20 144.75 809.93 134.70 803.29 C 124.64 796.65 120.38 785.74 119.00 774.00 C 117.62 762.26 106.10 753.64 104.01 740.99 C 101.92 728.35 96.98 712.64 101.00 700.00 C 105.01 687.35 109.42 680.31 119.00 674.00 Z"/>
</g>
<g fill="#E76500" fill-opacity="0.07" stroke="None">
<path d="
M 404.00 111.00 
C 405.17 109.94 406.91 109.05 408.00 108.00
C 444.38 73.03 478.93 35.39 515.00 0.00
L 513.00 0.00
C 496.11 19.28 474.85 36.68 457.75 55.75 C 440.65 74.82 417.79 91.46 404.00 111.00 Z"/>
</g>
<g fill="#E96E00" fill-opacity="1.00" stroke="None">
<path d="
M 408.00 108.00 
C 406.91 109.05 405.17 109.94 404.00 111.00
C 386.70 126.61 368.73 143.77 353.00 162.00
C 351.67 163.54 350.38 165.62 349.00 167.00
C 336.20 185.28 326.87 200.62 317.30 221.30 C 307.74 241.99 301.51 261.81 295.99 284.99 C 290.48 308.18 290.60 338.29 291.00 363.00 C 291.40 387.71 300.18 412.75 300.98 435.98 C 301.77 459.21 290.30 478.08 272.75 492.75 C 255.21 507.42 248.46 521.00 229.75 535.75 C 211.05 550.51 209.53 577.46 213.00 600.00 C 216.48 622.54 235.17 633.91 248.90 649.10 C 262.63 664.29 278.90 675.99 291.70 691.30 C 304.51 706.61 321.13 718.98 339.92 717.93 C 358.71 716.89 373.92 719.41 388.25 703.25 C 402.58 687.09 417.31 676.54 431.25 660.25 C 445.18 643.96 458.43 634.84 476.25 630.39 C 494.07 625.95 509.40 629.46 526.92 633.94 C 544.43 638.41 563.10 638.52 580.25 639.60 C 597.41 640.68 613.93 637.50 630.75 635.80 C 647.58 634.10 662.87 628.11 679.30 623.30 C 695.74 618.50 712.95 609.02 728.77 600.77 C 744.59 592.52 759.92 580.73 774.75 568.19 C 789.58 555.66 803.21 542.29 815.75 525.75 C 828.29 509.22 839.10 493.26 848.69 473.69 C 858.29 454.13 864.95 433.24 871.02 411.02 C 877.10 388.81 878.00 357.56 878.00 334.00 C 878.00 310.44 872.67 281.19 866.40 260.75 C 860.12 240.31 855.01 224.18 844.77 205.23 C 834.53 186.28 823.75 170.68 810.30 154.70 C 796.85 138.73 783.05 125.61 767.08 112.92 C 751.12 100.22 733.90 88.74 715.23 79.77 C 696.56 70.80 680.83 65.01 663.08 59.93 C 645.32 54.84 625.19 51.24 607.70 50.35 C 590.21 49.46 573.66 47.99 556.75 50.40 C 539.83 52.82 519.13 55.34 502.75 60.75 C 486.36 66.15 470.30 71.54 454.25 79.25 C 438.19 86.95 423.36 97.63 408.00 108.00
M 595.00 266.00 
C 587.07 234.40 577.62 203.18 568.00 172.00
C 578.87 168.78 586.16 169.37 597.25 166.80 C 608.34 164.23 619.72 161.84 631.03 160.02 C 642.33 158.21 652.84 155.07 664.08 161.92 C 675.31 168.78 679.38 177.60 683.00 192.00 C 686.62 206.41 683.53 222.91 681.67 237.67 C 679.82 252.44 666.57 252.28 655.30 254.31 C 644.04 256.34 636.58 257.96 625.92 259.93 C 615.26 261.91 606.50 264.63 595.00 266.00
M 490.00 158.00 
C 510.74 180.86 532.61 200.45 555.00 222.00
C 548.36 251.91 539.09 281.16 532.00 311.00
C 528.31 302.23 526.36 292.18 523.00 283.00
C 500.95 288.60 479.07 291.16 457.00 298.00
C 444.51 282.78 431.43 271.01 424.01 250.99 C 416.59 230.97 425.62 204.95 445.25 202.20 C 464.88 199.45 474.71 192.05 493.00 189.00
C 494.19 178.39 488.01 167.61 490.00 158.00
M 765.00 341.00 
C 773.87 342.72 781.93 347.26 792.00 349.00
C 765.01 356.41 735.69 361.51 707.00 368.00
C 686.32 346.45 664.45 323.70 645.00 304.00
C 655.02 305.40 671.18 316.92 673.78 302.78 C 676.38 288.63 680.59 277.34 683.78 263.78 C 686.97 250.21 690.91 238.89 692.98 224.98 C 695.04 211.06 694.56 194.84 689.00 182.00
C 704.42 195.54 719.21 207.83 733.75 224.25 C 748.29 240.66 764.61 249.56 774.31 270.69 C 784.00 291.83 767.56 319.40 765.00 341.00
M 523.00 373.00 
C 515.63 385.34 502.00 395.89 491.25 407.25 C 480.49 418.61 468.25 430.21 457.00 441.00
C 438.67 423.20 427.21 407.51 406.77 390.23 C 386.33 372.96 381.71 344.14 392.33 318.33 C 402.94 292.51 405.05 264.58 413.00 238.00
C 415.48 270.52 440.66 290.78 461.25 311.75 C 481.85 332.72 501.42 353.82 523.00 373.00
M 748.00 414.00 
C 743.46 425.67 740.68 438.08 737.02 450.02 C 733.37 461.97 729.31 475.17 726.07 487.07 C 722.83 498.98 712.93 503.77 703.75 506.20 C 694.57 508.62 683.42 505.40 676.08 501.87 C 668.74 498.34 658.70 495.34 651.90 488.09 C 645.10 480.85 629.25 475.38 630.98 463.98 C 632.71 452.57 638.75 438.06 640.99 425.99 C 643.23 413.92 649.15 400.39 651.00 388.00
C 682.73 396.21 712.80 404.90 748.00 414.00
M 595.00 412.00 
C 587.97 420.39 576.41 430.49 586.25 437.75 C 596.09 445.00 602.24 454.40 610.25 461.75 C 618.27 469.09 620.42 472.61 629.75 481.25 C 639.08 489.89 644.54 495.04 654.75 502.25 C 664.96 509.46 675.31 511.93 686.00 515.00
C 676.37 517.85 667.06 518.30 657.75 521.80 C 648.44 525.30 639.32 526.83 629.75 529.20 C 620.19 531.57 611.27 535.59 601.25 537.59 C 591.24 539.60 583.19 543.19 572.31 541.69 C 561.42 540.19 550.20 534.54 542.70 525.30 C 535.20 516.07 525.68 510.41 517.90 501.10 C 510.12 491.79 499.67 509.71 492.00 515.00
C 497.85 486.69 506.86 459.27 513.00 431.00
C 540.38 426.41 567.57 416.61 595.00 412.00 Z"/>
</g>
<g fill="#000000" fill-opacity="0.00" stroke="None">
<path d="
M 595.00 266.00 
C 606.50 264.63 615.26 261.91 625.92 259.93 C 636.58 257.96 644.04 256.34 655.30 254.31 C 666.57 252.28 679.82 252.44 681.67 237.67 C 683.53 222.91 686.62 206.41 683.00 192.00 C 679.38 177.60 675.31 168.78 664.08 161.92 C 652.84 155.07 642.33 158.21 631.03 160.02 C 619.72 161.84 608.34 164.23 597.25 166.80 C 586.16 169.37 578.87 168.78 568.00 172.00
C 577.62 203.18 587.07 234.40 595.00 266.00 Z"/>
</g>
<g fill="#000000" fill-opacity="0.00" stroke="None">
<path d="
M 490.00 158.00 
C 488.01 167.61 494.19 178.39 493.00 189.00
C 474.71 192.05 464.88 199.45 445.25 202.20 C 425.62 204.95 416.59 230.97 424.01 250.99 C 431.43 271.01 444.51 282.78 457.00 298.00
C 479.07 291.16 500.95 288.60 523.00 283.00
C 526.36 292.18 528.31 302.23 532.00 311.00
C 539.09 281.16 548.36 251.91 555.00 222.00
C 532.61 200.45 510.74 180.86 490.00 158.00 Z"/>
</g>
<g fill="#E96800" fill-opacity="0.08" stroke="None">
<path d="
M 349.00 167.00 
C 350.38 165.62 351.67 163.54 353.00 162.00
C 325.41 186.84 296.90 216.59 269.25 244.25 C 241.59 271.91 211.95 300.30 186.00 329.00
C 240.22 275.15 294.92 221.08 349.00 167.00 Z"/>
</g>
<g fill="#000000" fill-opacity="0.00" stroke="None">
<path d="
M 765.00 341.00 
C 767.56 319.40 784.00 291.83 774.31 270.69 C 764.61 249.56 748.29 240.66 733.75 224.25 C 719.21 207.83 704.42 195.54 689.00 182.00
C 694.56 194.84 695.04 211.06 692.98 224.98 C 690.91 238.89 686.97 250.21 683.78 263.78 C 680.59 277.34 676.38 288.63 673.78 302.78 C 671.18 316.92 655.02 305.40 645.00 304.00
C 664.45 323.70 686.32 346.45 707.00 368.00
C 735.69 361.51 765.01 356.41 792.00 349.00
C 781.93 347.26 773.87 342.72 765.00 341.00 Z"/>
</g>
<g fill="#000000" fill-opacity="0.00" stroke="None">
<path d="
M 523.00 373.00 
C 501.42 353.82 481.85 332.72 461.25 311.75 C 440.66 290.78 415.48 270.52 413.00 238.00
C 405.05 264.58 402.94 292.51 392.33 318.33 C 381.71 344.14 386.33 372.96 406.77 390.23 C 427.21 407.51 438.67 423.20 457.00 441.00
C 468.25 430.21 480.49 418.61 491.25 407.25 C 502.00 395.89 515.63 385.34 523.00 373.00 Z"/>
</g>
<g fill="#000000" fill-opacity="0.00" stroke="None">
<path d="
M 748.00 414.00 
C 712.80 404.90 682.73 396.21 651.00 388.00
C 649.15 400.39 643.23 413.92 640.99 425.99 C 638.75 438.06 632.71 452.57 630.98 463.98 C 629.25 475.38 645.10 480.85 651.90 488.09 C 658.70 495.34 668.74 498.34 676.08 501.87 C 683.42 505.40 694.57 508.62 703.75 506.20 C 712.93 503.77 722.83 498.98 726.07 487.07 C 729.31 475.17 733.37 461.97 737.02 450.02 C 740.68 438.08 743.46 425.67 748.00 414.00 Z"/>
</g>
<g fill="#ED7500" fill-opacity="0.09" stroke="None">
<path d="
M 118.00 396.00 
C 114.19 399.49 108.89 403.17 107.00 408.00
C 110.81 404.51 116.11 400.83 118.00 396.00 Z"/>
</g>
<g fill="#000000" fill-opacity="0.00" stroke="None">
<path d="
M 595.00 412.00 
C 567.57 416.61 540.38 426.41 513.00 431.00
C 506.86 459.27 497.85 486.69 492.00 515.00
C 499.67 509.71 510.12 491.79 517.90 501.10 C 525.68 510.41 535.20 516.07 542.70 525.30 C 550.20 534.54 561.42 540.19 572.31 541.69 C 583.19 543.19 591.24 539.60 601.25 537.59 C 611.27 535.59 620.19 531.57 629.75 529.20 C 639.32 526.83 648.44 525.30 657.75 521.80 C 667.06 518.30 676.37 517.85 686.00 515.00
C 675.31 511.93 664.96 509.46 654.75 502.25 C 644.54 495.04 639.08 489.89 629.75 481.25 C 620.42 472.61 618.27 469.09 610.25 461.75 C 602.24 454.40 596.09 445.00 586.25 437.75 C 576.41 430.49 587.97 420.39 595.00 412.00 Z"/>
</g>
<g fill="#EF6900" fill-opacity="0.07" stroke="None">
<path d="
M 927.00 417.00 
L 927.00 415.00
C 916.27 425.54 903.77 436.09 895.00 448.00
C 906.12 438.38 915.84 426.67 927.00 417.00 Z"/>
</g>
<g fill="#ED7500" fill-opacity="0.09" stroke="None">
<path d="
M 84.00 430.00 
C 79.54 434.17 73.52 438.49 71.00 444.00
C 75.46 439.83 81.48 435.52 84.00 430.00 Z"/>
</g>
<g fill="#EC7400" fill-opacity="0.10" stroke="None">
<path d="
M 47.00 467.00 
C 42.87 470.83 37.20 474.83 35.00 480.00
C 39.13 476.17 44.80 472.17 47.00 467.00 Z"/>
</g>
<g fill="#ED7700" fill-opacity="0.09" stroke="None">
<path d="
M 12.00 502.00 
C 8.19 505.49 2.89 509.17 1.00 514.00
C 4.81 510.51 10.11 506.83 12.00 502.00 Z"/>
</g>
<g fill="#EC7900" fill-opacity="0.97" stroke="None">
<path d="
M 321.00 731.00 
C 308.34 721.92 297.95 707.44 286.70 697.30 C 275.44 687.17 264.30 674.64 252.25 663.75 C 240.19 652.87 229.36 637.72 218.70 629.30 C 208.04 620.89 196.74 597.37 182.75 609.75 C 168.76 622.13 192.24 638.56 202.10 648.90 C 211.96 659.24 225.42 672.00 235.92 683.08 C 246.41 694.17 260.22 704.84 270.70 716.30 C 281.17 727.77 294.10 740.14 303.00 751.00
C 313.81 755.20 325.36 742.71 321.00 731.00 Z"/>
</g>
<g fill="#EC7A00" fill-opacity="0.98" stroke="None">
<path d="
M 172.00 631.00 
C 161.26 625.64 147.27 642.85 155.92 652.08 C 164.56 661.32 172.37 667.52 180.75 676.25 C 189.13 684.99 196.56 692.67 205.23 700.77 C 213.90 708.87 220.53 717.72 229.30 725.70 C 238.07 733.68 245.21 741.62 253.92 750.08 C 262.63 758.55 269.16 765.83 278.77 774.23 C 288.38 782.62 303.84 762.51 293.90 754.10 C 283.96 745.69 278.76 737.56 269.70 729.30 C 260.64 721.05 253.55 713.31 245.08 704.92 C 236.61 696.53 228.55 689.63 220.25 680.75 C 211.95 671.87 203.70 664.25 195.90 656.10 C 188.10 647.95 178.64 640.01 172.00 631.00 Z"/>
</g>
<g fill="#EC7B00" fill-opacity="0.98" stroke="None">
<path d="
M 139.00 655.00 
C 122.66 658.51 129.23 677.43 138.30 683.70 C 147.36 689.98 154.43 700.70 162.90 708.10 C 171.37 715.50 179.08 724.92 187.70 732.30 C 196.31 739.69 203.06 750.00 212.10 756.90 C 221.14 763.80 226.77 775.63 236.30 781.70 C 245.82 787.77 248.70 803.72 262.25 800.59 C 275.81 797.46 273.45 778.11 262.70 772.30 C 251.96 766.49 247.52 754.89 238.10 747.90 C 228.68 740.91 222.45 730.52 213.75 723.25 C 205.04 715.99 197.43 705.91 189.23 698.77 C 181.04 691.63 172.57 680.67 164.70 674.30 C 156.84 667.93 148.94 652.86 139.00 655.00 Z"/>
</g>
<g fill="#EC7D00" fill-opacity="0.99" stroke="None">
<path d="
M 119.00 674.00 
C 109.42 680.31 105.01 687.35 101.00 700.00 C 96.98 712.64 101.92 728.35 104.01 740.99 C 106.10 753.64 117.62 762.26 119.00 774.00 C 120.38 785.74 124.64 796.65 134.70 803.29 C 144.75 809.93 152.50 809.20 162.25 813.61 C 172.00 818.01 180.93 824.23 191.25 826.60 C 201.58 828.97 209.06 830.71 219.92 829.06 C 230.78 827.42 235.76 827.32 246.75 819.75 C 257.74 812.19 245.42 800.41 237.30 793.70 C 229.18 787.00 221.23 777.10 213.30 769.70 C 205.37 762.31 198.13 753.46 189.90 746.10 C 181.67 738.74 173.98 729.83 165.90 722.10 C 157.82 714.37 149.88 706.01 141.90 698.10 C 133.92 690.19 125.72 682.60 119.00 674.00 Z"/>
</g>
<g fill="#F07300" fill-opacity="0.07" stroke="None">
<path d="
M 415.00 927.00 
L 417.00 927.00
C 473.39 868.45 533.74 812.09 589.00 753.00
C 530.71 810.45 472.50 868.67 415.00 927.00 Z"/>
</g>
</svg>