<svg xmlns="http://www.w3.org/2000/svg" xmlns:v="https://svgstorm.com"
viewBox = "0 0 3200 800"
width="3200"
height="800">
<g fill="None" fill-opacity="0.0" stroke="#000000" stroke-opacity="0.00" stroke-width="0.3"><path d="
M 0.00 800.00 
L 483.00 800.00
C 483.00 799.50 483.00 799.00 483.00 799.00
C 452.39 799.00 418.41 789.81 394.77 771.23 C 371.13 752.65 357.74 728.58 354.00 696.00 C 350.27 663.42 350.68 616.60 351.00 582.00 C 351.32 547.40 349.14 503.13 356.00 471.00 C 362.86 438.87 378.13 419.10 404.25 402.25 C 430.36 385.39 467.93 380.35 500.00 382.00 C 532.07 383.65 562.89 391.18 587.75 411.25 C 612.60 431.32 623.31 453.39 628.93 486.07 C 634.55 518.76 632.87 564.00 633.00 599.00
C 580.33 599.00 527.67 599.00 475.00 599.00
C 474.13 616.50 476.16 635.67 475.00 653.00 C 473.84 670.33 476.92 690.59 476.00 707.00 C 475.08 723.41 493.78 733.90 506.08 723.08 C 518.37 712.25 514.84 693.96 516.00 678.00 C 517.16 662.04 515.13 639.55 516.00 623.00
C 555.00 623.00 594.00 623.00 633.00 623.00
C 635.26 666.18 634.64 716.01 609.75 749.75 C 584.86 783.49 551.00 798.17 508.00 799.00
C 508.04 799.00 508.00 800.00 508.00 800.00
L 1124.00 800.00
C 1124.00 799.50 1124.00 799.00 1124.00 799.00
C 1095.52 799.00 1066.40 791.43 1042.92 776.08 C 1019.44 760.73 1006.63 742.49 999.02 714.98 C 991.42 687.47 991.15 648.03 992.00 617.00 C 992.85 585.97 990.71 542.33 992.00 512.00 C 993.29 481.67 998.71 453.30 1014.92 429.92 C 1031.13 406.54 1050.57 396.58 1077.07 388.07 C 1103.58 379.56 1144.69 379.91 1172.22 385.78 C 1199.75 391.65 1222.05 401.99 1240.77 422.23 C 1259.49 442.47 1268.56 466.73 1271.98 496.02 C 1275.39 525.32 1273.50 567.91 1274.00 599.00
C 1221.33 599.00 1168.67 599.00 1116.00 599.00
C 1115.17 616.42 1117.10 635.78 1116.00 653.00 C 1114.90 670.22 1117.69 689.81 1116.98 706.02 C 1116.26 722.24 1134.46 734.10 1147.22 723.22 C 1159.99 712.35 1154.87 694.20 1156.00 678.00 C 1157.13 661.80 1155.15 639.73 1156.00 623.00
C 1195.33 623.00 1234.67 623.00 1274.00 623.00
C 1276.36 665.96 1275.54 716.64 1250.75 749.75 C 1225.95 782.85 1192.85 797.98 1150.00 799.00
C 1150.04 799.00 1150.00 800.00 1150.00 800.00
L 2641.00 800.00
C 2612.66 791.79 2586.28 785.45 2564.75 762.25 C 2543.23 739.04 2537.20 711.10 2534.00 678.00 C 2530.80 644.89 2532.32 600.05 2532.00 565.00 C 2531.69 529.95 2532.51 485.36 2532.00 451.00 C 2531.49 416.64 2532.86 380.09 2549.31 353.31 C 2565.75 326.52 2584.00 313.83 2612.74 301.74 C 2641.48 289.66 2681.59 288.00 2713.00 292.00 C 2744.41 296.00 2769.93 305.51 2794.08 325.92 C 2818.23 346.33 2827.44 371.79 2830.99 404.01 C 2834.55 436.23 2834.22 481.74 2834.00 516.00
C 2791.01 516.00 2747.99 516.00 2705.00 516.00
C 2705.80 495.66 2703.94 473.12 2705.00 453.00 C 2706.06 432.88 2703.34 410.80 2703.07 391.93 C 2702.80 373.05 2672.96 367.49 2665.25 384.25 C 2657.53 401.00 2661.00 422.31 2660.00 442.00 C 2659.00 461.69 2660.70 485.64 2660.00 506.00 C 2659.30 526.36 2660.88 548.48 2660.00 569.00 C 2659.12 589.52 2661.61 612.76 2660.00 633.00 C 2658.39 653.24 2662.78 675.23 2661.98 694.02 C 2661.18 712.82 2683.05 727.17 2696.75 712.75 C 2710.45 698.34 2702.38 676.91 2705.00 658.00 C 2707.62 639.09 2703.04 613.51 2705.00 594.00
C 2748.01 594.00 2790.99 594.00 2834.00 594.00
C 2832.99 638.91 2836.94 697.20 2817.75 735.75 C 2798.55 774.29 2761.23 787.89 2723.00 800.00
L 2984.00 800.00
C 2957.34 792.31 2931.64 785.36 2911.75 763.25 C 2891.86 741.14 2879.09 719.86 2877.02 687.98 C 2874.96 656.09 2874.69 614.65 2875.00 581.00 C 2875.31 547.35 2874.31 504.14 2875.00 471.00 C 2875.69 437.86 2873.95 400.09 2884.33 371.33 C 2894.71 342.57 2910.03 327.49 2934.68 311.68 C 2959.33 295.87 2993.27 289.68 3023.00 290.00 C 3052.73 290.32 3086.02 295.54 3110.70 311.30 C 3135.38 327.07 3150.49 342.93 3160.78 371.22 C 3171.07 399.51 3169.84 437.15 3171.00 470.00 C 3172.16 502.85 3169.97 546.45 3171.00 580.00 C 3172.03 613.55 3169.73 654.27 3168.00 686.00 C 3166.27 717.73 3154.63 740.97 3134.75 762.75 C 3114.86 784.52 3088.93 792.22 3062.00 800.00
L 3200.00 800.00
L 3200.00 0.00
L 0.00 0.00
L 0.00 800.00
M 2213.00 791.00 
C 2190.28 796.03 2164.96 790.46 2141.00 792.00 C 2117.04 793.54 2091.22 791.42 2067.00 792.00 C 2042.78 792.58 2018.29 792.03 1994.00 792.00 C 1969.71 791.97 1944.22 792.63 1920.00 792.00 C 1895.78 791.37 1870.95 793.69 1847.00 792.00 C 1823.05 790.31 1796.68 796.27 1774.00 791.00
C 1740.56 783.22 1747.11 748.75 1747.00 719.00 C 1746.89 689.25 1747.04 650.47 1747.00 619.00 C 1746.96 587.53 1747.00 550.93 1747.00 519.00
C 1747.00 456.16 1744.55 392.78 1747.00 330.00
C 1748.10 301.83 1775.03 297.25 1801.00 299.00 C 1826.97 300.75 1860.51 298.04 1888.00 299.00 C 1915.50 299.96 1946.98 298.19 1975.00 299.00 C 2003.02 299.81 2034.11 297.79 2062.00 299.00 C 2089.89 300.21 2121.97 296.59 2149.00 299.00 C 2176.03 301.41 2206.34 290.26 2227.75 307.25 C 2249.16 324.23 2238.04 355.77 2240.00 382.00 C 2241.96 408.23 2239.05 441.44 2240.00 469.00 C 2240.95 496.56 2239.43 528.06 2240.00 556.00 C 2240.57 583.94 2239.44 615.40 2240.00 643.00 C 2240.56 670.60 2239.06 703.66 2240.00 730.00 C 2240.94 756.34 2242.11 784.55 2213.00 791.00
M 248.00 537.00 
C 272.47 545.60 299.12 554.72 306.31 584.69 C 313.49 614.67 310.21 652.90 311.00 686.00 C 311.79 719.10 310.41 758.34 311.00 792.00
C 271.00 792.00 231.00 792.00 191.00 792.00
C 191.08 774.99 190.89 758.01 191.00 741.00 C 191.11 723.99 190.79 707.01 191.00 690.00 C 191.21 672.99 190.55 654.92 191.00 638.00 C 191.45 621.08 190.13 606.10 188.00 590.00 C 185.87 573.90 168.31 570.37 154.00 572.00
C 154.00 645.33 154.00 718.67 154.00 792.00
C 110.67 792.00 67.33 792.00 24.00 792.00
C 24.00 628.00 24.00 464.00 24.00 300.00
C 55.11 300.04 90.30 299.95 121.00 300.00 C 151.70 300.05 186.02 301.93 215.00 304.00 C 243.98 306.07 264.08 313.46 283.25 333.75 C 302.42 354.05 305.44 378.19 309.00 406.00 C 312.56 433.81 310.50 468.08 304.07 495.07 C 297.65 522.06 273.29 531.87 248.00 537.00
M 2492.00 300.00 
C 2492.00 333.33 2492.00 366.67 2492.00 400.00
C 2463.67 400.00 2435.33 400.00 2407.00 400.00
C 2407.00 430.67 2407.00 461.33 2407.00 492.00
C 2433.34 492.00 2459.66 492.00 2486.00 492.00
C 2486.00 523.67 2486.00 555.33 2486.00 587.00
C 2459.67 587.00 2433.33 587.00 2407.00 587.00
C 2407.00 622.00 2407.00 657.00 2407.00 692.00
C 2438.00 692.00 2469.00 692.00 2500.00 692.00
C 2500.01 725.34 2500.00 758.66 2500.00 792.00
C 2425.67 792.00 2351.33 792.00 2277.00 792.00
C 2277.01 628.00 2276.99 464.00 2277.00 300.00
C 2348.66 300.00 2420.34 300.00 2492.00 300.00
M 956.00 792.00 
C 914.67 792.00 873.33 792.00 832.00 792.00
C 832.04 774.28 831.94 756.73 832.00 739.00 C 832.06 721.27 831.89 703.80 832.00 686.00 C 832.11 668.20 831.77 649.83 832.00 632.00 C 832.23 614.17 831.48 596.85 832.00 579.00 C 832.52 561.15 830.87 542.88 832.00 525.00 C 833.13 507.12 829.80 491.44 830.07 473.93 C 830.34 456.42 814.08 448.64 800.00 460.00
C 792.13 513.37 797.10 568.77 796.00 624.00 C 794.91 679.23 796.82 736.58 796.00 792.00
C 754.67 792.00 713.33 792.00 672.00 792.00
C 672.00 657.66 672.00 523.34 672.00 389.00
C 714.00 389.00 756.00 389.00 798.00 389.00
C 797.29 399.31 794.46 411.09 797.00 421.00
C 814.25 393.06 846.94 378.98 879.00 382.00 C 911.06 385.02 941.56 398.74 949.32 433.68 C 957.08 468.62 955.87 509.39 956.00 548.00 C 956.13 586.61 955.93 630.40 956.00 670.00 C 956.07 709.60 955.95 752.14 956.00 792.00
M 1422.00 609.00 
C 1422.02 608.96 1423.04 606.81 1423.00 607.00
C 1423.74 570.17 1432.53 535.17 1435.78 498.78 C 1439.03 462.38 1444.88 425.50 1448.00 389.00
C 1482.67 389.00 1517.33 389.00 1552.00 389.00
C 1558.55 462.60 1567.71 535.56 1575.00 609.00
C 1576.95 597.64 1575.63 584.60 1578.00 573.00 C 1580.37 561.40 1579.19 548.73 1581.00 537.00 C 1582.81 525.27 1584.51 513.75 1585.93 501.93 C 1587.35 490.11 1588.90 479.27 1590.33 467.33 C 1591.76 455.39 1594.50 446.19 1595.78 433.78 C 1597.06 421.37 1599.87 412.30 1600.93 398.93 C 1601.99 385.55 1617.35 388.83 1630.00 389.00 C 1642.65 389.17 1656.07 388.92 1669.00 389.00 C 1681.93 389.08 1695.97 388.94 1709.00 389.00
C 1694.40 523.68 1676.26 657.47 1661.00 792.00
C 1616.00 792.00 1571.01 792.00 1526.00 792.00
C 1517.65 731.18 1509.97 669.54 1502.00 609.00
C 1495.32 670.11 1484.19 730.93 1476.00 792.00
C 1430.67 792.00 1385.33 792.00 1340.00 792.00
C 1324.69 657.26 1305.41 523.49 1289.00 389.00
C 1324.66 389.00 1360.34 389.00 1396.00 389.00
C 1404.19 462.36 1412.41 536.38 1422.00 609.00 Z"/>
</g>
<g fill="None" fill-opacity="0.0" stroke="#E86A00" stroke-opacity="0.99" stroke-width="0.3"><path d="
M 2641.00 800.00 
L 2723.00 800.00
C 2761.23 787.89 2798.55 774.29 2817.75 735.75 C 2836.94 697.20 2832.99 638.91 2834.00 594.00
C 2790.99 594.00 2748.01 594.00 2705.00 594.00
C 2703.04 613.51 2707.62 639.09 2705.00 658.00 C 2702.38 676.91 2710.45 698.34 2696.75 712.75 C 2683.05 727.17 2661.18 712.82 2661.98 694.02 C 2662.78 675.23 2658.39 653.24 2660.00 633.00 C 2661.61 612.76 2659.12 589.52 2660.00 569.00 C 2660.88 548.48 2659.30 526.36 2660.00 506.00 C 2660.70 485.64 2659.00 461.69 2660.00 442.00 C 2661.00 422.31 2657.53 401.00 2665.25 384.25 C 2672.96 367.49 2702.80 373.05 2703.07 391.93 C 2703.34 410.80 2706.06 432.88 2705.00 453.00 C 2703.94 473.12 2705.80 495.66 2705.00 516.00
C 2747.99 516.00 2791.01 516.00 2834.00 516.00
C 2834.22 481.74 2834.55 436.23 2830.99 404.01 C 2827.44 371.79 2818.23 346.33 2794.08 325.92 C 2769.93 305.51 2744.41 296.00 2713.00 292.00 C 2681.59 288.00 2641.48 289.66 2612.74 301.74 C 2584.00 313.83 2565.75 326.52 2549.31 353.31 C 2532.86 380.09 2531.49 416.64 2532.00 451.00 C 2532.51 485.36 2531.69 529.95 2532.00 565.00 C 2532.32 600.05 2530.80 644.89 2534.00 678.00 C 2537.20 711.10 2543.23 739.04 2564.75 762.25 C 2586.28 785.45 2612.66 791.79 2641.00 800.00 Z"/>
</g>
<g fill="None" fill-opacity="0.0" stroke="#E86A00" stroke-opacity="0.99" stroke-width="0.3"><path d="
M 2984.00 800.00 
L 3062.00 800.00
C 3088.93 792.22 3114.86 784.52 3134.75 762.75 C 3154.63 740.97 3166.27 717.73 3168.00 686.00 C 3169.73 654.27 3172.03 613.55 3171.00 580.00 C 3169.97 546.45 3172.16 502.85 3171.00 470.00 C 3169.84 437.15 3171.07 399.51 3160.78 371.22 C 3150.49 342.93 3135.38 327.07 3110.70 311.30 C 3086.02 295.54 3052.73 290.32 3023.00 290.00 C 2993.27 289.68 2959.33 295.87 2934.68 311.68 C 2910.03 327.49 2894.71 342.57 2884.33 371.33 C 2873.95 400.09 2875.69 437.86 2875.00 471.00 C 2874.31 504.14 2875.31 547.35 2875.00 581.00 C 2874.69 614.65 2874.96 656.09 2877.02 687.98 C 2879.09 719.86 2891.86 741.14 2911.75 763.25 C 2931.64 785.36 2957.34 792.31 2984.00 800.00
M 3027.00 375.00 
C 3043.30 377.01 3040.71 399.71 3041.99 414.01 C 3043.27 428.31 3041.39 451.63 3042.00 468.00 C 3042.61 484.37 3041.62 505.83 3042.00 523.00 C 3042.38 540.17 3041.60 559.68 3042.00 577.00 C 3042.40 594.32 3041.32 615.09 3042.00 632.00 C 3042.68 648.91 3040.90 669.64 3041.00 685.00 C 3041.10 700.36 3037.53 720.85 3019.33 717.67 C 3001.13 714.49 3004.88 694.83 3004.00 679.00 C 3003.12 663.17 3004.40 642.07 3004.00 625.00 C 3003.60 607.93 3004.21 587.53 3004.00 570.00 C 3003.80 552.47 3004.14 533.58 3004.00 516.00 C 3003.86 498.42 3004.17 478.23 3004.00 461.00 C 3003.83 443.77 3004.32 423.23 3004.00 407.00 C 3003.68 390.77 3008.14 372.68 3027.00 375.00 Z"/>
</g>
<g fill="None" fill-opacity="0.0" stroke="#E96D00" stroke-opacity="0.98" stroke-width="0.3"><path d="
M 1747.00 330.00 
C 1747.16 332.04 1748.00 335.28 1748.00 338.00
C 1753.52 339.53 1754.24 346.03 1760.00 346.00
C 1760.50 355.16 1774.79 356.48 1772.00 364.00
C 1774.67 364.60 1777.29 365.41 1780.00 366.00
C 1776.46 373.69 1792.11 375.14 1791.00 383.00
C 1792.56 379.37 1794.92 382.71 1797.00 384.00
C 1793.76 385.62 1797.68 385.68 1796.00 388.00
C 1799.14 388.53 1801.29 392.02 1805.00 391.00
C 1800.83 392.76 1805.65 395.73 1808.00 394.00
C 1806.53 398.33 1812.07 404.12 1817.25 406.75 C 1822.43 409.38 1822.59 417.62 1829.00 415.00
C 1829.11 419.53 1833.63 421.39 1834.00 426.00
C 1836.55 420.29 1835.52 427.51 1840.00 427.00
C 1836.89 428.67 1839.53 430.35 1842.00 429.00
C 1838.71 432.32 1844.23 432.91 1844.00 436.00
C 1844.88 432.75 1852.29 439.41 1849.00 441.00
C 1854.13 440.27 1856.59 447.90 1860.04 449.96 C 1863.48 452.03 1861.97 458.17 1867.00 455.00
C 1865.09 457.99 1869.91 462.22 1873.00 460.00
C 1872.63 461.54 1874.43 462.40 1874.00 464.00
C 1888.52 374.57 1966.17 304.58 2059.02 308.98 C 2151.88 313.38 2226.63 387.90 2230.00 481.00 C 2233.37 574.10 2161.81 655.38 2070.00 664.00
C 2069.46 664.33 2070.21 665.52 2069.00 666.00
C 2069.17 670.88 2080.78 674.08 2075.00 676.00
C 2078.64 676.79 2081.90 678.96 2085.00 681.00
C 2081.12 687.64 2093.54 686.46 2091.00 692.00
C 2093.97 689.49 2094.28 691.46 2095.00 695.00
C 2100.14 693.20 2099.87 704.64 2106.00 703.00
C 2105.69 705.22 2106.86 710.40 2110.00 707.00
C 2108.62 711.63 2112.22 710.46 2112.00 714.00
C 2116.62 710.72 2122.20 722.63 2127.00 723.00
C 2122.72 726.35 2130.64 728.24 2132.25 729.80 C 2133.85 731.36 2137.62 739.61 2140.00 736.00
C 2146.07 747.12 2153.40 756.02 2164.00 761.00
C 2160.87 764.70 2165.04 768.41 2169.00 767.00
C 2168.93 771.05 2173.03 772.16 2174.59 774.75 C 2176.15 777.34 2178.91 781.96 2182.00 779.00
C 2182.05 781.91 2185.54 787.84 2189.00 787.00
C 2190.20 790.66 2186.67 788.14 2187.00 791.00
C 2195.59 791.00 2205.06 791.72 2213.00 791.00
C 2242.11 784.55 2240.94 756.34 2240.00 730.00 C 2239.06 703.66 2240.56 670.60 2240.00 643.00 C 2239.44 615.40 2240.57 583.94 2240.00 556.00 C 2239.43 528.06 2240.95 496.56 2240.00 469.00 C 2239.05 441.44 2241.96 408.23 2240.00 382.00 C 2238.04 355.77 2249.16 324.23 2227.75 307.25 C 2206.34 290.26 2176.03 301.41 2149.00 299.00 C 2121.97 296.59 2089.89 300.21 2062.00 299.00 C 2034.11 297.79 2003.02 299.81 1975.00 299.00 C 1946.98 298.19 1915.50 299.96 1888.00 299.00 C 1860.51 298.04 1826.97 300.75 1801.00 299.00 C 1775.03 297.25 1748.10 301.83 1747.00 330.00 Z"/>
</g>
<g fill="None" fill-opacity="0.0" stroke="#EC7D00" stroke-opacity="0.99" stroke-width="0.3"><path d="
M 248.00 537.00 
C 273.29 531.87 297.65 522.06 304.07 495.07 C 310.50 468.08 312.56 433.81 309.00 406.00 C 305.44 378.19 302.42 354.05 283.25 333.75 C 264.08 313.46 243.98 306.07 215.00 304.00 C 186.02 301.93 151.70 300.05 121.00 300.00 C 90.30 299.95 55.11 300.04 24.00 300.00
C 24.00 464.00 24.00 628.00 24.00 792.00
C 67.33 792.00 110.67 792.00 154.00 792.00
C 154.00 718.67 154.00 645.33 154.00 572.00
C 168.31 570.37 185.87 573.90 188.00 590.00 C 190.13 606.10 191.45 621.08 191.00 638.00 C 190.55 654.92 191.21 672.99 191.00 690.00 C 190.79 707.01 191.11 723.99 191.00 741.00 C 190.89 758.01 191.08 774.99 191.00 792.00
C 231.00 792.00 271.00 792.00 311.00 792.00
C 310.41 758.34 311.79 719.10 311.00 686.00 C 310.21 652.90 313.49 614.67 306.31 584.69 C 299.12 554.72 272.47 545.60 248.00 537.00
M 154.00 493.00 
C 154.00 457.33 154.00 421.67 154.00 386.00
C 171.01 385.46 188.24 390.93 189.98 410.02 C 191.72 429.12 190.70 448.60 190.00 468.00 C 189.30 487.40 172.93 495.38 154.00 493.00 Z"/>
</g>
<g fill="None" fill-opacity="0.0" stroke="#E86A00" stroke-opacity="0.99" stroke-width="0.3"><path d="
M 2492.00 300.00 
C 2420.34 300.00 2348.66 300.00 2277.00 300.00
C 2276.99 464.00 2277.01 628.00 2277.00 792.00
C 2351.33 792.00 2425.67 792.00 2500.00 792.00
C 2500.00 758.66 2500.01 725.34 2500.00 692.00
C 2469.00 692.00 2438.00 692.00 2407.00 692.00
C 2407.00 657.00 2407.00 622.00 2407.00 587.00
C 2433.33 587.00 2459.67 587.00 2486.00 587.00
C 2486.00 555.33 2486.00 523.67 2486.00 492.00
C 2459.66 492.00 2433.34 492.00 2407.00 492.00
C 2407.00 461.33 2407.00 430.67 2407.00 400.00
C 2435.33 400.00 2463.67 400.00 2492.00 400.00
C 2492.00 366.67 2492.00 333.33 2492.00 300.00 Z"/>
</g>
<g fill="None" fill-opacity="0.0" stroke="#000000" stroke-opacity="0.00" stroke-width="0.3"><path d="
M 1874.00 464.00 
C 1870.85 483.38 1872.02 507.47 1876.98 526.02 C 1881.93 544.58 1878.42 563.67 1864.92 575.92 C 1851.42 588.17 1843.51 597.44 1831.23 610.23 C 1818.95 623.03 1824.07 648.10 1835.75 660.25 C 1847.43 672.40 1858.78 680.62 1869.75 694.25 C 1880.72 707.88 1899.34 718.16 1916.67 712.67 C 1934.01 707.18 1940.86 695.26 1953.75 682.75 C 1966.64 670.24 1978.29 656.11 1998.00 659.00 C 2017.71 661.89 2037.73 666.78 2058.00 665.00
C 2062.00 664.65 2066.27 664.35 2070.00 664.00
C 2161.81 655.38 2233.37 574.10 2230.00 481.00 C 2226.63 387.90 2151.88 313.38 2059.02 308.98 C 1966.17 304.58 1888.52 374.57 1874.00 464.00
M 2018.00 469.00 
C 2016.30 463.34 2015.30 457.48 2013.00 452.00
C 1999.27 454.30 1986.00 458.49 1972.00 460.00
C 1986.60 475.84 2000.22 490.87 2016.00 504.00
C 2013.09 512.88 2002.51 518.94 1996.25 526.25 C 1989.99 533.55 1981.44 539.26 1976.00 548.00
C 1966.21 543.36 1958.85 533.42 1950.75 525.25 C 1942.65 517.08 1932.68 509.90 1929.23 497.77 C 1925.78 485.64 1933.69 470.33 1936.00 458.00 C 1938.31 445.66 1943.97 431.93 1947.00 420.00
C 1949.91 435.07 1958.24 450.76 1972.00 459.00
C 1965.97 453.17 1962.94 448.47 1957.70 442.30 C 1952.46 436.12 1950.45 426.41 1951.00 418.00 C 1951.55 409.59 1954.28 401.15 1963.67 399.67 C 1973.07 398.20 1977.21 393.54 1987.22 392.22 C 1997.24 390.91 1992.23 378.83 1991.00 370.00
C 1999.05 375.33 2005.27 382.08 2011.90 389.10 C 2018.53 396.12 2025.67 401.67 2031.90 409.10 C 2038.14 416.53 2029.90 430.00 2028.02 439.02 C 2026.15 448.05 2023.75 462.60 2018.00 469.00
M 2040.00 380.00 
C 2049.81 377.96 2061.27 376.87 2071.01 375.01 C 2080.74 373.14 2091.20 369.36 2100.23 373.77 C 2109.25 378.19 2112.48 387.25 2113.93 396.07 C 2115.37 404.90 2114.67 420.40 2111.07 428.07 C 2107.47 435.75 2090.17 434.03 2083.00 436.00 C 2075.83 437.97 2058.91 445.36 2056.01 436.99 C 2053.11 428.62 2050.78 417.96 2048.01 408.99 C 2045.24 400.03 2041.99 389.36 2040.00 380.00
M 2164.00 484.00 
C 2169.49 486.00 2177.52 487.05 2181.00 491.00
C 2163.48 497.02 2144.01 498.56 2126.00 504.00
C 2120.49 495.89 2111.35 490.13 2105.25 482.75 C 2099.16 475.36 2089.63 468.24 2086.00 460.00
C 2092.00 461.25 2097.40 464.91 2104.00 464.00
C 2109.03 437.83 2124.62 409.75 2112.00 383.00
C 2130.50 394.95 2135.87 409.87 2154.70 423.30 C 2173.53 436.74 2172.72 464.20 2164.00 484.00
M 2152.00 528.00 
C 2152.53 544.71 2141.50 554.74 2140.22 571.22 C 2138.95 587.71 2116.72 592.08 2104.78 584.22 C 2092.83 576.36 2077.35 572.09 2079.98 556.98 C 2082.61 541.86 2088.18 527.16 2091.00 512.00
C 2111.55 516.38 2131.51 523.30 2152.00 528.00
M 2062.00 526.00 
C 2060.98 530.98 2048.44 537.19 2053.26 542.74 C 2058.07 548.30 2063.23 551.79 2067.90 557.10 C 2072.57 562.41 2077.26 565.79 2081.75 571.25 C 2086.25 576.70 2092.50 579.13 2098.08 583.92 C 2103.67 588.70 2115.90 586.93 2119.00 592.00
C 2109.16 593.06 2100.48 597.90 2090.93 599.93 C 2081.37 601.96 2070.94 604.71 2061.77 607.77 C 2052.61 610.84 2039.68 611.14 2031.77 605.23 C 2023.86 599.32 2019.48 595.53 2012.30 587.70 C 2005.13 579.86 2000.07 592.11 1992.00 595.00
C 1994.48 581.96 2000.56 572.59 2001.93 558.93 C 2003.29 545.27 2009.50 535.61 2024.07 535.07 C 2038.65 534.53 2047.53 525.99 2062.00 526.00 Z"/>
</g>
<g fill="None" fill-opacity="0.0" stroke="#EC7B00" stroke-opacity="0.87" stroke-width="0.3"><path d="
M 1747.00 519.00 
C 1749.82 489.82 1747.49 459.04 1748.00 429.00 C 1748.51 398.96 1748.00 368.11 1748.00 338.00
C 1748.00 335.28 1747.16 332.04 1747.00 330.00
C 1744.55 392.78 1747.00 456.16 1747.00 519.00 Z"/>
</g>
<g fill="None" fill-opacity="0.0" stroke="#EC7D00" stroke-opacity="0.98" stroke-width="0.3"><path d="
M 1747.00 519.00 
C 1747.00 550.93 1746.96 587.53 1747.00 619.00 C 1747.04 650.47 1746.89 689.25 1747.00 719.00 C 1747.11 748.75 1740.56 783.22 1774.00 791.00
C 1807.94 794.79 1842.82 789.30 1877.00 791.00 C 1911.18 792.70 1945.69 790.26 1980.00 791.00 C 2014.31 791.74 2048.58 790.73 2083.00 791.00 C 2117.42 791.27 2152.52 791.00 2187.00 791.00
C 2186.67 788.14 2190.20 790.66 2189.00 787.00
C 2185.54 787.84 2182.05 781.91 2182.00 779.00
C 2178.91 781.96 2176.15 777.34 2174.59 774.75 C 2173.03 772.16 2168.93 771.05 2169.00 767.00
C 2165.04 768.41 2160.87 764.70 2164.00 761.00
C 2153.40 756.02 2146.07 747.12 2140.00 736.00
C 2137.62 739.61 2133.85 731.36 2132.25 729.80 C 2130.64 728.24 2122.72 726.35 2127.00 723.00
C 2122.20 722.63 2116.62 710.72 2112.00 714.00
C 2112.22 710.46 2108.62 711.63 2110.00 707.00
C 2106.86 710.40 2105.69 705.22 2106.00 703.00
C 2099.87 704.64 2100.14 693.20 2095.00 695.00
C 2094.28 691.46 2093.97 689.49 2091.00 692.00
C 2093.54 686.46 2081.12 687.64 2085.00 681.00
C 2081.90 678.96 2078.64 676.79 2075.00 676.00
C 2080.78 674.08 2069.17 670.88 2069.00 666.00
C 2065.71 667.31 2060.53 665.02 2058.00 665.00
C 2037.73 666.78 2017.71 661.89 1998.00 659.00 C 1978.29 656.11 1966.64 670.24 1953.75 682.75 C 1940.86 695.26 1934.01 707.18 1916.67 712.67 C 1899.34 718.16 1880.72 707.88 1869.75 694.25 C 1858.78 680.62 1847.43 672.40 1835.75 660.25 C 1824.07 648.10 1818.95 623.03 1831.23 610.23 C 1843.51 597.44 1851.42 588.17 1864.92 575.92 C 1878.42 563.67 1881.93 544.58 1876.98 526.02 C 1872.02 507.47 1870.85 483.38 1874.00 464.00
C 1874.43 462.40 1872.63 461.54 1873.00 460.00
C 1869.91 462.22 1865.09 457.99 1867.00 455.00
C 1861.97 458.17 1863.48 452.03 1860.04 449.96 C 1856.59 447.90 1854.13 440.27 1849.00 441.00
C 1852.29 439.41 1844.88 432.75 1844.00 436.00
C 1844.23 432.91 1838.71 432.32 1842.00 429.00
C 1839.53 430.35 1836.89 428.67 1840.00 427.00
C 1835.52 427.51 1836.55 420.29 1834.00 426.00
C 1833.63 421.39 1829.11 419.53 1829.00 415.00
C 1822.59 417.62 1822.43 409.38 1817.25 406.75 C 1812.07 404.12 1806.53 398.33 1808.00 394.00
C 1805.65 395.73 1800.83 392.76 1805.00 391.00
C 1801.29 392.02 1799.14 388.53 1796.00 388.00
C 1797.68 385.68 1793.76 385.62 1797.00 384.00
C 1794.92 382.71 1792.56 379.37 1791.00 383.00
C 1792.11 375.14 1776.46 373.69 1780.00 366.00
C 1777.29 365.41 1774.67 364.60 1772.00 364.00
C 1774.79 356.48 1760.50 355.16 1760.00 346.00
C 1754.24 346.03 1753.52 339.53 1748.00 338.00
C 1748.00 368.11 1748.51 398.96 1748.00 429.00 C 1747.49 459.04 1749.82 489.82 1747.00 519.00
M 1804.00 652.00 
C 1812.81 644.39 1818.54 655.84 1825.25 661.75 C 1831.96 667.66 1837.18 674.61 1844.25 680.75 C 1851.31 686.89 1855.34 693.52 1863.25 699.75 C 1871.15 705.99 1872.45 712.48 1882.25 718.75 C 1892.05 725.02 1886.18 738.85 1877.25 730.75 C 1868.32 722.65 1865.96 718.65 1858.30 711.70 C 1850.64 704.76 1846.30 699.13 1839.70 692.30 C 1833.09 685.47 1826.20 680.88 1820.25 673.75 C 1814.30 666.62 1804.53 661.96 1804.00 652.00
M 1792.00 664.00 
C 1802.28 663.72 1806.92 673.94 1814.08 679.92 C 1821.25 685.90 1825.76 692.62 1832.77 699.23 C 1839.78 705.85 1844.87 710.41 1851.92 718.08 C 1858.96 725.76 1863.00 727.80 1871.23 736.77 C 1879.46 745.74 1865.55 752.27 1859.70 742.30 C 1853.86 732.32 1846.38 731.50 1840.30 723.70 C 1834.23 715.90 1827.97 711.07 1821.75 704.25 C 1815.54 697.43 1808.40 692.08 1802.75 685.25 C 1797.10 678.43 1784.73 673.46 1792.00 664.00
M 1782.00 679.00 
C 1788.77 680.40 1793.07 691.90 1799.25 695.75 C 1805.43 699.60 1810.13 708.18 1816.25 712.75 C 1822.37 717.32 1826.88 725.19 1833.25 729.75 C 1839.61 734.31 1843.17 742.94 1850.25 746.75 C 1857.32 750.56 1863.17 764.06 1852.99 763.99 C 1842.81 763.92 1842.28 752.10 1835.23 747.77 C 1828.18 743.44 1823.76 736.02 1817.77 731.23 C 1811.77 726.45 1806.85 718.53 1800.75 714.25 C 1794.66 709.96 1790.84 699.42 1784.08 696.92 C 1777.33 694.42 1769.55 676.42 1782.00 679.00
M 1767.00 691.00 
C 1793.34 718.83 1821.71 745.21 1848.00 773.00
C 1839.58 781.81 1828.33 782.36 1816.99 781.01 C 1805.65 779.66 1798.71 772.12 1788.31 770.65 C 1777.90 769.18 1769.50 760.53 1768.00 750.00 C 1766.50 739.47 1758.22 730.88 1757.01 719.99 C 1755.80 709.10 1757.13 697.24 1767.00 691.00 Z"/>
</g>
<g fill="None" fill-opacity="0.0" stroke="#E96C00" stroke-opacity="0.96" stroke-width="0.3"><path d="
M 2018.00 469.00 
C 2023.75 462.60 2026.15 448.05 2028.02 439.02 C 2029.90 430.00 2038.14 416.53 2031.90 409.10 C 2025.67 401.67 2018.53 396.12 2011.90 389.10 C 2005.27 382.08 1999.05 375.33 1991.00 370.00
C 1992.23 378.83 1997.24 390.91 1987.22 392.22 C 1977.21 393.54 1973.07 398.20 1963.67 399.67 C 1954.28 401.15 1951.55 409.59 1951.00 418.00 C 1950.45 426.41 1952.46 436.12 1957.70 442.30 C 1962.94 448.47 1965.97 453.17 1972.00 459.00
C 1958.24 450.76 1949.91 435.07 1947.00 420.00
C 1943.97 431.93 1938.31 445.66 1936.00 458.00 C 1933.69 470.33 1925.78 485.64 1929.23 497.77 C 1932.68 509.90 1942.65 517.08 1950.75 525.25 C 1958.85 533.42 1966.21 543.36 1976.00 548.00
C 1981.44 539.26 1989.99 533.55 1996.25 526.25 C 2002.51 518.94 2013.09 512.88 2016.00 504.00
C 2000.22 490.87 1986.60 475.84 1972.00 460.00
C 1986.00 458.49 1999.27 454.30 2013.00 452.00
C 2015.30 457.48 2016.30 463.34 2018.00 469.00 Z"/>
</g>
<g fill="None" fill-opacity="0.0" stroke="#E96B00" stroke-opacity="0.97" stroke-width="0.3"><path d="
M 2040.00 380.00 
C 2041.99 389.36 2045.24 400.03 2048.01 408.99 C 2050.78 417.96 2053.11 428.62 2056.01 436.99 C 2058.91 445.36 2075.83 437.97 2083.00 436.00 C 2090.17 434.03 2107.47 435.75 2111.07 428.07 C 2114.67 420.40 2115.37 404.90 2113.93 396.07 C 2112.48 387.25 2109.25 378.19 2100.23 373.77 C 2091.20 369.36 2080.74 373.14 2071.01 375.01 C 2061.27 376.87 2049.81 377.96 2040.00 380.00 Z"/>
</g>
<g fill="None" fill-opacity="0.0" stroke="#000000" stroke-opacity="0.00" stroke-width="0.3"><path d="
M 3027.00 375.00 
C 3008.14 372.68 3003.68 390.77 3004.00 407.00 C 3004.32 423.23 3003.83 443.77 3004.00 461.00 C 3004.17 478.23 3003.86 498.42 3004.00 516.00 C 3004.14 533.58 3003.80 552.47 3004.00 570.00 C 3004.21 587.53 3003.60 607.93 3004.00 625.00 C 3004.40 642.07 3003.12 663.17 3004.00 679.00 C 3004.88 694.83 3001.13 714.49 3019.33 717.67 C 3037.53 720.85 3041.10 700.36 3041.00 685.00 C 3040.90 669.64 3042.68 648.91 3042.00 632.00 C 3041.32 615.09 3042.40 594.32 3042.00 577.00 C 3041.60 559.68 3042.38 540.17 3042.00 523.00 C 3041.62 505.83 3042.61 484.37 3042.00 468.00 C 3041.39 451.63 3043.27 428.31 3041.99 414.01 C 3040.71 399.71 3043.30 377.01 3027.00 375.00 Z"/>
</g>
<g fill="None" fill-opacity="0.0" stroke="#EC7D00" stroke-opacity="0.99" stroke-width="0.3"><path d="
M 483.00 799.00 
C 491.33 799.00 499.67 799.00 508.00 799.00
C 551.00 798.17 584.86 783.49 609.75 749.75 C 634.64 716.01 635.26 666.18 633.00 623.00
C 594.00 623.00 555.00 623.00 516.00 623.00
C 515.13 639.55 517.16 662.04 516.00 678.00 C 514.84 693.96 518.37 712.25 506.08 723.08 C 493.78 733.90 475.08 723.41 476.00 707.00 C 476.92 690.59 473.84 670.33 475.00 653.00 C 476.16 635.67 474.13 616.50 475.00 599.00
C 527.67 599.00 580.33 599.00 633.00 599.00
C 632.87 564.00 634.55 518.76 628.93 486.07 C 623.31 453.39 612.60 431.32 587.75 411.25 C 562.89 391.18 532.07 383.65 500.00 382.00 C 467.93 380.35 430.36 385.39 404.25 402.25 C 378.13 419.10 362.86 438.87 356.00 471.00 C 349.14 503.13 351.32 547.40 351.00 582.00 C 350.68 616.60 350.27 663.42 354.00 696.00 C 357.74 728.58 371.13 752.65 394.77 771.23 C 418.41 789.81 452.39 799.00 483.00 799.00
M 509.00 532.00 
C 497.67 532.00 486.33 532.00 475.00 532.00
C 473.49 511.19 476.87 491.66 476.00 471.00 C 475.13 450.34 507.14 449.41 507.93 470.07 C 508.72 490.74 509.41 511.08 509.00 532.00 Z"/>
</g>
<g fill="None" fill-opacity="0.0" stroke="#EC7D00" stroke-opacity="0.99" stroke-width="0.3"><path d="
M 956.00 792.00 
C 955.95 752.14 956.07 709.60 956.00 670.00 C 955.93 630.40 956.13 586.61 956.00 548.00 C 955.87 509.39 957.08 468.62 949.32 433.68 C 941.56 398.74 911.06 385.02 879.00 382.00 C 846.94 378.98 814.25 393.06 797.00 421.00
C 794.46 411.09 797.29 399.31 798.00 389.00
C 756.00 389.00 714.00 389.00 672.00 389.00
C 672.00 523.34 672.00 657.66 672.00 792.00
C 713.33 792.00 754.67 792.00 796.00 792.00
C 796.82 736.58 794.91 679.23 796.00 624.00 C 797.10 568.77 792.13 513.37 800.00 460.00
C 814.08 448.64 830.34 456.42 830.07 473.93 C 829.80 491.44 833.13 507.12 832.00 525.00 C 830.87 542.88 832.52 561.15 832.00 579.00 C 831.48 596.85 832.23 614.17 832.00 632.00 C 831.77 649.83 832.11 668.20 832.00 686.00 C 831.89 703.80 832.06 721.27 832.00 739.00 C 831.94 756.73 832.04 774.28 832.00 792.00
C 873.33 792.00 914.67 792.00 956.00 792.00 Z"/>
</g>
<g fill="None" fill-opacity="0.0" stroke="#EC7D00" stroke-opacity="0.99" stroke-width="0.3"><path d="
M 1124.00 799.00 
C 1132.67 799.00 1141.33 799.00 1150.00 799.00
C 1192.85 797.98 1225.95 782.85 1250.75 749.75 C 1275.54 716.64 1276.36 665.96 1274.00 623.00
C 1234.67 623.00 1195.33 623.00 1156.00 623.00
C 1155.15 639.73 1157.13 661.80 1156.00 678.00 C 1154.87 694.20 1159.99 712.35 1147.22 723.22 C 1134.46 734.10 1116.26 722.24 1116.98 706.02 C 1117.69 689.81 1114.90 670.22 1116.00 653.00 C 1117.10 635.78 1115.17 616.42 1116.00 599.00
C 1168.67 599.00 1221.33 599.00 1274.00 599.00
C 1273.50 567.91 1275.39 525.32 1271.98 496.02 C 1268.56 466.73 1259.49 442.47 1240.77 422.23 C 1222.05 401.99 1199.75 391.65 1172.22 385.78 C 1144.69 379.91 1103.58 379.56 1077.07 388.07 C 1050.57 396.58 1031.13 406.54 1014.92 429.92 C 998.71 453.30 993.29 481.67 992.00 512.00 C 990.71 542.33 992.85 585.97 992.00 617.00 C 991.15 648.03 991.42 687.47 999.02 714.98 C 1006.63 742.49 1019.44 760.73 1042.92 776.08 C 1066.40 791.43 1095.52 799.00 1124.00 799.00
M 1150.00 532.00 
C 1138.67 532.00 1127.33 532.00 1116.00 532.00
C 1115.46 510.84 1116.28 492.05 1117.00 471.00 C 1117.72 449.95 1147.47 449.99 1148.00 471.00 C 1148.53 492.01 1151.70 510.59 1150.00 532.00 Z"/>
</g>
<g fill="None" fill-opacity="0.0" stroke="#E96B00" stroke-opacity="0.96" stroke-width="0.3"><path d="
M 2164.00 484.00 
C 2172.72 464.20 2173.53 436.74 2154.70 423.30 C 2135.87 409.87 2130.50 394.95 2112.00 383.00
C 2124.62 409.75 2109.03 437.83 2104.00 464.00
C 2097.40 464.91 2092.00 461.25 2086.00 460.00
C 2089.63 468.24 2099.16 475.36 2105.25 482.75 C 2111.35 490.13 2120.49 495.89 2126.00 504.00
C 2144.01 498.56 2163.48 497.02 2181.00 491.00
C 2177.52 487.05 2169.49 486.00 2164.00 484.00 Z"/>
</g>
<g fill="None" fill-opacity="0.0" stroke="#000000" stroke-opacity="0.00" stroke-width="0.3"><path d="
M 154.00 493.00 
C 172.93 495.38 189.30 487.40 190.00 468.00 C 190.70 448.60 191.72 429.12 189.98 410.02 C 188.24 390.93 171.01 385.46 154.00 386.00
C 154.00 421.67 154.00 457.33 154.00 493.00 Z"/>
</g>
<g fill="None" fill-opacity="0.0" stroke="#EC7D00" stroke-opacity="0.99" stroke-width="0.3"><path d="
M 1423.00 607.00 
C 1422.95 609.53 1423.82 613.29 1422.00 615.00
C 1420.13 613.76 1421.03 610.65 1422.00 609.00
C 1412.41 536.38 1404.19 462.36 1396.00 389.00
C 1360.34 389.00 1324.66 389.00 1289.00 389.00
C 1305.41 523.49 1324.69 657.26 1340.00 792.00
C 1385.33 792.00 1430.67 792.00 1476.00 792.00
C 1484.19 730.93 1495.32 670.11 1502.00 609.00
C 1509.97 669.54 1517.65 731.18 1526.00 792.00
C 1571.01 792.00 1616.00 792.00 1661.00 792.00
C 1676.26 657.47 1694.40 523.68 1709.00 389.00
C 1695.97 388.94 1681.93 389.08 1669.00 389.00 C 1656.07 388.92 1642.65 389.17 1630.00 389.00 C 1617.35 388.83 1601.99 385.55 1600.93 398.93 C 1599.87 412.30 1597.06 421.37 1595.78 433.78 C 1594.50 446.19 1591.76 455.39 1590.33 467.33 C 1588.90 479.27 1587.35 490.11 1585.93 501.93 C 1584.51 513.75 1582.81 525.27 1581.00 537.00 C 1579.19 548.73 1580.37 561.40 1578.00 573.00 C 1575.63 584.60 1576.95 597.64 1575.00 609.00
C 1567.71 535.56 1558.55 462.60 1552.00 389.00
C 1517.33 389.00 1482.67 389.00 1448.00 389.00
C 1444.88 425.50 1439.03 462.38 1435.78 498.78 C 1432.53 535.17 1423.74 570.17 1423.00 607.00 Z"/>
</g>
<g fill="None" fill-opacity="0.0" stroke="#000000" stroke-opacity="0.00" stroke-width="0.3"><path d="
M 509.00 532.00 
C 509.41 511.08 508.72 490.74 507.93 470.07 C 507.14 449.41 475.13 450.34 476.00 471.00 C 476.87 491.66 473.49 511.19 475.00 532.00
C 486.33 532.00 497.67 532.00 509.00 532.00 Z"/>
</g>
<g fill="None" fill-opacity="0.0" stroke="#000000" stroke-opacity="0.00" stroke-width="0.3"><path d="
M 1150.00 532.00 
C 1151.70 510.59 1148.53 492.01 1148.00 471.00 C 1147.47 449.99 1117.72 449.95 1117.00 471.00 C 1116.28 492.05 1115.46 510.84 1116.00 532.00
C 1127.33 532.00 1138.67 532.00 1150.00 532.00 Z"/>
</g>
<g fill="None" fill-opacity="0.0" stroke="#E96B00" stroke-opacity="0.97" stroke-width="0.3"><path d="
M 2152.00 528.00 
C 2131.51 523.30 2111.55 516.38 2091.00 512.00
C 2088.18 527.16 2082.61 541.86 2079.98 556.98 C 2077.35 572.09 2092.83 576.36 2104.78 584.22 C 2116.72 592.08 2138.95 587.71 2140.22 571.22 C 2141.50 554.74 2152.53 544.71 2152.00 528.00 Z"/>
</g>
<g fill="None" fill-opacity="0.0" stroke="#E96E00" stroke-opacity="0.96" stroke-width="0.3"><path d="
M 2062.00 526.00 
C 2047.53 525.99 2038.65 534.53 2024.07 535.07 C 2009.50 535.61 2003.29 545.27 2001.93 558.93 C 2000.56 572.59 1994.48 581.96 1992.00 595.00
C 2000.07 592.11 2005.13 579.86 2012.30 587.70 C 2019.48 595.53 2023.86 599.32 2031.77 605.23 C 2039.68 611.14 2052.61 610.84 2061.77 607.77 C 2070.94 604.71 2081.37 601.96 2090.93 599.93 C 2100.48 597.90 2109.16 593.06 2119.00 592.00
C 2115.90 586.93 2103.67 588.70 2098.08 583.92 C 2092.50 579.13 2086.25 576.70 2081.75 571.25 C 2077.26 565.79 2072.57 562.41 2067.90 557.10 C 2063.23 551.79 2058.07 548.30 2053.26 542.74 C 2048.44 537.19 2060.98 530.98 2062.00 526.00 Z"/>
</g>
<g fill="None" fill-opacity="0.0" stroke="#EC7D00" stroke-opacity="0.61" stroke-width="0.3"><path d="
M 1422.00 609.00 
C 1421.03 610.65 1420.13 613.76 1422.00 615.00
C 1423.82 613.29 1422.95 609.53 1423.00 607.00
C 1423.04 606.81 1422.02 608.96 1422.00 609.00 Z"/>
</g>
<g fill="None" fill-opacity="0.0" stroke="#000000" stroke-opacity="0.00" stroke-width="0.3"><path d="
M 1804.00 652.00 
C 1804.53 661.96 1814.30 666.62 1820.25 673.75 C 1826.20 680.88 1833.09 685.47 1839.70 692.30 C 1846.30 699.13 1850.64 704.76 1858.30 711.70 C 1865.96 718.65 1868.32 722.65 1877.25 730.75 C 1886.18 738.85 1892.05 725.02 1882.25 718.75 C 1872.45 712.48 1871.15 705.99 1863.25 699.75 C 1855.34 693.52 1851.31 686.89 1844.25 680.75 C 1837.18 674.61 1831.96 667.66 1825.25 661.75 C 1818.54 655.84 1812.81 644.39 1804.00 652.00 Z"/>
</g>
<g fill="None" fill-opacity="0.0" stroke="#000000" stroke-opacity="0.00" stroke-width="0.3"><path d="
M 1792.00 664.00 
C 1784.73 673.46 1797.10 678.43 1802.75 685.25 C 1808.40 692.08 1815.54 697.43 1821.75 704.25 C 1827.97 711.07 1834.23 715.90 1840.30 723.70 C 1846.38 731.50 1853.86 732.32 1859.70 742.30 C 1865.55 752.27 1879.46 745.74 1871.23 736.77 C 1863.00 727.80 1858.96 725.76 1851.92 718.08 C 1844.87 710.41 1839.78 705.85 1832.77 699.23 C 1825.76 692.62 1821.25 685.90 1814.08 679.92 C 1806.92 673.94 1802.28 663.72 1792.00 664.00 Z"/>
</g>
<g fill="None" fill-opacity="0.0" stroke="#ED8300" stroke-opacity="0.34" stroke-width="0.3"><path d="
M 2058.00 665.00 
C 2060.53 665.02 2065.71 667.31 2069.00 666.00
C 2070.21 665.52 2069.46 664.33 2070.00 664.00
C 2066.27 664.35 2062.00 664.65 2058.00 665.00 Z"/>
</g>
<g fill="None" fill-opacity="0.0" stroke="#000000" stroke-opacity="0.00" stroke-width="0.3"><path d="
M 1782.00 679.00 
C 1769.55 676.42 1777.33 694.42 1784.08 696.92 C 1790.84 699.42 1794.66 709.96 1800.75 714.25 C 1806.85 718.53 1811.77 726.45 1817.77 731.23 C 1823.76 736.02 1828.18 743.44 1835.23 747.77 C 1842.28 752.10 1842.81 763.92 1852.99 763.99 C 1863.17 764.06 1857.32 750.56 1850.25 746.75 C 1843.17 742.94 1839.61 734.31 1833.25 729.75 C 1826.88 725.19 1822.37 717.32 1816.25 712.75 C 1810.13 708.18 1805.43 699.60 1799.25 695.75 C 1793.07 691.90 1788.77 680.40 1782.00 679.00 Z"/>
</g>
<g fill="None" fill-opacity="0.0" stroke="#000000" stroke-opacity="0.00" stroke-width="0.3"><path d="
M 1767.00 691.00 
C 1757.13 697.24 1755.80 709.10 1757.01 719.99 C 1758.22 730.88 1766.50 739.47 1768.00 750.00 C 1769.50 760.53 1777.90 769.18 1788.31 770.65 C 1798.71 772.12 1805.65 779.66 1816.99 781.01 C 1828.33 782.36 1839.58 781.81 1848.00 773.00
C 1821.71 745.21 1793.34 718.83 1767.00 691.00 Z"/>
</g>
<g fill="None" fill-opacity="0.0" stroke="#EE7E00" stroke-opacity="0.13" stroke-width="0.3"><path d="
M 2187.00 791.00 
C 2152.52 791.00 2117.42 791.27 2083.00 791.00 C 2048.58 790.73 2014.31 791.74 1980.00 791.00 C 1945.69 790.26 1911.18 792.70 1877.00 791.00 C 1842.82 789.30 1807.94 794.79 1774.00 791.00
C 1796.68 796.27 1823.05 790.31 1847.00 792.00 C 1870.95 793.69 1895.78 791.37 1920.00 792.00 C 1944.22 792.63 1969.71 791.97 1994.00 792.00 C 2018.29 792.03 2042.78 792.58 2067.00 792.00 C 2091.22 791.42 2117.04 793.54 2141.00 792.00 C 2164.96 790.46 2190.28 796.03 2213.00 791.00
C 2205.06 791.72 2195.59 791.00 2187.00 791.00 Z"/>
</g>
<g fill="None" fill-opacity="0.0" stroke="#EB7F00" stroke-opacity="0.13" stroke-width="0.3"><path d="
M 483.00 800.00 
L 508.00 800.00
C 508.00 800.00 508.04 799.00 508.00 799.00
C 499.67 799.00 491.33 799.00 483.00 799.00
C 483.00 799.00 483.00 799.50 483.00 800.00 Z"/>
</g>
<g fill="None" fill-opacity="0.0" stroke="#EB7F00" stroke-opacity="0.12" stroke-width="0.3"><path d="
M 1124.00 800.00 
L 1150.00 800.00
C 1150.00 800.00 1150.04 799.00 1150.00 799.00
C 1141.33 799.00 1132.67 799.00 1124.00 799.00
C 1124.00 799.00 1124.00 799.50 1124.00 800.00 Z"/>
</g>
<g fill="#000000" fill-opacity="0.00" stroke="None">
<path d="
M 0.00 800.00 
L 483.00 800.00
C 483.00 799.50 483.00 799.00 483.00 799.00
C 452.39 799.00 418.41 789.81 394.77 771.23 C 371.13 752.65 357.74 728.58 354.00 696.00 C 350.27 663.42 350.68 616.60 351.00 582.00 C 351.32 547.40 349.14 503.13 356.00 471.00 C 362.86 438.87 378.13 419.10 404.25 402.25 C 430.36 385.39 467.93 380.35 500.00 382.00 C 532.07 383.65 562.89 391.18 587.75 411.25 C 612.60 431.32 623.31 453.39 628.93 486.07 C 634.55 518.76 632.87 564.00 633.00 599.00
C 580.33 599.00 527.67 599.00 475.00 599.00
C 474.13 616.50 476.16 635.67 475.00 653.00 C 473.84 670.33 476.92 690.59 476.00 707.00 C 475.08 723.41 493.78 733.90 506.08 723.08 C 518.37 712.25 514.84 693.96 516.00 678.00 C 517.16 662.04 515.13 639.55 516.00 623.00
C 555.00 623.00 594.00 623.00 633.00 623.00
C 635.26 666.18 634.64 716.01 609.75 749.75 C 584.86 783.49 551.00 798.17 508.00 799.00
C 508.04 799.00 508.00 800.00 508.00 800.00
L 1124.00 800.00
C 1124.00 799.50 1124.00 799.00 1124.00 799.00
C 1095.52 799.00 1066.40 791.43 1042.92 776.08 C 1019.44 760.73 1006.63 742.49 999.02 714.98 C 991.42 687.47 991.15 648.03 992.00 617.00 C 992.85 585.97 990.71 542.33 992.00 512.00 C 993.29 481.67 998.71 453.30 1014.92 429.92 C 1031.13 406.54 1050.57 396.58 1077.07 388.07 C 1103.58 379.56 1144.69 379.91 1172.22 385.78 C 1199.75 391.65 1222.05 401.99 1240.77 422.23 C 1259.49 442.47 1268.56 466.73 1271.98 496.02 C 1275.39 525.32 1273.50 567.91 1274.00 599.00
C 1221.33 599.00 1168.67 599.00 1116.00 599.00
C 1115.17 616.42 1117.10 635.78 1116.00 653.00 C 1114.90 670.22 1117.69 689.81 1116.98 706.02 C 1116.26 722.24 1134.46 734.10 1147.22 723.22 C 1159.99 712.35 1154.87 694.20 1156.00 678.00 C 1157.13 661.80 1155.15 639.73 1156.00 623.00
C 1195.33 623.00 1234.67 623.00 1274.00 623.00
C 1276.36 665.96 1275.54 716.64 1250.75 749.75 C 1225.95 782.85 1192.85 797.98 1150.00 799.00
C 1150.04 799.00 1150.00 800.00 1150.00 800.00
L 2641.00 800.00
C 2612.66 791.79 2586.28 785.45 2564.75 762.25 C 2543.23 739.04 2537.20 711.10 2534.00 678.00 C 2530.80 644.89 2532.32 600.05 2532.00 565.00 C 2531.69 529.95 2532.51 485.36 2532.00 451.00 C 2531.49 416.64 2532.86 380.09 2549.31 353.31 C 2565.75 326.52 2584.00 313.83 2612.74 301.74 C 2641.48 289.66 2681.59 288.00 2713.00 292.00 C 2744.41 296.00 2769.93 305.51 2794.08 325.92 C 2818.23 346.33 2827.44 371.79 2830.99 404.01 C 2834.55 436.23 2834.22 481.74 2834.00 516.00
C 2791.01 516.00 2747.99 516.00 2705.00 516.00
C 2705.80 495.66 2703.94 473.12 2705.00 453.00 C 2706.06 432.88 2703.34 410.80 2703.07 391.93 C 2702.80 373.05 2672.96 367.49 2665.25 384.25 C 2657.53 401.00 2661.00 422.31 2660.00 442.00 C 2659.00 461.69 2660.70 485.64 2660.00 506.00 C 2659.30 526.36 2660.88 548.48 2660.00 569.00 C 2659.12 589.52 2661.61 612.76 2660.00 633.00 C 2658.39 653.24 2662.78 675.23 2661.98 694.02 C 2661.18 712.82 2683.05 727.17 2696.75 712.75 C 2710.45 698.34 2702.38 676.91 2705.00 658.00 C 2707.62 639.09 2703.04 613.51 2705.00 594.00
C 2748.01 594.00 2790.99 594.00 2834.00 594.00
C 2832.99 638.91 2836.94 697.20 2817.75 735.75 C 2798.55 774.29 2761.23 787.89 2723.00 800.00
L 2984.00 800.00
C 2957.34 792.31 2931.64 785.36 2911.75 763.25 C 2891.86 741.14 2879.09 719.86 2877.02 687.98 C 2874.96 656.09 2874.69 614.65 2875.00 581.00 C 2875.31 547.35 2874.31 504.14 2875.00 471.00 C 2875.69 437.86 2873.95 400.09 2884.33 371.33 C 2894.71 342.57 2910.03 327.49 2934.68 311.68 C 2959.33 295.87 2993.27 289.68 3023.00 290.00 C 3052.73 290.32 3086.02 295.54 3110.70 311.30 C 3135.38 327.07 3150.49 342.93 3160.78 371.22 C 3171.07 399.51 3169.84 437.15 3171.00 470.00 C 3172.16 502.85 3169.97 546.45 3171.00 580.00 C 3172.03 613.55 3169.73 654.27 3168.00 686.00 C 3166.27 717.73 3154.63 740.97 3134.75 762.75 C 3114.86 784.52 3088.93 792.22 3062.00 800.00
L 3200.00 800.00
L 3200.00 0.00
L 0.00 0.00
L 0.00 800.00
M 2213.00 791.00 
C 2190.28 796.03 2164.96 790.46 2141.00 792.00 C 2117.04 793.54 2091.22 791.42 2067.00 792.00 C 2042.78 792.58 2018.29 792.03 1994.00 792.00 C 1969.71 791.97 1944.22 792.63 1920.00 792.00 C 1895.78 791.37 1870.95 793.69 1847.00 792.00 C 1823.05 790.31 1796.68 796.27 1774.00 791.00
C 1740.56 783.22 1747.11 748.75 1747.00 719.00 C 1746.89 689.25 1747.04 650.47 1747.00 619.00 C 1746.96 587.53 1747.00 550.93 1747.00 519.00
C 1747.00 456.16 1744.55 392.78 1747.00 330.00
C 1748.10 301.83 1775.03 297.25 1801.00 299.00 C 1826.97 300.75 1860.51 298.04 1888.00 299.00 C 1915.50 299.96 1946.98 298.19 1975.00 299.00 C 2003.02 299.81 2034.11 297.79 2062.00 299.00 C 2089.89 300.21 2121.97 296.59 2149.00 299.00 C 2176.03 301.41 2206.34 290.26 2227.75 307.25 C 2249.16 324.23 2238.04 355.77 2240.00 382.00 C 2241.96 408.23 2239.05 441.44 2240.00 469.00 C 2240.95 496.56 2239.43 528.06 2240.00 556.00 C 2240.57 583.94 2239.44 615.40 2240.00 643.00 C 2240.56 670.60 2239.06 703.66 2240.00 730.00 C 2240.94 756.34 2242.11 784.55 2213.00 791.00
M 248.00 537.00 
C 272.47 545.60 299.12 554.72 306.31 584.69 C 313.49 614.67 310.21 652.90 311.00 686.00 C 311.79 719.10 310.41 758.34 311.00 792.00
C 271.00 792.00 231.00 792.00 191.00 792.00
C 191.08 774.99 190.89 758.01 191.00 741.00 C 191.11 723.99 190.79 707.01 191.00 690.00 C 191.21 672.99 190.55 654.92 191.00 638.00 C 191.45 621.08 190.13 606.10 188.00 590.00 C 185.87 573.90 168.31 570.37 154.00 572.00
C 154.00 645.33 154.00 718.67 154.00 792.00
C 110.67 792.00 67.33 792.00 24.00 792.00
C 24.00 628.00 24.00 464.00 24.00 300.00
C 55.11 300.04 90.30 299.95 121.00 300.00 C 151.70 300.05 186.02 301.93 215.00 304.00 C 243.98 306.07 264.08 313.46 283.25 333.75 C 302.42 354.05 305.44 378.19 309.00 406.00 C 312.56 433.81 310.50 468.08 304.07 495.07 C 297.65 522.06 273.29 531.87 248.00 537.00
M 2492.00 300.00 
C 2492.00 333.33 2492.00 366.67 2492.00 400.00
C 2463.67 400.00 2435.33 400.00 2407.00 400.00
C 2407.00 430.67 2407.00 461.33 2407.00 492.00
C 2433.34 492.00 2459.66 492.00 2486.00 492.00
C 2486.00 523.67 2486.00 555.33 2486.00 587.00
C 2459.67 587.00 2433.33 587.00 2407.00 587.00
C 2407.00 622.00 2407.00 657.00 2407.00 692.00
C 2438.00 692.00 2469.00 692.00 2500.00 692.00
C 2500.01 725.34 2500.00 758.66 2500.00 792.00
C 2425.67 792.00 2351.33 792.00 2277.00 792.00
C 2277.01 628.00 2276.99 464.00 2277.00 300.00
C 2348.66 300.00 2420.34 300.00 2492.00 300.00
M 956.00 792.00 
C 914.67 792.00 873.33 792.00 832.00 792.00
C 832.04 774.28 831.94 756.73 832.00 739.00 C 832.06 721.27 831.89 703.80 832.00 686.00 C 832.11 668.20 831.77 649.83 832.00 632.00 C 832.23 614.17 831.48 596.85 832.00 579.00 C 832.52 561.15 830.87 542.88 832.00 525.00 C 833.13 507.12 829.80 491.44 830.07 473.93 C 830.34 456.42 814.08 448.64 800.00 460.00
C 792.13 513.37 797.10 568.77 796.00 624.00 C 794.91 679.23 796.82 736.58 796.00 792.00
C 754.67 792.00 713.33 792.00 672.00 792.00
C 672.00 657.66 672.00 523.34 672.00 389.00
C 714.00 389.00 756.00 389.00 798.00 389.00
C 797.29 399.31 794.46 411.09 797.00 421.00
C 814.25 393.06 846.94 378.98 879.00 382.00 C 911.06 385.02 941.56 398.74 949.32 433.68 C 957.08 468.62 955.87 509.39 956.00 548.00 C 956.13 586.61 955.93 630.40 956.00 670.00 C 956.07 709.60 955.95 752.14 956.00 792.00
M 1422.00 609.00 
C 1422.02 608.96 1423.04 606.81 1423.00 607.00
C 1423.74 570.17 1432.53 535.17 1435.78 498.78 C 1439.03 462.38 1444.88 425.50 1448.00 389.00
C 1482.67 389.00 1517.33 389.00 1552.00 389.00
C 1558.55 462.60 1567.71 535.56 1575.00 609.00
C 1576.95 597.64 1575.63 584.60 1578.00 573.00 C 1580.37 561.40 1579.19 548.73 1581.00 537.00 C 1582.81 525.27 1584.51 513.75 1585.93 501.93 C 1587.35 490.11 1588.90 479.27 1590.33 467.33 C 1591.76 455.39 1594.50 446.19 1595.78 433.78 C 1597.06 421.37 1599.87 412.30 1600.93 398.93 C 1601.99 385.55 1617.35 388.83 1630.00 389.00 C 1642.65 389.17 1656.07 388.92 1669.00 389.00 C 1681.93 389.08 1695.97 388.94 1709.00 389.00
C 1694.40 523.68 1676.26 657.47 1661.00 792.00
C 1616.00 792.00 1571.01 792.00 1526.00 792.00
C 1517.65 731.18 1509.97 669.54 1502.00 609.00
C 1495.32 670.11 1484.19 730.93 1476.00 792.00
C 1430.67 792.00 1385.33 792.00 1340.00 792.00
C 1324.69 657.26 1305.41 523.49 1289.00 389.00
C 1324.66 389.00 1360.34 389.00 1396.00 389.00
C 1404.19 462.36 1412.41 536.38 1422.00 609.00 Z"/>
</g>
<g fill="#E86A00" fill-opacity="0.99" stroke="None">
<path d="
M 2641.00 800.00 
L 2723.00 800.00
C 2761.23 787.89 2798.55 774.29 2817.75 735.75 C 2836.94 697.20 2832.99 638.91 2834.00 594.00
C 2790.99 594.00 2748.01 594.00 2705.00 594.00
C 2703.04 613.51 2707.62 639.09 2705.00 658.00 C 2702.38 676.91 2710.45 698.34 2696.75 712.75 C 2683.05 727.17 2661.18 712.82 2661.98 694.02 C 2662.78 675.23 2658.39 653.24 2660.00 633.00 C 2661.61 612.76 2659.12 589.52 2660.00 569.00 C 2660.88 548.48 2659.30 526.36 2660.00 506.00 C 2660.70 485.64 2659.00 461.69 2660.00 442.00 C 2661.00 422.31 2657.53 401.00 2665.25 384.25 C 2672.96 367.49 2702.80 373.05 2703.07 391.93 C 2703.34 410.80 2706.06 432.88 2705.00 453.00 C 2703.94 473.12 2705.80 495.66 2705.00 516.00
C 2747.99 516.00 2791.01 516.00 2834.00 516.00
C 2834.22 481.74 2834.55 436.23 2830.99 404.01 C 2827.44 371.79 2818.23 346.33 2794.08 325.92 C 2769.93 305.51 2744.41 296.00 2713.00 292.00 C 2681.59 288.00 2641.48 289.66 2612.74 301.74 C 2584.00 313.83 2565.75 326.52 2549.31 353.31 C 2532.86 380.09 2531.49 416.64 2532.00 451.00 C 2532.51 485.36 2531.69 529.95 2532.00 565.00 C 2532.32 600.05 2530.80 644.89 2534.00 678.00 C 2537.20 711.10 2543.23 739.04 2564.75 762.25 C 2586.28 785.45 2612.66 791.79 2641.00 800.00 Z"/>
</g>
<g fill="#E86A00" fill-opacity="0.99" stroke="None">
<path d="
M 2984.00 800.00 
L 3062.00 800.00
C 3088.93 792.22 3114.86 784.52 3134.75 762.75 C 3154.63 740.97 3166.27 717.73 3168.00 686.00 C 3169.73 654.27 3172.03 613.55 3171.00 580.00 C 3169.97 546.45 3172.16 502.85 3171.00 470.00 C 3169.84 437.15 3171.07 399.51 3160.78 371.22 C 3150.49 342.93 3135.38 327.07 3110.70 311.30 C 3086.02 295.54 3052.73 290.32 3023.00 290.00 C 2993.27 289.68 2959.33 295.87 2934.68 311.68 C 2910.03 327.49 2894.71 342.57 2884.33 371.33 C 2873.95 400.09 2875.69 437.86 2875.00 471.00 C 2874.31 504.14 2875.31 547.35 2875.00 581.00 C 2874.69 614.65 2874.96 656.09 2877.02 687.98 C 2879.09 719.86 2891.86 741.14 2911.75 763.25 C 2931.64 785.36 2957.34 792.31 2984.00 800.00
M 3027.00 375.00 
C 3043.30 377.01 3040.71 399.71 3041.99 414.01 C 3043.27 428.31 3041.39 451.63 3042.00 468.00 C 3042.61 484.37 3041.62 505.83 3042.00 523.00 C 3042.38 540.17 3041.60 559.68 3042.00 577.00 C 3042.40 594.32 3041.32 615.09 3042.00 632.00 C 3042.68 648.91 3040.90 669.64 3041.00 685.00 C 3041.10 700.36 3037.53 720.85 3019.33 717.67 C 3001.13 714.49 3004.88 694.83 3004.00 679.00 C 3003.12 663.17 3004.40 642.07 3004.00 625.00 C 3003.60 607.93 3004.21 587.53 3004.00 570.00 C 3003.80 552.47 3004.14 533.58 3004.00 516.00 C 3003.86 498.42 3004.17 478.23 3004.00 461.00 C 3003.83 443.77 3004.32 423.23 3004.00 407.00 C 3003.68 390.77 3008.14 372.68 3027.00 375.00 Z"/>
</g>
<g fill="#E96D00" fill-opacity="0.98" stroke="None">
<path d="
M 1747.00 330.00 
C 1747.16 332.04 1748.00 335.28 1748.00 338.00
C 1753.52 339.53 1754.24 346.03 1760.00 346.00
C 1760.50 355.16 1774.79 356.48 1772.00 364.00
C 1774.67 364.60 1777.29 365.41 1780.00 366.00
C 1776.46 373.69 1792.11 375.14 1791.00 383.00
C 1792.56 379.37 1794.92 382.71 1797.00 384.00
C 1793.76 385.62 1797.68 385.68 1796.00 388.00
C 1799.14 388.53 1801.29 392.02 1805.00 391.00
C 1800.83 392.76 1805.65 395.73 1808.00 394.00
C 1806.53 398.33 1812.07 404.12 1817.25 406.75 C 1822.43 409.38 1822.59 417.62 1829.00 415.00
C 1829.11 419.53 1833.63 421.39 1834.00 426.00
C 1836.55 420.29 1835.52 427.51 1840.00 427.00
C 1836.89 428.67 1839.53 430.35 1842.00 429.00
C 1838.71 432.32 1844.23 432.91 1844.00 436.00
C 1844.88 432.75 1852.29 439.41 1849.00 441.00
C 1854.13 440.27 1856.59 447.90 1860.04 449.96 C 1863.48 452.03 1861.97 458.17 1867.00 455.00
C 1865.09 457.99 1869.91 462.22 1873.00 460.00
C 1872.63 461.54 1874.43 462.40 1874.00 464.00
C 1888.52 374.57 1966.17 304.58 2059.02 308.98 C 2151.88 313.38 2226.63 387.90 2230.00 481.00 C 2233.37 574.10 2161.81 655.38 2070.00 664.00
C 2069.46 664.33 2070.21 665.52 2069.00 666.00
C 2069.17 670.88 2080.78 674.08 2075.00 676.00
C 2078.64 676.79 2081.90 678.96 2085.00 681.00
C 2081.12 687.64 2093.54 686.46 2091.00 692.00
C 2093.97 689.49 2094.28 691.46 2095.00 695.00
C 2100.14 693.20 2099.87 704.64 2106.00 703.00
C 2105.69 705.22 2106.86 710.40 2110.00 707.00
C 2108.62 711.63 2112.22 710.46 2112.00 714.00
C 2116.62 710.72 2122.20 722.63 2127.00 723.00
C 2122.72 726.35 2130.64 728.24 2132.25 729.80 C 2133.85 731.36 2137.62 739.61 2140.00 736.00
C 2146.07 747.12 2153.40 756.02 2164.00 761.00
C 2160.87 764.70 2165.04 768.41 2169.00 767.00
C 2168.93 771.05 2173.03 772.16 2174.59 774.75 C 2176.15 777.34 2178.91 781.96 2182.00 779.00
C 2182.05 781.91 2185.54 787.84 2189.00 787.00
C 2190.20 790.66 2186.67 788.14 2187.00 791.00
C 2195.59 791.00 2205.06 791.72 2213.00 791.00
C 2242.11 784.55 2240.94 756.34 2240.00 730.00 C 2239.06 703.66 2240.56 670.60 2240.00 643.00 C 2239.44 615.40 2240.57 583.94 2240.00 556.00 C 2239.43 528.06 2240.95 496.56 2240.00 469.00 C 2239.05 441.44 2241.96 408.23 2240.00 382.00 C 2238.04 355.77 2249.16 324.23 2227.75 307.25 C 2206.34 290.26 2176.03 301.41 2149.00 299.00 C 2121.97 296.59 2089.89 300.21 2062.00 299.00 C 2034.11 297.79 2003.02 299.81 1975.00 299.00 C 1946.98 298.19 1915.50 299.96 1888.00 299.00 C 1860.51 298.04 1826.97 300.75 1801.00 299.00 C 1775.03 297.25 1748.10 301.83 1747.00 330.00 Z"/>
</g>
<g fill="#EC7D00" fill-opacity="0.99" stroke="None">
<path d="
M 248.00 537.00 
C 273.29 531.87 297.65 522.06 304.07 495.07 C 310.50 468.08 312.56 433.81 309.00 406.00 C 305.44 378.19 302.42 354.05 283.25 333.75 C 264.08 313.46 243.98 306.07 215.00 304.00 C 186.02 301.93 151.70 300.05 121.00 300.00 C 90.30 299.95 55.11 300.04 24.00 300.00
C 24.00 464.00 24.00 628.00 24.00 792.00
C 67.33 792.00 110.67 792.00 154.00 792.00
C 154.00 718.67 154.00 645.33 154.00 572.00
C 168.31 570.37 185.87 573.90 188.00 590.00 C 190.13 606.10 191.45 621.08 191.00 638.00 C 190.55 654.92 191.21 672.99 191.00 690.00 C 190.79 707.01 191.11 723.99 191.00 741.00 C 190.89 758.01 191.08 774.99 191.00 792.00
C 231.00 792.00 271.00 792.00 311.00 792.00
C 310.41 758.34 311.79 719.10 311.00 686.00 C 310.21 652.90 313.49 614.67 306.31 584.69 C 299.12 554.72 272.47 545.60 248.00 537.00
M 154.00 493.00 
C 154.00 457.33 154.00 421.67 154.00 386.00
C 171.01 385.46 188.24 390.93 189.98 410.02 C 191.72 429.12 190.70 448.60 190.00 468.00 C 189.30 487.40 172.93 495.38 154.00 493.00 Z"/>
</g>
<g fill="#E86A00" fill-opacity="0.99" stroke="None">
<path d="
M 2492.00 300.00 
C 2420.34 300.00 2348.66 300.00 2277.00 300.00
C 2276.99 464.00 2277.01 628.00 2277.00 792.00
C 2351.33 792.00 2425.67 792.00 2500.00 792.00
C 2500.00 758.66 2500.01 725.34 2500.00 692.00
C 2469.00 692.00 2438.00 692.00 2407.00 692.00
C 2407.00 657.00 2407.00 622.00 2407.00 587.00
C 2433.33 587.00 2459.67 587.00 2486.00 587.00
C 2486.00 555.33 2486.00 523.67 2486.00 492.00
C 2459.66 492.00 2433.34 492.00 2407.00 492.00
C 2407.00 461.33 2407.00 430.67 2407.00 400.00
C 2435.33 400.00 2463.67 400.00 2492.00 400.00
C 2492.00 366.67 2492.00 333.33 2492.00 300.00 Z"/>
</g>
<g fill="#000000" fill-opacity="0.00" stroke="None">
<path d="
M 1874.00 464.00 
C 1870.85 483.38 1872.02 507.47 1876.98 526.02 C 1881.93 544.58 1878.42 563.67 1864.92 575.92 C 1851.42 588.17 1843.51 597.44 1831.23 610.23 C 1818.95 623.03 1824.07 648.10 1835.75 660.25 C 1847.43 672.40 1858.78 680.62 1869.75 694.25 C 1880.72 707.88 1899.34 718.16 1916.67 712.67 C 1934.01 707.18 1940.86 695.26 1953.75 682.75 C 1966.64 670.24 1978.29 656.11 1998.00 659.00 C 2017.71 661.89 2037.73 666.78 2058.00 665.00
C 2062.00 664.65 2066.27 664.35 2070.00 664.00
C 2161.81 655.38 2233.37 574.10 2230.00 481.00 C 2226.63 387.90 2151.88 313.38 2059.02 308.98 C 1966.17 304.58 1888.52 374.57 1874.00 464.00
M 2018.00 469.00 
C 2016.30 463.34 2015.30 457.48 2013.00 452.00
C 1999.27 454.30 1986.00 458.49 1972.00 460.00
C 1986.60 475.84 2000.22 490.87 2016.00 504.00
C 2013.09 512.88 2002.51 518.94 1996.25 526.25 C 1989.99 533.55 1981.44 539.26 1976.00 548.00
C 1966.21 543.36 1958.85 533.42 1950.75 525.25 C 1942.65 517.08 1932.68 509.90 1929.23 497.77 C 1925.78 485.64 1933.69 470.33 1936.00 458.00 C 1938.31 445.66 1943.97 431.93 1947.00 420.00
C 1949.91 435.07 1958.24 450.76 1972.00 459.00
C 1965.97 453.17 1962.94 448.47 1957.70 442.30 C 1952.46 436.12 1950.45 426.41 1951.00 418.00 C 1951.55 409.59 1954.28 401.15 1963.67 399.67 C 1973.07 398.20 1977.21 393.54 1987.22 392.22 C 1997.24 390.91 1992.23 378.83 1991.00 370.00
C 1999.05 375.33 2005.27 382.08 2011.90 389.10 C 2018.53 396.12 2025.67 401.67 2031.90 409.10 C 2038.14 416.53 2029.90 430.00 2028.02 439.02 C 2026.15 448.05 2023.75 462.60 2018.00 469.00
M 2040.00 380.00 
C 2049.81 377.96 2061.27 376.87 2071.01 375.01 C 2080.74 373.14 2091.20 369.36 2100.23 373.77 C 2109.25 378.19 2112.48 387.25 2113.93 396.07 C 2115.37 404.90 2114.67 420.40 2111.07 428.07 C 2107.47 435.75 2090.17 434.03 2083.00 436.00 C 2075.83 437.97 2058.91 445.36 2056.01 436.99 C 2053.11 428.62 2050.78 417.96 2048.01 408.99 C 2045.24 400.03 2041.99 389.36 2040.00 380.00
M 2164.00 484.00 
C 2169.49 486.00 2177.52 487.05 2181.00 491.00
C 2163.48 497.02 2144.01 498.56 2126.00 504.00
C 2120.49 495.89 2111.35 490.13 2105.25 482.75 C 2099.16 475.36 2089.63 468.24 2086.00 460.00
C 2092.00 461.25 2097.40 464.91 2104.00 464.00
C 2109.03 437.83 2124.62 409.75 2112.00 383.00
C 2130.50 394.95 2135.87 409.87 2154.70 423.30 C 2173.53 436.74 2172.72 464.20 2164.00 484.00
M 2152.00 528.00 
C 2152.53 544.71 2141.50 554.74 2140.22 571.22 C 2138.95 587.71 2116.72 592.08 2104.78 584.22 C 2092.83 576.36 2077.35 572.09 2079.98 556.98 C 2082.61 541.86 2088.18 527.16 2091.00 512.00
C 2111.55 516.38 2131.51 523.30 2152.00 528.00
M 2062.00 526.00 
C 2060.98 530.98 2048.44 537.19 2053.26 542.74 C 2058.07 548.30 2063.23 551.79 2067.90 557.10 C 2072.57 562.41 2077.26 565.79 2081.75 571.25 C 2086.25 576.70 2092.50 579.13 2098.08 583.92 C 2103.67 588.70 2115.90 586.93 2119.00 592.00
C 2109.16 593.06 2100.48 597.90 2090.93 599.93 C 2081.37 601.96 2070.94 604.71 2061.77 607.77 C 2052.61 610.84 2039.68 611.14 2031.77 605.23 C 2023.86 599.32 2019.48 595.53 2012.30 587.70 C 2005.13 579.86 2000.07 592.11 1992.00 595.00
C 1994.48 581.96 2000.56 572.59 2001.93 558.93 C 2003.29 545.27 2009.50 535.61 2024.07 535.07 C 2038.65 534.53 2047.53 525.99 2062.00 526.00 Z"/>
</g>
<g fill="#EC7B00" fill-opacity="0.87" stroke="None">
<path d="
M 1747.00 519.00 
C 1749.82 489.82 1747.49 459.04 1748.00 429.00 C 1748.51 398.96 1748.00 368.11 1748.00 338.00
C 1748.00 335.28 1747.16 332.04 1747.00 330.00
C 1744.55 392.78 1747.00 456.16 1747.00 519.00 Z"/>
</g>
<g fill="#EC7D00" fill-opacity="0.98" stroke="None">
<path d="
M 1747.00 519.00 
C 1747.00 550.93 1746.96 587.53 1747.00 619.00 C 1747.04 650.47 1746.89 689.25 1747.00 719.00 C 1747.11 748.75 1740.56 783.22 1774.00 791.00
C 1807.94 794.79 1842.82 789.30 1877.00 791.00 C 1911.18 792.70 1945.69 790.26 1980.00 791.00 C 2014.31 791.74 2048.58 790.73 2083.00 791.00 C 2117.42 791.27 2152.52 791.00 2187.00 791.00
C 2186.67 788.14 2190.20 790.66 2189.00 787.00
C 2185.54 787.84 2182.05 781.91 2182.00 779.00
C 2178.91 781.96 2176.15 777.34 2174.59 774.75 C 2173.03 772.16 2168.93 771.05 2169.00 767.00
C 2165.04 768.41 2160.87 764.70 2164.00 761.00
C 2153.40 756.02 2146.07 747.12 2140.00 736.00
C 2137.62 739.61 2133.85 731.36 2132.25 729.80 C 2130.64 728.24 2122.72 726.35 2127.00 723.00
C 2122.20 722.63 2116.62 710.72 2112.00 714.00
C 2112.22 710.46 2108.62 711.63 2110.00 707.00
C 2106.86 710.40 2105.69 705.22 2106.00 703.00
C 2099.87 704.64 2100.14 693.20 2095.00 695.00
C 2094.28 691.46 2093.97 689.49 2091.00 692.00
C 2093.54 686.46 2081.12 687.64 2085.00 681.00
C 2081.90 678.96 2078.64 676.79 2075.00 676.00
C 2080.78 674.08 2069.17 670.88 2069.00 666.00
C 2065.71 667.31 2060.53 665.02 2058.00 665.00
C 2037.73 666.78 2017.71 661.89 1998.00 659.00 C 1978.29 656.11 1966.64 670.24 1953.75 682.75 C 1940.86 695.26 1934.01 707.18 1916.67 712.67 C 1899.34 718.16 1880.72 707.88 1869.75 694.25 C 1858.78 680.62 1847.43 672.40 1835.75 660.25 C 1824.07 648.10 1818.95 623.03 1831.23 610.23 C 1843.51 597.44 1851.42 588.17 1864.92 575.92 C 1878.42 563.67 1881.93 544.58 1876.98 526.02 C 1872.02 507.47 1870.85 483.38 1874.00 464.00
C 1874.43 462.40 1872.63 461.54 1873.00 460.00
C 1869.91 462.22 1865.09 457.99 1867.00 455.00
C 1861.97 458.17 1863.48 452.03 1860.04 449.96 C 1856.59 447.90 1854.13 440.27 1849.00 441.00
C 1852.29 439.41 1844.88 432.75 1844.00 436.00
C 1844.23 432.91 1838.71 432.32 1842.00 429.00
C 1839.53 430.35 1836.89 428.67 1840.00 427.00
C 1835.52 427.51 1836.55 420.29 1834.00 426.00
C 1833.63 421.39 1829.11 419.53 1829.00 415.00
C 1822.59 417.62 1822.43 409.38 1817.25 406.75 C 1812.07 404.12 1806.53 398.33 1808.00 394.00
C 1805.65 395.73 1800.83 392.76 1805.00 391.00
C 1801.29 392.02 1799.14 388.53 1796.00 388.00
C 1797.68 385.68 1793.76 385.62 1797.00 384.00
C 1794.92 382.71 1792.56 379.37 1791.00 383.00
C 1792.11 375.14 1776.46 373.69 1780.00 366.00
C 1777.29 365.41 1774.67 364.60 1772.00 364.00
C 1774.79 356.48 1760.50 355.16 1760.00 346.00
C 1754.24 346.03 1753.52 339.53 1748.00 338.00
C 1748.00 368.11 1748.51 398.96 1748.00 429.00 C 1747.49 459.04 1749.82 489.82 1747.00 519.00
M 1804.00 652.00 
C 1812.81 644.39 1818.54 655.84 1825.25 661.75 C 1831.96 667.66 1837.18 674.61 1844.25 680.75 C 1851.31 686.89 1855.34 693.52 1863.25 699.75 C 1871.15 705.99 1872.45 712.48 1882.25 718.75 C 1892.05 725.02 1886.18 738.85 1877.25 730.75 C 1868.32 722.65 1865.96 718.65 1858.30 711.70 C 1850.64 704.76 1846.30 699.13 1839.70 692.30 C 1833.09 685.47 1826.20 680.88 1820.25 673.75 C 1814.30 666.62 1804.53 661.96 1804.00 652.00
M 1792.00 664.00 
C 1802.28 663.72 1806.92 673.94 1814.08 679.92 C 1821.25 685.90 1825.76 692.62 1832.77 699.23 C 1839.78 705.85 1844.87 710.41 1851.92 718.08 C 1858.96 725.76 1863.00 727.80 1871.23 736.77 C 1879.46 745.74 1865.55 752.27 1859.70 742.30 C 1853.86 732.32 1846.38 731.50 1840.30 723.70 C 1834.23 715.90 1827.97 711.07 1821.75 704.25 C 1815.54 697.43 1808.40 692.08 1802.75 685.25 C 1797.10 678.43 1784.73 673.46 1792.00 664.00
M 1782.00 679.00 
C 1788.77 680.40 1793.07 691.90 1799.25 695.75 C 1805.43 699.60 1810.13 708.18 1816.25 712.75 C 1822.37 717.32 1826.88 725.19 1833.25 729.75 C 1839.61 734.31 1843.17 742.94 1850.25 746.75 C 1857.32 750.56 1863.17 764.06 1852.99 763.99 C 1842.81 763.92 1842.28 752.10 1835.23 747.77 C 1828.18 743.44 1823.76 736.02 1817.77 731.23 C 1811.77 726.45 1806.85 718.53 1800.75 714.25 C 1794.66 709.96 1790.84 699.42 1784.08 696.92 C 1777.33 694.42 1769.55 676.42 1782.00 679.00
M 1767.00 691.00 
C 1793.34 718.83 1821.71 745.21 1848.00 773.00
C 1839.58 781.81 1828.33 782.36 1816.99 781.01 C 1805.65 779.66 1798.71 772.12 1788.31 770.65 C 1777.90 769.18 1769.50 760.53 1768.00 750.00 C 1766.50 739.47 1758.22 730.88 1757.01 719.99 C 1755.80 709.10 1757.13 697.24 1767.00 691.00 Z"/>
</g>
<g fill="#E96C00" fill-opacity="0.96" stroke="None">
<path d="
M 2018.00 469.00 
C 2023.75 462.60 2026.15 448.05 2028.02 439.02 C 2029.90 430.00 2038.14 416.53 2031.90 409.10 C 2025.67 401.67 2018.53 396.12 2011.90 389.10 C 2005.27 382.08 1999.05 375.33 1991.00 370.00
C 1992.23 378.83 1997.24 390.91 1987.22 392.22 C 1977.21 393.54 1973.07 398.20 1963.67 399.67 C 1954.28 401.15 1951.55 409.59 1951.00 418.00 C 1950.45 426.41 1952.46 436.12 1957.70 442.30 C 1962.94 448.47 1965.97 453.17 1972.00 459.00
C 1958.24 450.76 1949.91 435.07 1947.00 420.00
C 1943.97 431.93 1938.31 445.66 1936.00 458.00 C 1933.69 470.33 1925.78 485.64 1929.23 497.77 C 1932.68 509.90 1942.65 517.08 1950.75 525.25 C 1958.85 533.42 1966.21 543.36 1976.00 548.00
C 1981.44 539.26 1989.99 533.55 1996.25 526.25 C 2002.51 518.94 2013.09 512.88 2016.00 504.00
C 2000.22 490.87 1986.60 475.84 1972.00 460.00
C 1986.00 458.49 1999.27 454.30 2013.00 452.00
C 2015.30 457.48 2016.30 463.34 2018.00 469.00 Z"/>
</g>
<g fill="#E96B00" fill-opacity="0.97" stroke="None">
<path d="
M 2040.00 380.00 
C 2041.99 389.36 2045.24 400.03 2048.01 408.99 C 2050.78 417.96 2053.11 428.62 2056.01 436.99 C 2058.91 445.36 2075.83 437.97 2083.00 436.00 C 2090.17 434.03 2107.47 435.75 2111.07 428.07 C 2114.67 420.40 2115.37 404.90 2113.93 396.07 C 2112.48 387.25 2109.25 378.19 2100.23 373.77 C 2091.20 369.36 2080.74 373.14 2071.01 375.01 C 2061.27 376.87 2049.81 377.96 2040.00 380.00 Z"/>
</g>
<g fill="#000000" fill-opacity="0.00" stroke="None">
<path d="
M 3027.00 375.00 
C 3008.14 372.68 3003.68 390.77 3004.00 407.00 C 3004.32 423.23 3003.83 443.77 3004.00 461.00 C 3004.17 478.23 3003.86 498.42 3004.00 516.00 C 3004.14 533.58 3003.80 552.47 3004.00 570.00 C 3004.21 587.53 3003.60 607.93 3004.00 625.00 C 3004.40 642.07 3003.12 663.17 3004.00 679.00 C 3004.88 694.83 3001.13 714.49 3019.33 717.67 C 3037.53 720.85 3041.10 700.36 3041.00 685.00 C 3040.90 669.64 3042.68 648.91 3042.00 632.00 C 3041.32 615.09 3042.40 594.32 3042.00 577.00 C 3041.60 559.68 3042.38 540.17 3042.00 523.00 C 3041.62 505.83 3042.61 484.37 3042.00 468.00 C 3041.39 451.63 3043.27 428.31 3041.99 414.01 C 3040.71 399.71 3043.30 377.01 3027.00 375.00 Z"/>
</g>
<g fill="#EC7D00" fill-opacity="0.99" stroke="None">
<path d="
M 483.00 799.00 
C 491.33 799.00 499.67 799.00 508.00 799.00
C 551.00 798.17 584.86 783.49 609.75 749.75 C 634.64 716.01 635.26 666.18 633.00 623.00
C 594.00 623.00 555.00 623.00 516.00 623.00
C 515.13 639.55 517.16 662.04 516.00 678.00 C 514.84 693.96 518.37 712.25 506.08 723.08 C 493.78 733.90 475.08 723.41 476.00 707.00 C 476.92 690.59 473.84 670.33 475.00 653.00 C 476.16 635.67 474.13 616.50 475.00 599.00
C 527.67 599.00 580.33 599.00 633.00 599.00
C 632.87 564.00 634.55 518.76 628.93 486.07 C 623.31 453.39 612.60 431.32 587.75 411.25 C 562.89 391.18 532.07 383.65 500.00 382.00 C 467.93 380.35 430.36 385.39 404.25 402.25 C 378.13 419.10 362.86 438.87 356.00 471.00 C 349.14 503.13 351.32 547.40 351.00 582.00 C 350.68 616.60 350.27 663.42 354.00 696.00 C 357.74 728.58 371.13 752.65 394.77 771.23 C 418.41 789.81 452.39 799.00 483.00 799.00
M 509.00 532.00 
C 497.67 532.00 486.33 532.00 475.00 532.00
C 473.49 511.19 476.87 491.66 476.00 471.00 C 475.13 450.34 507.14 449.41 507.93 470.07 C 508.72 490.74 509.41 511.08 509.00 532.00 Z"/>
</g>
<g fill="#EC7D00" fill-opacity="0.99" stroke="None">
<path d="
M 956.00 792.00 
C 955.95 752.14 956.07 709.60 956.00 670.00 C 955.93 630.40 956.13 586.61 956.00 548.00 C 955.87 509.39 957.08 468.62 949.32 433.68 C 941.56 398.74 911.06 385.02 879.00 382.00 C 846.94 378.98 814.25 393.06 797.00 421.00
C 794.46 411.09 797.29 399.31 798.00 389.00
C 756.00 389.00 714.00 389.00 672.00 389.00
C 672.00 523.34 672.00 657.66 672.00 792.00
C 713.33 792.00 754.67 792.00 796.00 792.00
C 796.82 736.58 794.91 679.23 796.00 624.00 C 797.10 568.77 792.13 513.37 800.00 460.00
C 814.08 448.64 830.34 456.42 830.07 473.93 C 829.80 491.44 833.13 507.12 832.00 525.00 C 830.87 542.88 832.52 561.15 832.00 579.00 C 831.48 596.85 832.23 614.17 832.00 632.00 C 831.77 649.83 832.11 668.20 832.00 686.00 C 831.89 703.80 832.06 721.27 832.00 739.00 C 831.94 756.73 832.04 774.28 832.00 792.00
C 873.33 792.00 914.67 792.00 956.00 792.00 Z"/>
</g>
<g fill="#EC7D00" fill-opacity="0.99" stroke="None">
<path d="
M 1124.00 799.00 
C 1132.67 799.00 1141.33 799.00 1150.00 799.00
C 1192.85 797.98 1225.95 782.85 1250.75 749.75 C 1275.54 716.64 1276.36 665.96 1274.00 623.00
C 1234.67 623.00 1195.33 623.00 1156.00 623.00
C 1155.15 639.73 1157.13 661.80 1156.00 678.00 C 1154.87 694.20 1159.99 712.35 1147.22 723.22 C 1134.46 734.10 1116.26 722.24 1116.98 706.02 C 1117.69 689.81 1114.90 670.22 1116.00 653.00 C 1117.10 635.78 1115.17 616.42 1116.00 599.00
C 1168.67 599.00 1221.33 599.00 1274.00 599.00
C 1273.50 567.91 1275.39 525.32 1271.98 496.02 C 1268.56 466.73 1259.49 442.47 1240.77 422.23 C 1222.05 401.99 1199.75 391.65 1172.22 385.78 C 1144.69 379.91 1103.58 379.56 1077.07 388.07 C 1050.57 396.58 1031.13 406.54 1014.92 429.92 C 998.71 453.30 993.29 481.67 992.00 512.00 C 990.71 542.33 992.85 585.97 992.00 617.00 C 991.15 648.03 991.42 687.47 999.02 714.98 C 1006.63 742.49 1019.44 760.73 1042.92 776.08 C 1066.40 791.43 1095.52 799.00 1124.00 799.00
M 1150.00 532.00 
C 1138.67 532.00 1127.33 532.00 1116.00 532.00
C 1115.46 510.84 1116.28 492.05 1117.00 471.00 C 1117.72 449.95 1147.47 449.99 1148.00 471.00 C 1148.53 492.01 1151.70 510.59 1150.00 532.00 Z"/>
</g>
<g fill="#E96B00" fill-opacity="0.96" stroke="None">
<path d="
M 2164.00 484.00 
C 2172.72 464.20 2173.53 436.74 2154.70 423.30 C 2135.87 409.87 2130.50 394.95 2112.00 383.00
C 2124.62 409.75 2109.03 437.83 2104.00 464.00
C 2097.40 464.91 2092.00 461.25 2086.00 460.00
C 2089.63 468.24 2099.16 475.36 2105.25 482.75 C 2111.35 490.13 2120.49 495.89 2126.00 504.00
C 2144.01 498.56 2163.48 497.02 2181.00 491.00
C 2177.52 487.05 2169.49 486.00 2164.00 484.00 Z"/>
</g>
<g fill="#000000" fill-opacity="0.00" stroke="None">
<path d="
M 154.00 493.00 
C 172.93 495.38 189.30 487.40 190.00 468.00 C 190.70 448.60 191.72 429.12 189.98 410.02 C 188.24 390.93 171.01 385.46 154.00 386.00
C 154.00 421.67 154.00 457.33 154.00 493.00 Z"/>
</g>
<g fill="#EC7D00" fill-opacity="0.99" stroke="None">
<path d="
M 1423.00 607.00 
C 1422.95 609.53 1423.82 613.29 1422.00 615.00
C 1420.13 613.76 1421.03 610.65 1422.00 609.00
C 1412.41 536.38 1404.19 462.36 1396.00 389.00
C 1360.34 389.00 1324.66 389.00 1289.00 389.00
C 1305.41 523.49 1324.69 657.26 1340.00 792.00
C 1385.33 792.00 1430.67 792.00 1476.00 792.00
C 1484.19 730.93 1495.32 670.11 1502.00 609.00
C 1509.97 669.54 1517.65 731.18 1526.00 792.00
C 1571.01 792.00 1616.00 792.00 1661.00 792.00
C 1676.26 657.47 1694.40 523.68 1709.00 389.00
C 1695.97 388.94 1681.93 389.08 1669.00 389.00 C 1656.07 388.92 1642.65 389.17 1630.00 389.00 C 1617.35 388.83 1601.99 385.55 1600.93 398.93 C 1599.87 412.30 1597.06 421.37 1595.78 433.78 C 1594.50 446.19 1591.76 455.39 1590.33 467.33 C 1588.90 479.27 1587.35 490.11 1585.93 501.93 C 1584.51 513.75 1582.81 525.27 1581.00 537.00 C 1579.19 548.73 1580.37 561.40 1578.00 573.00 C 1575.63 584.60 1576.95 597.64 1575.00 609.00
C 1567.71 535.56 1558.55 462.60 1552.00 389.00
C 1517.33 389.00 1482.67 389.00 1448.00 389.00
C 1444.88 425.50 1439.03 462.38 1435.78 498.78 C 1432.53 535.17 1423.74 570.17 1423.00 607.00 Z"/>
</g>
<g fill="#000000" fill-opacity="0.00" stroke="None">
<path d="
M 509.00 532.00 
C 509.41 511.08 508.72 490.74 507.93 470.07 C 507.14 449.41 475.13 450.34 476.00 471.00 C 476.87 491.66 473.49 511.19 475.00 532.00
C 486.33 532.00 497.67 532.00 509.00 532.00 Z"/>
</g>
<g fill="#000000" fill-opacity="0.00" stroke="None">
<path d="
M 1150.00 532.00 
C 1151.70 510.59 1148.53 492.01 1148.00 471.00 C 1147.47 449.99 1117.72 449.95 1117.00 471.00 C 1116.28 492.05 1115.46 510.84 1116.00 532.00
C 1127.33 532.00 1138.67 532.00 1150.00 532.00 Z"/>
</g>
<g fill="#E96B00" fill-opacity="0.97" stroke="None">
<path d="
M 2152.00 528.00 
C 2131.51 523.30 2111.55 516.38 2091.00 512.00
C 2088.18 527.16 2082.61 541.86 2079.98 556.98 C 2077.35 572.09 2092.83 576.36 2104.78 584.22 C 2116.72 592.08 2138.95 587.71 2140.22 571.22 C 2141.50 554.74 2152.53 544.71 2152.00 528.00 Z"/>
</g>
<g fill="#E96E00" fill-opacity="0.96" stroke="None">
<path d="
M 2062.00 526.00 
C 2047.53 525.99 2038.65 534.53 2024.07 535.07 C 2009.50 535.61 2003.29 545.27 2001.93 558.93 C 2000.56 572.59 1994.48 581.96 1992.00 595.00
C 2000.07 592.11 2005.13 579.86 2012.30 587.70 C 2019.48 595.53 2023.86 599.32 2031.77 605.23 C 2039.68 611.14 2052.61 610.84 2061.77 607.77 C 2070.94 604.71 2081.37 601.96 2090.93 599.93 C 2100.48 597.90 2109.16 593.06 2119.00 592.00
C 2115.90 586.93 2103.67 588.70 2098.08 583.92 C 2092.50 579.13 2086.25 576.70 2081.75 571.25 C 2077.26 565.79 2072.57 562.41 2067.90 557.10 C 2063.23 551.79 2058.07 548.30 2053.26 542.74 C 2048.44 537.19 2060.98 530.98 2062.00 526.00 Z"/>
</g>
<g fill="#EC7D00" fill-opacity="0.61" stroke="None">
<path d="
M 1422.00 609.00 
C 1421.03 610.65 1420.13 613.76 1422.00 615.00
C 1423.82 613.29 1422.95 609.53 1423.00 607.00
C 1423.04 606.81 1422.02 608.96 1422.00 609.00 Z"/>
</g>
<g fill="#000000" fill-opacity="0.00" stroke="None">
<path d="
M 1804.00 652.00 
C 1804.53 661.96 1814.30 666.62 1820.25 673.75 C 1826.20 680.88 1833.09 685.47 1839.70 692.30 C 1846.30 699.13 1850.64 704.76 1858.30 711.70 C 1865.96 718.65 1868.32 722.65 1877.25 730.75 C 1886.18 738.85 1892.05 725.02 1882.25 718.75 C 1872.45 712.48 1871.15 705.99 1863.25 699.75 C 1855.34 693.52 1851.31 686.89 1844.25 680.75 C 1837.18 674.61 1831.96 667.66 1825.25 661.75 C 1818.54 655.84 1812.81 644.39 1804.00 652.00 Z"/>
</g>
<g fill="#000000" fill-opacity="0.00" stroke="None">
<path d="
M 1792.00 664.00 
C 1784.73 673.46 1797.10 678.43 1802.75 685.25 C 1808.40 692.08 1815.54 697.43 1821.75 704.25 C 1827.97 711.07 1834.23 715.90 1840.30 723.70 C 1846.38 731.50 1853.86 732.32 1859.70 742.30 C 1865.55 752.27 1879.46 745.74 1871.23 736.77 C 1863.00 727.80 1858.96 725.76 1851.92 718.08 C 1844.87 710.41 1839.78 705.85 1832.77 699.23 C 1825.76 692.62 1821.25 685.90 1814.08 679.92 C 1806.92 673.94 1802.28 663.72 1792.00 664.00 Z"/>
</g>
<g fill="#ED8300" fill-opacity="0.34" stroke="None">
<path d="
M 2058.00 665.00 
C 2060.53 665.02 2065.71 667.31 2069.00 666.00
C 2070.21 665.52 2069.46 664.33 2070.00 664.00
C 2066.27 664.35 2062.00 664.65 2058.00 665.00 Z"/>
</g>
<g fill="#000000" fill-opacity="0.00" stroke="None">
<path d="
M 1782.00 679.00 
C 1769.55 676.42 1777.33 694.42 1784.08 696.92 C 1790.84 699.42 1794.66 709.96 1800.75 714.25 C 1806.85 718.53 1811.77 726.45 1817.77 731.23 C 1823.76 736.02 1828.18 743.44 1835.23 747.77 C 1842.28 752.10 1842.81 763.92 1852.99 763.99 C 1863.17 764.06 1857.32 750.56 1850.25 746.75 C 1843.17 742.94 1839.61 734.31 1833.25 729.75 C 1826.88 725.19 1822.37 717.32 1816.25 712.75 C 1810.13 708.18 1805.43 699.60 1799.25 695.75 C 1793.07 691.90 1788.77 680.40 1782.00 679.00 Z"/>
</g>
<g fill="#000000" fill-opacity="0.00" stroke="None">
<path d="
M 1767.00 691.00 
C 1757.13 697.24 1755.80 709.10 1757.01 719.99 C 1758.22 730.88 1766.50 739.47 1768.00 750.00 C 1769.50 760.53 1777.90 769.18 1788.31 770.65 C 1798.71 772.12 1805.65 779.66 1816.99 781.01 C 1828.33 782.36 1839.58 781.81 1848.00 773.00
C 1821.71 745.21 1793.34 718.83 1767.00 691.00 Z"/>
</g>
<g fill="#EE7E00" fill-opacity="0.13" stroke="None">
<path d="
M 2187.00 791.00 
C 2152.52 791.00 2117.42 791.27 2083.00 791.00 C 2048.58 790.73 2014.31 791.74 1980.00 791.00 C 1945.69 790.26 1911.18 792.70 1877.00 791.00 C 1842.82 789.30 1807.94 794.79 1774.00 791.00
C 1796.68 796.27 1823.05 790.31 1847.00 792.00 C 1870.95 793.69 1895.78 791.37 1920.00 792.00 C 1944.22 792.63 1969.71 791.97 1994.00 792.00 C 2018.29 792.03 2042.78 792.58 2067.00 792.00 C 2091.22 791.42 2117.04 793.54 2141.00 792.00 C 2164.96 790.46 2190.28 796.03 2213.00 791.00
C 2205.06 791.72 2195.59 791.00 2187.00 791.00 Z"/>
</g>
<g fill="#EB7F00" fill-opacity="0.13" stroke="None">
<path d="
M 483.00 800.00 
L 508.00 800.00
C 508.00 800.00 508.04 799.00 508.00 799.00
C 499.67 799.00 491.33 799.00 483.00 799.00
C 483.00 799.00 483.00 799.50 483.00 800.00 Z"/>
</g>
<g fill="#EB7F00" fill-opacity="0.12" stroke="None">
<path d="
M 1124.00 800.00 
L 1150.00 800.00
C 1150.00 800.00 1150.04 799.00 1150.00 799.00
C 1141.33 799.00 1132.67 799.00 1124.00 799.00
C 1124.00 799.00 1124.00 799.50 1124.00 800.00 Z"/>
</g>
</svg>