<svg xmlns="http://www.w3.org/2000/svg" xmlns:v="https://svgstorm.com"
viewBox = "0 0 927 927"
width="927"
height="927">
<g fill="None" fill-opacity="0.0" stroke="#000000" stroke-opacity="0.00" stroke-width="0.3"><path d="
M 0.00 927.00 
L 927.00 927.00
L 927.00 0.00
L 0.00 0.00
L 0.00 927.00
M 857.00 827.00 
C 852.70 851.02 842.03 873.48 815.77 882.77 C 789.51 892.06 753.31 887.12 723.00 888.00 C 692.69 888.88 657.50 887.60 626.00 888.00 C 594.50 888.40 559.99 887.80 528.00 888.00 C 496.01 888.20 463.15 887.86 431.00 888.00 C 398.85 888.14 365.07 887.84 333.00 888.00 C 300.93 888.16 267.69 887.71 236.00 888.00 C 204.31 888.29 168.80 887.39 138.00 888.00 C 107.20 888.61 82.31 889.40 60.75 867.25 C 39.19 845.10 39.60 821.87 40.00 791.00 C 40.40 760.13 39.80 724.73 40.00 693.00 C 40.20 661.27 39.88 628.09 40.00 596.00 C 40.12 563.91 39.88 530.16 40.00 498.00 C 40.12 465.84 39.80 433.00 40.00 401.00 C 40.20 369.00 39.59 334.52 40.00 303.00 C 40.41 271.48 39.09 236.37 40.00 206.00 C 40.91 175.63 35.94 139.38 44.98 112.98 C 54.01 86.57 76.73 75.10 101.00 71.00
C 135.21 65.22 170.31 68.63 206.00 68.00 C 241.69 67.37 279.03 68.23 315.00 68.00 C 350.97 67.77 387.99 68.00 424.00 68.00 C 460.01 68.00 497.17 67.76 533.00 68.00 C 568.83 68.24 606.69 67.37 642.00 68.00 C 677.31 68.63 716.90 66.55 751.00 68.00 C 785.10 69.45 819.13 59.28 844.25 83.75 C 869.37 108.22 858.45 142.04 860.00 176.00 C 861.55 209.96 859.33 249.75 860.00 285.00 C 860.67 320.25 859.76 358.19 860.00 394.00 C 860.24 429.81 860.02 466.99 860.00 503.00 C 859.98 539.01 860.31 575.99 860.00 612.00 C 859.69 648.01 860.79 685.21 860.00 721.00 C 859.21 756.79 863.15 792.67 857.00 827.00 Z"/>
</g>
<g fill="None" fill-opacity="0.0" stroke="#EA7200" stroke-opacity="1.00" stroke-width="0.3"><path d="
M 101.00 71.00 
C 93.01 74.02 86.80 81.89 80.00 87.00
C 57.77 114.33 70.37 152.03 68.00 187.00 C 65.63 221.97 69.02 262.71 68.00 299.00 C 66.98 335.29 68.37 375.21 68.00 412.00 C 67.63 448.79 67.94 487.18 68.00 524.00 C 68.06 560.82 67.50 600.60 68.00 637.00 C 68.50 673.40 66.69 713.77 68.00 749.00 C 69.31 784.23 59.06 819.89 85.25 844.75 C 111.43 869.61 146.75 858.38 182.00 860.00 C 217.25 861.62 257.58 859.34 294.00 860.00 C 330.42 860.66 370.14 859.83 407.00 860.00 C 443.86 860.17 482.13 860.21 519.00 860.00 C 555.87 859.79 595.54 860.73 632.00 860.00 C 668.46 859.27 708.66 861.75 744.00 860.00 C 779.34 858.25 816.19 869.36 843.00 846.00
C 847.61 839.80 854.13 834.30 857.00 827.00
C 863.15 792.67 859.21 756.79 860.00 721.00 C 860.79 685.21 859.69 648.01 860.00 612.00 C 860.31 575.99 859.98 539.01 860.00 503.00 C 860.02 466.99 860.24 429.81 860.00 394.00 C 859.76 358.19 860.67 320.25 860.00 285.00 C 859.33 249.75 861.55 209.96 860.00 176.00 C 858.45 142.04 869.37 108.22 844.25 83.75 C 819.13 59.28 785.10 69.45 751.00 68.00 C 716.90 66.55 677.31 68.63 642.00 68.00 C 606.69 67.37 568.83 68.24 533.00 68.00 C 497.17 67.76 460.01 68.00 424.00 68.00 C 387.99 68.00 350.97 67.77 315.00 68.00 C 279.03 68.23 241.69 67.37 206.00 68.00 C 170.31 68.63 135.21 65.22 101.00 71.00
M 703.00 620.00 
C 684.19 630.37 667.76 638.88 646.93 644.93 C 626.09 650.97 601.79 658.18 579.26 658.60 C 556.73 659.02 527.66 661.43 506.00 655.00 C 484.34 648.57 458.30 646.69 437.92 654.92 C 417.55 663.16 410.36 679.56 394.25 692.25 C 378.13 704.94 369.93 723.41 352.30 732.31 C 334.68 741.20 303.00 739.16 287.25 727.75 C 271.49 716.34 260.56 700.60 245.75 687.25 C 230.95 673.90 219.90 660.44 204.75 646.25 C 189.60 632.06 188.03 601.53 193.98 581.98 C 199.93 562.42 219.01 553.96 231.75 537.75 C 244.50 521.54 260.51 514.95 270.97 495.97 C 281.44 477.00 280.31 450.02 274.22 428.78 C 268.13 407.54 268.28 375.90 269.00 353.00 C 269.72 330.10 275.54 304.93 281.98 283.98 C 288.41 263.02 295.92 245.67 307.00 227.00
C 331.73 185.35 360.38 154.21 402.23 127.23 C 444.08 100.25 499.58 82.87 551.00 82.00 C 602.42 81.13 661.07 95.22 704.23 121.77 C 747.39 148.33 775.73 175.92 803.30 218.70 C 830.88 261.48 845.83 318.88 846.00 371.00 C 846.17 423.12 829.80 481.49 802.25 523.25 C 774.69 565.00 746.05 596.27 703.00 620.00
M 174.00 631.00 
C 180.58 633.43 184.43 644.06 190.75 648.25 C 197.07 652.44 202.18 660.65 208.25 665.75 C 214.31 670.85 219.79 677.73 225.75 683.25 C 231.72 688.77 237.30 695.02 243.25 700.75 C 249.20 706.48 254.18 711.81 260.25 717.75 C 266.32 723.70 271.37 728.99 277.75 735.25 C 284.13 741.51 288.18 745.90 295.25 752.75 C 302.31 759.61 290.08 774.77 281.98 769.02 C 273.87 763.28 271.42 758.19 264.75 752.25 C 258.08 746.31 253.46 740.65 247.25 734.75 C 241.04 728.85 235.75 723.15 229.75 717.25 C 223.76 711.35 218.14 705.69 212.25 699.75 C 206.36 693.81 201.13 688.86 195.25 682.75 C 189.37 676.64 183.70 671.75 177.75 665.25 C 171.81 658.74 166.33 655.09 160.25 647.75 C 154.17 640.41 163.08 626.97 174.00 631.00
M 150.00 655.00 
C 156.59 657.43 160.43 668.06 166.75 672.25 C 173.08 676.44 178.18 684.65 184.25 689.75 C 190.32 694.86 195.77 701.72 201.75 707.25 C 207.73 712.78 213.27 719.00 219.25 724.75 C 225.23 730.50 230.67 736.33 236.75 742.25 C 242.83 748.17 247.90 753.61 254.25 759.75 C 260.60 765.89 264.79 770.68 271.75 777.25 C 278.72 783.82 266.62 797.93 258.78 793.22 C 250.93 788.52 247.69 782.50 241.25 776.75 C 234.80 771.01 229.87 765.06 223.75 759.25 C 217.64 753.43 212.22 747.63 206.25 741.75 C 200.27 735.88 194.68 730.21 188.75 724.25 C 182.82 718.29 177.20 712.89 171.25 706.75 C 165.30 700.62 159.79 695.75 153.75 689.25 C 147.71 682.74 142.52 679.08 136.25 671.75 C 129.98 664.43 139.08 650.97 150.00 655.00
M 126.00 679.00 
C 132.59 681.43 136.43 692.06 142.75 696.25 C 149.08 700.44 154.18 708.65 160.25 713.75 C 166.32 718.85 171.77 725.73 177.75 731.25 C 183.73 736.77 189.26 743.02 195.25 748.75 C 201.23 754.48 206.66 760.37 212.75 766.25 C 218.84 772.12 223.88 777.71 230.25 783.75 C 236.61 789.80 240.75 794.89 247.75 801.25 C 254.75 807.60 242.08 822.56 234.33 817.67 C 226.58 812.78 223.85 806.21 217.25 800.75 C 210.65 795.29 205.94 788.93 199.75 783.25 C 193.56 777.57 188.26 771.56 182.25 765.75 C 176.24 759.94 170.71 754.16 164.75 748.25 C 158.80 742.33 153.23 736.83 147.25 730.75 C 141.26 724.67 135.86 719.66 129.75 713.25 C 123.64 706.84 118.67 702.87 112.25 695.75 C 105.83 688.63 115.19 675.01 126.00 679.00
M 99.00 698.00 
C 142.17 742.00 186.05 785.88 230.00 829.00
C 219.78 846.54 201.99 846.13 184.00 846.00 C 166.00 845.87 151.84 831.22 135.00 828.00 C 118.16 824.78 102.43 814.39 100.02 795.98 C 97.62 777.56 83.81 765.47 82.07 746.93 C 80.33 728.39 81.82 708.36 99.00 698.00 Z"/>
</g>
<g fill="None" fill-opacity="0.0" stroke="#000000" stroke-opacity="0.05" stroke-width="0.3"><path d="
M 857.00 827.00 
C 854.13 834.30 847.61 839.80 843.00 846.00
C 827.47 866.89 813.68 880.03 785.00 879.00 C 756.32 877.97 722.76 879.47 693.00 879.00 C 663.24 878.53 631.23 879.22 601.00 879.00 C 570.77 878.78 539.40 879.11 509.00 879.00 C 478.60 878.89 447.39 879.08 417.00 879.00 C 386.61 878.92 355.21 879.11 325.00 879.00 C 294.79 878.89 262.72 879.20 233.00 879.00 C 203.28 878.80 171.45 878.06 143.00 879.00 C 114.55 879.94 88.04 882.23 67.75 862.25 C 47.46 842.26 47.74 818.48 49.00 790.00 C 50.26 761.52 49.52 729.64 49.00 700.00 C 48.48 670.36 49.26 638.18 49.00 608.00 C 48.74 577.82 49.17 546.39 49.00 516.00 C 48.83 485.61 49.19 454.42 49.00 424.00 C 48.81 393.58 49.33 362.29 49.00 332.00 C 48.67 301.71 49.70 269.90 49.00 240.00 C 48.30 210.10 50.53 177.00 49.00 148.00 C 47.47 119.00 58.26 103.33 80.00 87.00
C 86.80 81.89 93.01 74.02 101.00 71.00
C 76.73 75.10 54.01 86.57 44.98 112.98 C 35.94 139.38 40.91 175.63 40.00 206.00 C 39.09 236.37 40.41 271.48 40.00 303.00 C 39.59 334.52 40.20 369.00 40.00 401.00 C 39.80 433.00 40.12 465.84 40.00 498.00 C 39.88 530.16 40.12 563.91 40.00 596.00 C 39.88 628.09 40.20 661.27 40.00 693.00 C 39.80 724.73 40.40 760.13 40.00 791.00 C 39.60 821.87 39.19 845.10 60.75 867.25 C 82.31 889.40 107.20 888.61 138.00 888.00 C 168.80 887.39 204.31 888.29 236.00 888.00 C 267.69 887.71 300.93 888.16 333.00 888.00 C 365.07 887.84 398.85 888.14 431.00 888.00 C 463.15 887.86 496.01 888.20 528.00 888.00 C 559.99 887.80 594.50 888.40 626.00 888.00 C 657.50 887.60 692.69 888.88 723.00 888.00 C 753.31 887.12 789.51 892.06 815.77 882.77 C 842.03 873.48 852.70 851.02 857.00 827.00 Z"/>
</g>
<g fill="None" fill-opacity="0.0" stroke="#E3E3E2" stroke-opacity="1.00" stroke-width="0.3"><path d="
M 307.00 227.00 
C 335.03 191.14 362.09 161.23 403.08 139.08 C 444.08 116.93 500.42 98.93 549.00 101.00 C 597.58 103.07 650.04 118.71 690.23 143.77 C 730.42 168.84 757.18 195.23 782.77 235.23 C 808.36 275.23 823.89 326.28 826.98 375.02 C 830.06 423.77 812.29 481.15 790.25 522.25 C 768.21 563.34 739.16 591.74 703.00 620.00
C 746.05 596.27 774.69 565.00 802.25 523.25 C 829.80 481.49 846.17 423.12 846.00 371.00 C 845.83 318.88 830.88 261.48 803.30 218.70 C 775.73 175.92 747.39 148.33 704.23 121.77 C 661.07 95.22 602.42 81.13 551.00 82.00 C 499.58 82.87 444.08 100.25 402.23 127.23 C 360.38 154.21 331.73 185.35 307.00 227.00 Z"/>
</g>
<g fill="None" fill-opacity="0.0" stroke="#000000" stroke-opacity="0.11" stroke-width="0.3"><path d="
M 843.00 846.00 
C 816.19 869.36 779.34 858.25 744.00 860.00 C 708.66 861.75 668.46 859.27 632.00 860.00 C 595.54 860.73 555.87 859.79 519.00 860.00 C 482.13 860.21 443.86 860.17 407.00 860.00 C 370.14 859.83 330.42 860.66 294.00 860.00 C 257.58 859.34 217.25 861.62 182.00 860.00 C 146.75 858.38 111.43 869.61 85.25 844.75 C 59.06 819.89 69.31 784.23 68.00 749.00 C 66.69 713.77 68.50 673.40 68.00 637.00 C 67.50 600.60 68.06 560.82 68.00 524.00 C 67.94 487.18 67.63 448.79 68.00 412.00 C 68.37 375.21 66.98 335.29 68.00 299.00 C 69.02 262.71 65.63 221.97 68.00 187.00 C 70.37 152.03 57.77 114.33 80.00 87.00
C 58.26 103.33 47.47 119.00 49.00 148.00 C 50.53 177.00 48.30 210.10 49.00 240.00 C 49.70 269.90 48.67 301.71 49.00 332.00 C 49.33 362.29 48.81 393.58 49.00 424.00 C 49.19 454.42 48.83 485.61 49.00 516.00 C 49.17 546.39 48.74 577.82 49.00 608.00 C 49.26 638.18 48.48 670.36 49.00 700.00 C 49.52 729.64 50.26 761.52 49.00 790.00 C 47.74 818.48 47.46 842.26 67.75 862.25 C 88.04 882.23 114.55 879.94 143.00 879.00 C 171.45 878.06 203.28 878.80 233.00 879.00 C 262.72 879.20 294.79 878.89 325.00 879.00 C 355.21 879.11 386.61 878.92 417.00 879.00 C 447.39 879.08 478.60 878.89 509.00 879.00 C 539.40 879.11 570.77 878.78 601.00 879.00 C 631.23 879.22 663.24 878.53 693.00 879.00 C 722.76 879.47 756.32 877.97 785.00 879.00 C 813.68 880.03 827.47 866.89 843.00 846.00 Z"/>
</g>
<g fill="None" fill-opacity="0.0" stroke="#FBFBFB" stroke-opacity="1.00" stroke-width="0.3"><path d="
M 307.00 227.00 
C 295.92 245.67 288.41 263.02 281.98 283.98 C 275.54 304.93 269.72 330.10 269.00 353.00 C 268.28 375.90 268.13 407.54 274.22 428.78 C 280.31 450.02 281.44 477.00 270.97 495.97 C 260.51 514.95 244.50 521.54 231.75 537.75 C 219.01 553.96 199.93 562.42 193.98 581.98 C 188.03 601.53 189.60 632.06 204.75 646.25 C 219.90 660.44 230.95 673.90 245.75 687.25 C 260.56 700.60 271.49 716.34 287.25 727.75 C 303.00 739.16 334.68 741.20 352.30 732.31 C 369.93 723.41 378.13 704.94 394.25 692.25 C 410.36 679.56 417.55 663.16 437.92 654.92 C 458.30 646.69 484.34 648.57 506.00 655.00 C 527.66 661.43 556.73 659.02 579.26 658.60 C 601.79 658.18 626.09 650.97 646.93 644.93 C 667.76 638.88 684.19 630.37 703.00 620.00
C 739.16 591.74 768.21 563.34 790.25 522.25 C 812.29 481.15 830.06 423.77 826.98 375.02 C 823.89 326.28 808.36 275.23 782.77 235.23 C 757.18 195.23 730.42 168.84 690.23 143.77 C 650.04 118.71 597.58 103.07 549.00 101.00 C 500.42 98.93 444.08 116.93 403.08 139.08 C 362.09 161.23 335.03 191.14 307.00 227.00
M 530.00 250.00 
C 528.53 243.77 518.11 241.96 520.00 234.00 C 521.89 226.04 519.88 219.08 524.31 212.31 C 528.73 205.53 535.04 206.54 540.00 202.00
C 545.71 196.77 555.95 195.78 565.22 194.22 C 574.50 192.66 584.84 190.53 594.07 189.07 C 603.31 187.61 614.66 184.47 624.00 185.00 C 633.34 185.53 640.02 190.59 645.92 197.08 C 651.82 203.57 654.47 212.64 656.00 221.00
C 657.17 222.85 661.79 223.80 663.00 226.00
C 661.64 218.26 659.45 211.07 656.00 204.00
C 672.05 217.99 686.07 231.66 701.25 247.75 C 716.43 263.84 733.32 273.61 743.93 294.07 C 754.54 314.54 741.42 344.62 737.00 366.00
C 746.88 368.30 755.90 373.45 766.00 375.00
C 758.50 379.98 746.17 381.80 735.93 383.93 C 725.68 386.05 712.77 388.17 702.78 390.78 C 692.78 393.39 679.68 397.52 672.75 389.25 C 665.83 380.98 659.92 377.18 653.25 369.75 C 646.57 362.32 639.75 356.93 633.25 349.75 C 626.74 342.57 618.75 336.97 614.00 329.00
C 616.49 328.71 618.39 330.64 621.00 330.00
C 628.98 327.26 625.23 307.91 615.78 308.22 C 606.32 308.54 594.72 309.90 585.78 312.78 C 576.84 315.65 563.16 315.43 554.93 313.07 C 546.69 310.72 541.26 299.74 539.08 293.92 C 536.89 288.11 529.69 270.09 523.00 278.00
C 517.27 298.54 511.76 319.17 507.00 340.00
C 505.72 340.53 505.14 339.03 504.00 339.00
C 503.24 343.51 497.95 346.57 494.30 349.30 C 490.66 352.03 482.60 349.13 478.78 347.22 C 474.96 345.32 466.63 342.58 462.93 342.07 C 459.23 341.57 447.40 342.97 447.00 347.00
C 464.43 364.43 481.85 382.74 499.00 400.00
C 496.65 406.02 489.46 409.50 486.00 415.00
C 483.23 423.31 481.94 433.25 474.25 439.25 C 466.56 445.24 465.05 452.89 457.75 458.75 C 450.45 464.61 445.14 469.08 438.25 475.25 C 431.36 481.41 421.99 486.04 412.93 484.07 C 403.86 482.11 397.52 476.39 391.25 469.75 C 384.97 463.11 379.51 458.19 373.25 451.75 C 366.98 445.31 361.31 440.31 355.75 433.25 C 350.20 426.19 345.35 419.66 342.03 410.98 C 338.70 402.29 336.36 390.73 338.00 381.00 C 339.64 371.27 342.25 361.32 344.93 351.93 C 347.60 342.53 349.67 332.60 352.33 323.33 C 354.99 314.06 357.33 304.01 359.98 294.98 C 362.62 285.94 366.27 277.50 370.31 269.31 C 374.34 261.11 378.06 253.94 384.25 247.25 C 390.44 240.55 398.97 237.43 407.00 234.00
C 426.25 225.79 447.06 222.21 467.00 216.00
C 465.00 205.43 462.17 195.05 462.00 184.00
C 485.75 203.93 506.79 228.94 530.00 250.00
M 694.00 521.00 
C 689.04 531.61 684.96 543.25 673.75 549.75 C 662.55 556.26 652.32 561.00 639.98 564.98 C 627.63 568.96 614.54 572.43 601.93 575.93 C 589.31 579.43 575.66 582.72 562.99 585.99 C 550.33 589.26 532.91 593.10 520.32 587.68 C 507.74 582.25 499.80 580.03 490.25 568.75 C 480.70 557.47 468.50 559.32 454.99 555.01 C 441.49 550.69 446.68 529.76 449.33 518.33 C 451.98 506.90 457.26 492.99 459.93 479.93 C 462.59 466.86 475.46 462.51 486.00 457.00
C 511.71 443.57 545.37 443.75 573.00 434.00
C 568.46 442.33 558.53 448.07 555.00 457.00
C 573.50 474.00 590.55 493.05 609.00 510.00
C 603.37 504.37 600.76 500.08 594.25 494.75 C 587.74 489.43 593.29 480.66 595.33 473.33 C 597.36 465.99 599.62 456.17 601.98 448.98 C 604.34 441.78 609.45 434.38 617.00 433.00
C 619.11 426.14 620.85 419.14 622.00 412.00
C 632.84 412.53 641.83 417.36 652.22 419.78 C 662.61 422.19 672.61 425.19 683.02 427.98 C 693.44 430.76 702.30 432.95 713.01 435.99 C 723.71 439.03 714.74 453.65 712.67 462.67 C 710.61 471.69 706.60 482.65 704.02 492.02 C 701.45 501.39 698.59 512.29 694.00 521.00 Z"/>
</g>
<g fill="None" fill-opacity="0.0" stroke="#E96B03" stroke-opacity="1.00" stroke-width="0.3"><path d="
M 407.00 234.00 
C 391.49 245.19 394.25 272.20 400.92 287.08 C 407.59 301.95 420.91 313.78 432.00 326.00
C 453.32 321.69 474.52 316.82 496.00 313.00
C 498.37 321.77 502.81 329.87 504.00 339.00
C 505.14 339.03 505.72 340.53 507.00 340.00
C 511.76 319.17 517.27 298.54 523.00 278.00
C 524.20 273.70 525.66 268.74 526.33 264.33 C 526.99 259.91 531.09 254.64 530.00 250.00
C 506.79 228.94 485.75 203.93 462.00 184.00
C 462.17 195.05 465.00 205.43 467.00 216.00
C 447.06 222.21 426.25 225.79 407.00 234.00 Z"/>
</g>
<g fill="None" fill-opacity="0.0" stroke="#E86B02" stroke-opacity="1.00" stroke-width="0.3"><path d="
M 540.00 202.00 
C 539.57 208.79 546.41 217.33 546.99 225.01 C 547.57 232.68 552.77 241.16 553.98 249.02 C 555.18 256.89 559.44 264.11 560.93 272.07 C 562.41 280.03 565.73 288.19 568.00 296.00
C 595.50 289.72 623.27 284.48 651.00 279.00
C 656.05 260.59 660.41 240.31 656.00 221.00
C 654.47 212.64 651.82 203.57 645.92 197.08 C 640.02 190.59 633.34 185.53 624.00 185.00 C 614.66 184.47 603.31 187.61 594.07 189.07 C 584.84 190.53 574.50 192.66 565.22 194.22 C 555.95 195.78 545.71 196.77 540.00 202.00 Z"/>
</g>
<g fill="None" fill-opacity="0.0" stroke="#E3E3E2" stroke-opacity="1.00" stroke-width="0.3"><path d="
M 530.00 250.00 
C 531.09 254.64 526.99 259.91 526.33 264.33 C 525.66 268.74 524.20 273.70 523.00 278.00
C 529.69 270.09 536.89 288.11 539.08 293.92 C 541.26 299.74 546.69 310.72 554.93 313.07 C 563.16 315.43 576.84 315.65 585.78 312.78 C 594.72 309.90 606.32 308.54 615.78 308.22 C 625.23 307.91 628.98 327.26 621.00 330.00
C 627.97 331.78 635.57 334.56 643.00 336.00
C 648.80 299.31 667.99 264.67 663.00 226.00
C 661.79 223.80 657.17 222.85 656.00 221.00
C 660.41 240.31 656.05 260.59 651.00 279.00
C 623.27 284.48 595.50 289.72 568.00 296.00
C 565.73 288.19 562.41 280.03 560.93 272.07 C 559.44 264.11 555.18 256.89 553.98 249.02 C 552.77 241.16 547.57 232.68 546.99 225.01 C 546.41 217.33 539.57 208.79 540.00 202.00
C 535.04 206.54 528.73 205.53 524.31 212.31 C 519.88 219.08 521.89 226.04 520.00 234.00 C 518.11 241.96 528.53 243.77 530.00 250.00 Z"/>
</g>
<g fill="None" fill-opacity="0.0" stroke="#E96B02" stroke-opacity="1.00" stroke-width="0.3"><path d="
M 663.00 226.00 
C 667.99 264.67 648.80 299.31 643.00 336.00
C 635.57 334.56 627.97 331.78 621.00 330.00
C 618.39 330.64 616.49 328.71 614.00 329.00
C 618.75 336.97 626.74 342.57 633.25 349.75 C 639.75 356.93 646.57 362.32 653.25 369.75 C 659.92 377.18 665.83 380.98 672.75 389.25 C 679.68 397.52 692.78 393.39 702.78 390.78 C 712.77 388.17 725.68 386.05 735.93 383.93 C 746.17 381.80 758.50 379.98 766.00 375.00
C 755.90 373.45 746.88 368.30 737.00 366.00
C 741.42 344.62 754.54 314.54 743.93 294.07 C 733.32 273.61 716.43 263.84 701.25 247.75 C 686.07 231.66 672.05 217.99 656.00 204.00
C 659.45 211.07 661.64 218.26 663.00 226.00 Z"/>
</g>
<g fill="None" fill-opacity="0.0" stroke="#E5E4E4" stroke-opacity="1.00" stroke-width="0.3"><path d="
M 486.00 415.00 
C 468.42 432.58 449.81 449.73 433.00 468.00
C 419.73 454.95 407.12 443.56 394.25 429.75 C 381.37 415.95 365.52 404.83 361.67 385.33 C 357.83 365.83 368.98 342.71 372.99 322.99 C 377.01 303.28 385.41 282.10 389.00 262.00
C 391.32 272.85 394.48 287.29 400.77 297.23 C 407.06 307.17 414.69 314.61 423.25 322.75 C 431.81 330.89 438.86 339.03 447.00 347.00
C 447.40 342.97 459.23 341.57 462.93 342.07 C 466.63 342.58 474.96 345.32 478.78 347.22 C 482.60 349.13 490.66 352.03 494.30 349.30 C 497.95 346.57 503.24 343.51 504.00 339.00
C 502.81 329.87 498.37 321.77 496.00 313.00
C 474.52 316.82 453.32 321.69 432.00 326.00
C 420.91 313.78 407.59 301.95 400.92 287.08 C 394.25 272.20 391.49 245.19 407.00 234.00
C 398.97 237.43 390.44 240.55 384.25 247.25 C 378.06 253.94 374.34 261.11 370.31 269.31 C 366.27 277.50 362.62 285.94 359.98 294.98 C 357.33 304.01 354.99 314.06 352.33 323.33 C 349.67 332.60 347.60 342.53 344.93 351.93 C 342.25 361.32 339.64 371.27 338.00 381.00 C 336.36 390.73 338.70 402.29 342.03 410.98 C 345.35 419.66 350.20 426.19 355.75 433.25 C 361.31 440.31 366.98 445.31 373.25 451.75 C 379.51 458.19 384.97 463.11 391.25 469.75 C 397.52 476.39 403.86 482.11 412.93 484.07 C 421.99 486.04 431.36 481.41 438.25 475.25 C 445.14 469.08 450.45 464.61 457.75 458.75 C 465.05 452.89 466.56 445.24 474.25 439.25 C 481.94 433.25 483.23 423.31 486.00 415.00 Z"/>
</g>
<g fill="None" fill-opacity="0.0" stroke="#E96D02" stroke-opacity="1.00" stroke-width="0.3"><path d="
M 486.00 415.00 
C 489.46 409.50 496.65 406.02 499.00 400.00
C 481.85 382.74 464.43 364.43 447.00 347.00
C 438.86 339.03 431.81 330.89 423.25 322.75 C 414.69 314.61 407.06 307.17 400.77 297.23 C 394.48 287.29 391.32 272.85 389.00 262.00
C 385.41 282.10 377.01 303.28 372.99 322.99 C 368.98 342.71 357.83 365.83 361.67 385.33 C 365.52 404.83 381.37 415.95 394.25 429.75 C 407.12 443.56 419.73 454.95 433.00 468.00
C 449.81 449.73 468.42 432.58 486.00 415.00 Z"/>
</g>
<g fill="None" fill-opacity="0.0" stroke="#E96B03" stroke-opacity="1.00" stroke-width="0.3"><path d="
M 617.00 433.00 
C 610.82 453.07 606.79 473.79 601.00 494.00
C 624.16 517.43 663.85 550.08 694.00 521.00
C 698.59 512.29 701.45 501.39 704.02 492.02 C 706.60 482.65 710.61 471.69 712.67 462.67 C 714.74 453.65 723.71 439.03 713.01 435.99 C 702.30 432.95 693.44 430.76 683.02 427.98 C 672.61 425.19 662.61 422.19 652.22 419.78 C 641.83 417.36 632.84 412.53 622.00 412.00
C 620.85 419.14 619.11 426.14 617.00 433.00 Z"/>
</g>
<g fill="None" fill-opacity="0.0" stroke="#E4E4E4" stroke-opacity="1.00" stroke-width="0.3"><path d="
M 609.00 510.00 
C 625.51 524.11 643.43 536.14 665.00 538.00
C 632.13 548.01 597.36 555.39 564.78 565.78 C 532.19 576.16 509.10 544.70 488.00 523.00
C 478.34 526.58 473.07 538.53 464.00 543.00
C 470.78 514.20 479.08 485.80 486.00 457.00
C 475.46 462.51 462.59 466.86 459.93 479.93 C 457.26 492.99 451.98 506.90 449.33 518.33 C 446.68 529.76 441.49 550.69 454.99 555.01 C 468.50 559.32 480.70 557.47 490.25 568.75 C 499.80 580.03 507.74 582.25 520.32 587.68 C 532.91 593.10 550.33 589.26 562.99 585.99 C 575.66 582.72 589.31 579.43 601.93 575.93 C 614.54 572.43 627.63 568.96 639.98 564.98 C 652.32 561.00 662.55 556.26 673.75 549.75 C 684.96 543.25 689.04 531.61 694.00 521.00
C 663.85 550.08 624.16 517.43 601.00 494.00
C 606.79 473.79 610.82 453.07 617.00 433.00
C 609.45 434.38 604.34 441.78 601.98 448.98 C 599.62 456.17 597.36 465.99 595.33 473.33 C 593.29 480.66 587.74 489.43 594.25 494.75 C 600.76 500.08 603.37 504.37 609.00 510.00 Z"/>
</g>
<g fill="None" fill-opacity="0.0" stroke="#E96D02" stroke-opacity="1.00" stroke-width="0.3"><path d="
M 486.00 457.00 
C 479.08 485.80 470.78 514.20 464.00 543.00
C 473.07 538.53 478.34 526.58 488.00 523.00
C 509.10 544.70 532.19 576.16 564.78 565.78 C 597.36 555.39 632.13 548.01 665.00 538.00
C 643.43 536.14 625.51 524.11 609.00 510.00
C 590.55 493.05 573.50 474.00 555.00 457.00
C 558.53 448.07 568.46 442.33 573.00 434.00
C 545.37 443.75 511.71 443.57 486.00 457.00 Z"/>
</g>
<g fill="None" fill-opacity="0.0" stroke="#E9E7E6" stroke-opacity="1.00" stroke-width="0.3"><path d="
M 174.00 631.00 
C 163.08 626.97 154.17 640.41 160.25 647.75 C 166.33 655.09 171.81 658.74 177.75 665.25 C 183.70 671.75 189.37 676.64 195.25 682.75 C 201.13 688.86 206.36 693.81 212.25 699.75 C 218.14 705.69 223.76 711.35 229.75 717.25 C 235.75 723.15 241.04 728.85 247.25 734.75 C 253.46 740.65 258.08 746.31 264.75 752.25 C 271.42 758.19 273.87 763.28 281.98 769.02 C 290.08 774.77 302.31 759.61 295.25 752.75 C 288.18 745.90 284.13 741.51 277.75 735.25 C 271.37 728.99 266.32 723.70 260.25 717.75 C 254.18 711.81 249.20 706.48 243.25 700.75 C 237.30 695.02 231.72 688.77 225.75 683.25 C 219.79 677.73 214.31 670.85 208.25 665.75 C 202.18 660.65 197.07 652.44 190.75 648.25 C 184.43 644.06 180.58 633.43 174.00 631.00 Z"/>
</g>
<g fill="None" fill-opacity="0.0" stroke="#E6E6E6" stroke-opacity="1.00" stroke-width="0.3"><path d="
M 150.00 655.00 
C 139.08 650.97 129.98 664.43 136.25 671.75 C 142.52 679.08 147.71 682.74 153.75 689.25 C 159.79 695.75 165.30 700.62 171.25 706.75 C 177.20 712.89 182.82 718.29 188.75 724.25 C 194.68 730.21 200.27 735.88 206.25 741.75 C 212.22 747.63 217.64 753.43 223.75 759.25 C 229.87 765.06 234.80 771.01 241.25 776.75 C 247.69 782.50 250.93 788.52 258.78 793.22 C 266.62 797.93 278.72 783.82 271.75 777.25 C 264.79 770.68 260.60 765.89 254.25 759.75 C 247.90 753.61 242.83 748.17 236.75 742.25 C 230.67 736.33 225.23 730.50 219.25 724.75 C 213.27 719.00 207.73 712.78 201.75 707.25 C 195.77 701.72 190.32 694.86 184.25 689.75 C 178.18 684.65 173.08 676.44 166.75 672.25 C 160.43 668.06 156.59 657.43 150.00 655.00 Z"/>
</g>
<g fill="None" fill-opacity="0.0" stroke="#E6E6E6" stroke-opacity="1.00" stroke-width="0.3"><path d="
M 126.00 679.00 
C 115.19 675.01 105.83 688.63 112.25 695.75 C 118.67 702.87 123.64 706.84 129.75 713.25 C 135.86 719.66 141.26 724.67 147.25 730.75 C 153.23 736.83 158.80 742.33 164.75 748.25 C 170.71 754.16 176.24 759.94 182.25 765.75 C 188.26 771.56 193.56 777.57 199.75 783.25 C 205.94 788.93 210.65 795.29 217.25 800.75 C 223.85 806.21 226.58 812.78 234.33 817.67 C 242.08 822.56 254.75 807.60 247.75 801.25 C 240.75 794.89 236.61 789.80 230.25 783.75 C 223.88 777.71 218.84 772.12 212.75 766.25 C 206.66 760.37 201.23 754.48 195.25 748.75 C 189.26 743.02 183.73 736.77 177.75 731.25 C 171.77 725.73 166.32 718.85 160.25 713.75 C 154.18 708.65 149.08 700.44 142.75 696.25 C 136.43 692.06 132.59 681.43 126.00 679.00 Z"/>
</g>
<g fill="None" fill-opacity="0.0" stroke="#F1F1F1" stroke-opacity="1.00" stroke-width="0.3"><path d="
M 99.00 698.00 
C 81.82 708.36 80.33 728.39 82.07 746.93 C 83.81 765.47 97.62 777.56 100.02 795.98 C 102.43 814.39 118.16 824.78 135.00 828.00 C 151.84 831.22 166.00 845.87 184.00 846.00 C 201.99 846.13 219.78 846.54 230.00 829.00
C 186.05 785.88 142.17 742.00 99.00 698.00 Z"/>
</g>
<g fill="#000000" fill-opacity="0.00" stroke="None">
<path d="
M 0.00 927.00 
L 927.00 927.00
L 927.00 0.00
L 0.00 0.00
L 0.00 927.00
M 857.00 827.00 
C 852.70 851.02 842.03 873.48 815.77 882.77 C 789.51 892.06 753.31 887.12 723.00 888.00 C 692.69 888.88 657.50 887.60 626.00 888.00 C 594.50 888.40 559.99 887.80 528.00 888.00 C 496.01 888.20 463.15 887.86 431.00 888.00 C 398.85 888.14 365.07 887.84 333.00 888.00 C 300.93 888.16 267.69 887.71 236.00 888.00 C 204.31 888.29 168.80 887.39 138.00 888.00 C 107.20 888.61 82.31 889.40 60.75 867.25 C 39.19 845.10 39.60 821.87 40.00 791.00 C 40.40 760.13 39.80 724.73 40.00 693.00 C 40.20 661.27 39.88 628.09 40.00 596.00 C 40.12 563.91 39.88 530.16 40.00 498.00 C 40.12 465.84 39.80 433.00 40.00 401.00 C 40.20 369.00 39.59 334.52 40.00 303.00 C 40.41 271.48 39.09 236.37 40.00 206.00 C 40.91 175.63 35.94 139.38 44.98 112.98 C 54.01 86.57 76.73 75.10 101.00 71.00
C 135.21 65.22 170.31 68.63 206.00 68.00 C 241.69 67.37 279.03 68.23 315.00 68.00 C 350.97 67.77 387.99 68.00 424.00 68.00 C 460.01 68.00 497.17 67.76 533.00 68.00 C 568.83 68.24 606.69 67.37 642.00 68.00 C 677.31 68.63 716.90 66.55 751.00 68.00 C 785.10 69.45 819.13 59.28 844.25 83.75 C 869.37 108.22 858.45 142.04 860.00 176.00 C 861.55 209.96 859.33 249.75 860.00 285.00 C 860.67 320.25 859.76 358.19 860.00 394.00 C 860.24 429.81 860.02 466.99 860.00 503.00 C 859.98 539.01 860.31 575.99 860.00 612.00 C 859.69 648.01 860.79 685.21 860.00 721.00 C 859.21 756.79 863.15 792.67 857.00 827.00 Z"/>
</g>
<g fill="#EA7200" fill-opacity="1.00" stroke="None">
<path d="
M 101.00 71.00 
C 93.01 74.02 86.80 81.89 80.00 87.00
C 57.77 114.33 70.37 152.03 68.00 187.00 C 65.63 221.97 69.02 262.71 68.00 299.00 C 66.98 335.29 68.37 375.21 68.00 412.00 C 67.63 448.79 67.94 487.18 68.00 524.00 C 68.06 560.82 67.50 600.60 68.00 637.00 C 68.50 673.40 66.69 713.77 68.00 749.00 C 69.31 784.23 59.06 819.89 85.25 844.75 C 111.43 869.61 146.75 858.38 182.00 860.00 C 217.25 861.62 257.58 859.34 294.00 860.00 C 330.42 860.66 370.14 859.83 407.00 860.00 C 443.86 860.17 482.13 860.21 519.00 860.00 C 555.87 859.79 595.54 860.73 632.00 860.00 C 668.46 859.27 708.66 861.75 744.00 860.00 C 779.34 858.25 816.19 869.36 843.00 846.00
C 847.61 839.80 854.13 834.30 857.00 827.00
C 863.15 792.67 859.21 756.79 860.00 721.00 C 860.79 685.21 859.69 648.01 860.00 612.00 C 860.31 575.99 859.98 539.01 860.00 503.00 C 860.02 466.99 860.24 429.81 860.00 394.00 C 859.76 358.19 860.67 320.25 860.00 285.00 C 859.33 249.75 861.55 209.96 860.00 176.00 C 858.45 142.04 869.37 108.22 844.25 83.75 C 819.13 59.28 785.10 69.45 751.00 68.00 C 716.90 66.55 677.31 68.63 642.00 68.00 C 606.69 67.37 568.83 68.24 533.00 68.00 C 497.17 67.76 460.01 68.00 424.00 68.00 C 387.99 68.00 350.97 67.77 315.00 68.00 C 279.03 68.23 241.69 67.37 206.00 68.00 C 170.31 68.63 135.21 65.22 101.00 71.00
M 703.00 620.00 
C 684.19 630.37 667.76 638.88 646.93 644.93 C 626.09 650.97 601.79 658.18 579.26 658.60 C 556.73 659.02 527.66 661.43 506.00 655.00 C 484.34 648.57 458.30 646.69 437.92 654.92 C 417.55 663.16 410.36 679.56 394.25 692.25 C 378.13 704.94 369.93 723.41 352.30 732.31 C 334.68 741.20 303.00 739.16 287.25 727.75 C 271.49 716.34 260.56 700.60 245.75 687.25 C 230.95 673.90 219.90 660.44 204.75 646.25 C 189.60 632.06 188.03 601.53 193.98 581.98 C 199.93 562.42 219.01 553.96 231.75 537.75 C 244.50 521.54 260.51 514.95 270.97 495.97 C 281.44 477.00 280.31 450.02 274.22 428.78 C 268.13 407.54 268.28 375.90 269.00 353.00 C 269.72 330.10 275.54 304.93 281.98 283.98 C 288.41 263.02 295.92 245.67 307.00 227.00
C 331.73 185.35 360.38 154.21 402.23 127.23 C 444.08 100.25 499.58 82.87 551.00 82.00 C 602.42 81.13 661.07 95.22 704.23 121.77 C 747.39 148.33 775.73 175.92 803.30 218.70 C 830.88 261.48 845.83 318.88 846.00 371.00 C 846.17 423.12 829.80 481.49 802.25 523.25 C 774.69 565.00 746.05 596.27 703.00 620.00
M 174.00 631.00 
C 180.58 633.43 184.43 644.06 190.75 648.25 C 197.07 652.44 202.18 660.65 208.25 665.75 C 214.31 670.85 219.79 677.73 225.75 683.25 C 231.72 688.77 237.30 695.02 243.25 700.75 C 249.20 706.48 254.18 711.81 260.25 717.75 C 266.32 723.70 271.37 728.99 277.75 735.25 C 284.13 741.51 288.18 745.90 295.25 752.75 C 302.31 759.61 290.08 774.77 281.98 769.02 C 273.87 763.28 271.42 758.19 264.75 752.25 C 258.08 746.31 253.46 740.65 247.25 734.75 C 241.04 728.85 235.75 723.15 229.75 717.25 C 223.76 711.35 218.14 705.69 212.25 699.75 C 206.36 693.81 201.13 688.86 195.25 682.75 C 189.37 676.64 183.70 671.75 177.75 665.25 C 171.81 658.74 166.33 655.09 160.25 647.75 C 154.17 640.41 163.08 626.97 174.00 631.00
M 150.00 655.00 
C 156.59 657.43 160.43 668.06 166.75 672.25 C 173.08 676.44 178.18 684.65 184.25 689.75 C 190.32 694.86 195.77 701.72 201.75 707.25 C 207.73 712.78 213.27 719.00 219.25 724.75 C 225.23 730.50 230.67 736.33 236.75 742.25 C 242.83 748.17 247.90 753.61 254.25 759.75 C 260.60 765.89 264.79 770.68 271.75 777.25 C 278.72 783.82 266.62 797.93 258.78 793.22 C 250.93 788.52 247.69 782.50 241.25 776.75 C 234.80 771.01 229.87 765.06 223.75 759.25 C 217.64 753.43 212.22 747.63 206.25 741.75 C 200.27 735.88 194.68 730.21 188.75 724.25 C 182.82 718.29 177.20 712.89 171.25 706.75 C 165.30 700.62 159.79 695.75 153.75 689.25 C 147.71 682.74 142.52 679.08 136.25 671.75 C 129.98 664.43 139.08 650.97 150.00 655.00
M 126.00 679.00 
C 132.59 681.43 136.43 692.06 142.75 696.25 C 149.08 700.44 154.18 708.65 160.25 713.75 C 166.32 718.85 171.77 725.73 177.75 731.25 C 183.73 736.77 189.26 743.02 195.25 748.75 C 201.23 754.48 206.66 760.37 212.75 766.25 C 218.84 772.12 223.88 777.71 230.25 783.75 C 236.61 789.80 240.75 794.89 247.75 801.25 C 254.75 807.60 242.08 822.56 234.33 817.67 C 226.58 812.78 223.85 806.21 217.25 800.75 C 210.65 795.29 205.94 788.93 199.75 783.25 C 193.56 777.57 188.26 771.56 182.25 765.75 C 176.24 759.94 170.71 754.16 164.75 748.25 C 158.80 742.33 153.23 736.83 147.25 730.75 C 141.26 724.67 135.86 719.66 129.75 713.25 C 123.64 706.84 118.67 702.87 112.25 695.75 C 105.83 688.63 115.19 675.01 126.00 679.00
M 99.00 698.00 
C 142.17 742.00 186.05 785.88 230.00 829.00
C 219.78 846.54 201.99 846.13 184.00 846.00 C 166.00 845.87 151.84 831.22 135.00 828.00 C 118.16 824.78 102.43 814.39 100.02 795.98 C 97.62 777.56 83.81 765.47 82.07 746.93 C 80.33 728.39 81.82 708.36 99.00 698.00 Z"/>
</g>
<g fill="#000000" fill-opacity="0.05" stroke="None">
<path d="
M 857.00 827.00 
C 854.13 834.30 847.61 839.80 843.00 846.00
C 827.47 866.89 813.68 880.03 785.00 879.00 C 756.32 877.97 722.76 879.47 693.00 879.00 C 663.24 878.53 631.23 879.22 601.00 879.00 C 570.77 878.78 539.40 879.11 509.00 879.00 C 478.60 878.89 447.39 879.08 417.00 879.00 C 386.61 878.92 355.21 879.11 325.00 879.00 C 294.79 878.89 262.72 879.20 233.00 879.00 C 203.28 878.80 171.45 878.06 143.00 879.00 C 114.55 879.94 88.04 882.23 67.75 862.25 C 47.46 842.26 47.74 818.48 49.00 790.00 C 50.26 761.52 49.52 729.64 49.00 700.00 C 48.48 670.36 49.26 638.18 49.00 608.00 C 48.74 577.82 49.17 546.39 49.00 516.00 C 48.83 485.61 49.19 454.42 49.00 424.00 C 48.81 393.58 49.33 362.29 49.00 332.00 C 48.67 301.71 49.70 269.90 49.00 240.00 C 48.30 210.10 50.53 177.00 49.00 148.00 C 47.47 119.00 58.26 103.33 80.00 87.00
C 86.80 81.89 93.01 74.02 101.00 71.00
C 76.73 75.10 54.01 86.57 44.98 112.98 C 35.94 139.38 40.91 175.63 40.00 206.00 C 39.09 236.37 40.41 271.48 40.00 303.00 C 39.59 334.52 40.20 369.00 40.00 401.00 C 39.80 433.00 40.12 465.84 40.00 498.00 C 39.88 530.16 40.12 563.91 40.00 596.00 C 39.88 628.09 40.20 661.27 40.00 693.00 C 39.80 724.73 40.40 760.13 40.00 791.00 C 39.60 821.87 39.19 845.10 60.75 867.25 C 82.31 889.40 107.20 888.61 138.00 888.00 C 168.80 887.39 204.31 888.29 236.00 888.00 C 267.69 887.71 300.93 888.16 333.00 888.00 C 365.07 887.84 398.85 888.14 431.00 888.00 C 463.15 887.86 496.01 888.20 528.00 888.00 C 559.99 887.80 594.50 888.40 626.00 888.00 C 657.50 887.60 692.69 888.88 723.00 888.00 C 753.31 887.12 789.51 892.06 815.77 882.77 C 842.03 873.48 852.70 851.02 857.00 827.00 Z"/>
</g>
<g fill="#E3E3E2" fill-opacity="1.00" stroke="None">
<path d="
M 307.00 227.00 
C 335.03 191.14 362.09 161.23 403.08 139.08 C 444.08 116.93 500.42 98.93 549.00 101.00 C 597.58 103.07 650.04 118.71 690.23 143.77 C 730.42 168.84 757.18 195.23 782.77 235.23 C 808.36 275.23 823.89 326.28 826.98 375.02 C 830.06 423.77 812.29 481.15 790.25 522.25 C 768.21 563.34 739.16 591.74 703.00 620.00
C 746.05 596.27 774.69 565.00 802.25 523.25 C 829.80 481.49 846.17 423.12 846.00 371.00 C 845.83 318.88 830.88 261.48 803.30 218.70 C 775.73 175.92 747.39 148.33 704.23 121.77 C 661.07 95.22 602.42 81.13 551.00 82.00 C 499.58 82.87 444.08 100.25 402.23 127.23 C 360.38 154.21 331.73 185.35 307.00 227.00 Z"/>
</g>
<g fill="#000000" fill-opacity="0.11" stroke="None">
<path d="
M 843.00 846.00 
C 816.19 869.36 779.34 858.25 744.00 860.00 C 708.66 861.75 668.46 859.27 632.00 860.00 C 595.54 860.73 555.87 859.79 519.00 860.00 C 482.13 860.21 443.86 860.17 407.00 860.00 C 370.14 859.83 330.42 860.66 294.00 860.00 C 257.58 859.34 217.25 861.62 182.00 860.00 C 146.75 858.38 111.43 869.61 85.25 844.75 C 59.06 819.89 69.31 784.23 68.00 749.00 C 66.69 713.77 68.50 673.40 68.00 637.00 C 67.50 600.60 68.06 560.82 68.00 524.00 C 67.94 487.18 67.63 448.79 68.00 412.00 C 68.37 375.21 66.98 335.29 68.00 299.00 C 69.02 262.71 65.63 221.97 68.00 187.00 C 70.37 152.03 57.77 114.33 80.00 87.00
C 58.26 103.33 47.47 119.00 49.00 148.00 C 50.53 177.00 48.30 210.10 49.00 240.00 C 49.70 269.90 48.67 301.71 49.00 332.00 C 49.33 362.29 48.81 393.58 49.00 424.00 C 49.19 454.42 48.83 485.61 49.00 516.00 C 49.17 546.39 48.74 577.82 49.00 608.00 C 49.26 638.18 48.48 670.36 49.00 700.00 C 49.52 729.64 50.26 761.52 49.00 790.00 C 47.74 818.48 47.46 842.26 67.75 862.25 C 88.04 882.23 114.55 879.94 143.00 879.00 C 171.45 878.06 203.28 878.80 233.00 879.00 C 262.72 879.20 294.79 878.89 325.00 879.00 C 355.21 879.11 386.61 878.92 417.00 879.00 C 447.39 879.08 478.60 878.89 509.00 879.00 C 539.40 879.11 570.77 878.78 601.00 879.00 C 631.23 879.22 663.24 878.53 693.00 879.00 C 722.76 879.47 756.32 877.97 785.00 879.00 C 813.68 880.03 827.47 866.89 843.00 846.00 Z"/>
</g>
<g fill="#FBFBFB" fill-opacity="1.00" stroke="None">
<path d="
M 307.00 227.00 
C 295.92 245.67 288.41 263.02 281.98 283.98 C 275.54 304.93 269.72 330.10 269.00 353.00 C 268.28 375.90 268.13 407.54 274.22 428.78 C 280.31 450.02 281.44 477.00 270.97 495.97 C 260.51 514.95 244.50 521.54 231.75 537.75 C 219.01 553.96 199.93 562.42 193.98 581.98 C 188.03 601.53 189.60 632.06 204.75 646.25 C 219.90 660.44 230.95 673.90 245.75 687.25 C 260.56 700.60 271.49 716.34 287.25 727.75 C 303.00 739.16 334.68 741.20 352.30 732.31 C 369.93 723.41 378.13 704.94 394.25 692.25 C 410.36 679.56 417.55 663.16 437.92 654.92 C 458.30 646.69 484.34 648.57 506.00 655.00 C 527.66 661.43 556.73 659.02 579.26 658.60 C 601.79 658.18 626.09 650.97 646.93 644.93 C 667.76 638.88 684.19 630.37 703.00 620.00
C 739.16 591.74 768.21 563.34 790.25 522.25 C 812.29 481.15 830.06 423.77 826.98 375.02 C 823.89 326.28 808.36 275.23 782.77 235.23 C 757.18 195.23 730.42 168.84 690.23 143.77 C 650.04 118.71 597.58 103.07 549.00 101.00 C 500.42 98.93 444.08 116.93 403.08 139.08 C 362.09 161.23 335.03 191.14 307.00 227.00
M 530.00 250.00 
C 528.53 243.77 518.11 241.96 520.00 234.00 C 521.89 226.04 519.88 219.08 524.31 212.31 C 528.73 205.53 535.04 206.54 540.00 202.00
C 545.71 196.77 555.95 195.78 565.22 194.22 C 574.50 192.66 584.84 190.53 594.07 189.07 C 603.31 187.61 614.66 184.47 624.00 185.00 C 633.34 185.53 640.02 190.59 645.92 197.08 C 651.82 203.57 654.47 212.64 656.00 221.00
C 657.17 222.85 661.79 223.80 663.00 226.00
C 661.64 218.26 659.45 211.07 656.00 204.00
C 672.05 217.99 686.07 231.66 701.25 247.75 C 716.43 263.84 733.32 273.61 743.93 294.07 C 754.54 314.54 741.42 344.62 737.00 366.00
C 746.88 368.30 755.90 373.45 766.00 375.00
C 758.50 379.98 746.17 381.80 735.93 383.93 C 725.68 386.05 712.77 388.17 702.78 390.78 C 692.78 393.39 679.68 397.52 672.75 389.25 C 665.83 380.98 659.92 377.18 653.25 369.75 C 646.57 362.32 639.75 356.93 633.25 349.75 C 626.74 342.57 618.75 336.97 614.00 329.00
C 616.49 328.71 618.39 330.64 621.00 330.00
C 628.98 327.26 625.23 307.91 615.78 308.22 C 606.32 308.54 594.72 309.90 585.78 312.78 C 576.84 315.65 563.16 315.43 554.93 313.07 C 546.69 310.72 541.26 299.74 539.08 293.92 C 536.89 288.11 529.69 270.09 523.00 278.00
C 517.27 298.54 511.76 319.17 507.00 340.00
C 505.72 340.53 505.14 339.03 504.00 339.00
C 503.24 343.51 497.95 346.57 494.30 349.30 C 490.66 352.03 482.60 349.13 478.78 347.22 C 474.96 345.32 466.63 342.58 462.93 342.07 C 459.23 341.57 447.40 342.97 447.00 347.00
C 464.43 364.43 481.85 382.74 499.00 400.00
C 496.65 406.02 489.46 409.50 486.00 415.00
C 483.23 423.31 481.94 433.25 474.25 439.25 C 466.56 445.24 465.05 452.89 457.75 458.75 C 450.45 464.61 445.14 469.08 438.25 475.25 C 431.36 481.41 421.99 486.04 412.93 484.07 C 403.86 482.11 397.52 476.39 391.25 469.75 C 384.97 463.11 379.51 458.19 373.25 451.75 C 366.98 445.31 361.31 440.31 355.75 433.25 C 350.20 426.19 345.35 419.66 342.03 410.98 C 338.70 402.29 336.36 390.73 338.00 381.00 C 339.64 371.27 342.25 361.32 344.93 351.93 C 347.60 342.53 349.67 332.60 352.33 323.33 C 354.99 314.06 357.33 304.01 359.98 294.98 C 362.62 285.94 366.27 277.50 370.31 269.31 C 374.34 261.11 378.06 253.94 384.25 247.25 C 390.44 240.55 398.97 237.43 407.00 234.00
C 426.25 225.79 447.06 222.21 467.00 216.00
C 465.00 205.43 462.17 195.05 462.00 184.00
C 485.75 203.93 506.79 228.94 530.00 250.00
M 694.00 521.00 
C 689.04 531.61 684.96 543.25 673.75 549.75 C 662.55 556.26 652.32 561.00 639.98 564.98 C 627.63 568.96 614.54 572.43 601.93 575.93 C 589.31 579.43 575.66 582.72 562.99 585.99 C 550.33 589.26 532.91 593.10 520.32 587.68 C 507.74 582.25 499.80 580.03 490.25 568.75 C 480.70 557.47 468.50 559.32 454.99 555.01 C 441.49 550.69 446.68 529.76 449.33 518.33 C 451.98 506.90 457.26 492.99 459.93 479.93 C 462.59 466.86 475.46 462.51 486.00 457.00
C 511.71 443.57 545.37 443.75 573.00 434.00
C 568.46 442.33 558.53 448.07 555.00 457.00
C 573.50 474.00 590.55 493.05 609.00 510.00
C 603.37 504.37 600.76 500.08 594.25 494.75 C 587.74 489.43 593.29 480.66 595.33 473.33 C 597.36 465.99 599.62 456.17 601.98 448.98 C 604.34 441.78 609.45 434.38 617.00 433.00
C 619.11 426.14 620.85 419.14 622.00 412.00
C 632.84 412.53 641.83 417.36 652.22 419.78 C 662.61 422.19 672.61 425.19 683.02 427.98 C 693.44 430.76 702.30 432.95 713.01 435.99 C 723.71 439.03 714.74 453.65 712.67 462.67 C 710.61 471.69 706.60 482.65 704.02 492.02 C 701.45 501.39 698.59 512.29 694.00 521.00 Z"/>
</g>
<g fill="#E96B03" fill-opacity="1.00" stroke="None">
<path d="
M 407.00 234.00 
C 391.49 245.19 394.25 272.20 400.92 287.08 C 407.59 301.95 420.91 313.78 432.00 326.00
C 453.32 321.69 474.52 316.82 496.00 313.00
C 498.37 321.77 502.81 329.87 504.00 339.00
C 505.14 339.03 505.72 340.53 507.00 340.00
C 511.76 319.17 517.27 298.54 523.00 278.00
C 524.20 273.70 525.66 268.74 526.33 264.33 C 526.99 259.91 531.09 254.64 530.00 250.00
C 506.79 228.94 485.75 203.93 462.00 184.00
C 462.17 195.05 465.00 205.43 467.00 216.00
C 447.06 222.21 426.25 225.79 407.00 234.00 Z"/>
</g>
<g fill="#E86B02" fill-opacity="1.00" stroke="None">
<path d="
M 540.00 202.00 
C 539.57 208.79 546.41 217.33 546.99 225.01 C 547.57 232.68 552.77 241.16 553.98 249.02 C 555.18 256.89 559.44 264.11 560.93 272.07 C 562.41 280.03 565.73 288.19 568.00 296.00
C 595.50 289.72 623.27 284.48 651.00 279.00
C 656.05 260.59 660.41 240.31 656.00 221.00
C 654.47 212.64 651.82 203.57 645.92 197.08 C 640.02 190.59 633.34 185.53 624.00 185.00 C 614.66 184.47 603.31 187.61 594.07 189.07 C 584.84 190.53 574.50 192.66 565.22 194.22 C 555.95 195.78 545.71 196.77 540.00 202.00 Z"/>
</g>
<g fill="#E3E3E2" fill-opacity="1.00" stroke="None">
<path d="
M 530.00 250.00 
C 531.09 254.64 526.99 259.91 526.33 264.33 C 525.66 268.74 524.20 273.70 523.00 278.00
C 529.69 270.09 536.89 288.11 539.08 293.92 C 541.26 299.74 546.69 310.72 554.93 313.07 C 563.16 315.43 576.84 315.65 585.78 312.78 C 594.72 309.90 606.32 308.54 615.78 308.22 C 625.23 307.91 628.98 327.26 621.00 330.00
C 627.97 331.78 635.57 334.56 643.00 336.00
C 648.80 299.31 667.99 264.67 663.00 226.00
C 661.79 223.80 657.17 222.85 656.00 221.00
C 660.41 240.31 656.05 260.59 651.00 279.00
C 623.27 284.48 595.50 289.72 568.00 296.00
C 565.73 288.19 562.41 280.03 560.93 272.07 C 559.44 264.11 555.18 256.89 553.98 249.02 C 552.77 241.16 547.57 232.68 546.99 225.01 C 546.41 217.33 539.57 208.79 540.00 202.00
C 535.04 206.54 528.73 205.53 524.31 212.31 C 519.88 219.08 521.89 226.04 520.00 234.00 C 518.11 241.96 528.53 243.77 530.00 250.00 Z"/>
</g>
<g fill="#E96B02" fill-opacity="1.00" stroke="None">
<path d="
M 663.00 226.00 
C 667.99 264.67 648.80 299.31 643.00 336.00
C 635.57 334.56 627.97 331.78 621.00 330.00
C 618.39 330.64 616.49 328.71 614.00 329.00
C 618.75 336.97 626.74 342.57 633.25 349.75 C 639.75 356.93 646.57 362.32 653.25 369.75 C 659.92 377.18 665.83 380.98 672.75 389.25 C 679.68 397.52 692.78 393.39 702.78 390.78 C 712.77 388.17 725.68 386.05 735.93 383.93 C 746.17 381.80 758.50 379.98 766.00 375.00
C 755.90 373.45 746.88 368.30 737.00 366.00
C 741.42 344.62 754.54 314.54 743.93 294.07 C 733.32 273.61 716.43 263.84 701.25 247.75 C 686.07 231.66 672.05 217.99 656.00 204.00
C 659.45 211.07 661.64 218.26 663.00 226.00 Z"/>
</g>
<g fill="#E5E4E4" fill-opacity="1.00" stroke="None">
<path d="
M 486.00 415.00 
C 468.42 432.58 449.81 449.73 433.00 468.00
C 419.73 454.95 407.12 443.56 394.25 429.75 C 381.37 415.95 365.52 404.83 361.67 385.33 C 357.83 365.83 368.98 342.71 372.99 322.99 C 377.01 303.28 385.41 282.10 389.00 262.00
C 391.32 272.85 394.48 287.29 400.77 297.23 C 407.06 307.17 414.69 314.61 423.25 322.75 C 431.81 330.89 438.86 339.03 447.00 347.00
C 447.40 342.97 459.23 341.57 462.93 342.07 C 466.63 342.58 474.96 345.32 478.78 347.22 C 482.60 349.13 490.66 352.03 494.30 349.30 C 497.95 346.57 503.24 343.51 504.00 339.00
C 502.81 329.87 498.37 321.77 496.00 313.00
C 474.52 316.82 453.32 321.69 432.00 326.00
C 420.91 313.78 407.59 301.95 400.92 287.08 C 394.25 272.20 391.49 245.19 407.00 234.00
C 398.97 237.43 390.44 240.55 384.25 247.25 C 378.06 253.94 374.34 261.11 370.31 269.31 C 366.27 277.50 362.62 285.94 359.98 294.98 C 357.33 304.01 354.99 314.06 352.33 323.33 C 349.67 332.60 347.60 342.53 344.93 351.93 C 342.25 361.32 339.64 371.27 338.00 381.00 C 336.36 390.73 338.70 402.29 342.03 410.98 C 345.35 419.66 350.20 426.19 355.75 433.25 C 361.31 440.31 366.98 445.31 373.25 451.75 C 379.51 458.19 384.97 463.11 391.25 469.75 C 397.52 476.39 403.86 482.11 412.93 484.07 C 421.99 486.04 431.36 481.41 438.25 475.25 C 445.14 469.08 450.45 464.61 457.75 458.75 C 465.05 452.89 466.56 445.24 474.25 439.25 C 481.94 433.25 483.23 423.31 486.00 415.00 Z"/>
</g>
<g fill="#E96D02" fill-opacity="1.00" stroke="None">
<path d="
M 486.00 415.00 
C 489.46 409.50 496.65 406.02 499.00 400.00
C 481.85 382.74 464.43 364.43 447.00 347.00
C 438.86 339.03 431.81 330.89 423.25 322.75 C 414.69 314.61 407.06 307.17 400.77 297.23 C 394.48 287.29 391.32 272.85 389.00 262.00
C 385.41 282.10 377.01 303.28 372.99 322.99 C 368.98 342.71 357.83 365.83 361.67 385.33 C 365.52 404.83 381.37 415.95 394.25 429.75 C 407.12 443.56 419.73 454.95 433.00 468.00
C 449.81 449.73 468.42 432.58 486.00 415.00 Z"/>
</g>
<g fill="#E96B03" fill-opacity="1.00" stroke="None">
<path d="
M 617.00 433.00 
C 610.82 453.07 606.79 473.79 601.00 494.00
C 624.16 517.43 663.85 550.08 694.00 521.00
C 698.59 512.29 701.45 501.39 704.02 492.02 C 706.60 482.65 710.61 471.69 712.67 462.67 C 714.74 453.65 723.71 439.03 713.01 435.99 C 702.30 432.95 693.44 430.76 683.02 427.98 C 672.61 425.19 662.61 422.19 652.22 419.78 C 641.83 417.36 632.84 412.53 622.00 412.00
C 620.85 419.14 619.11 426.14 617.00 433.00 Z"/>
</g>
<g fill="#E4E4E4" fill-opacity="1.00" stroke="None">
<path d="
M 609.00 510.00 
C 625.51 524.11 643.43 536.14 665.00 538.00
C 632.13 548.01 597.36 555.39 564.78 565.78 C 532.19 576.16 509.10 544.70 488.00 523.00
C 478.34 526.58 473.07 538.53 464.00 543.00
C 470.78 514.20 479.08 485.80 486.00 457.00
C 475.46 462.51 462.59 466.86 459.93 479.93 C 457.26 492.99 451.98 506.90 449.33 518.33 C 446.68 529.76 441.49 550.69 454.99 555.01 C 468.50 559.32 480.70 557.47 490.25 568.75 C 499.80 580.03 507.74 582.25 520.32 587.68 C 532.91 593.10 550.33 589.26 562.99 585.99 C 575.66 582.72 589.31 579.43 601.93 575.93 C 614.54 572.43 627.63 568.96 639.98 564.98 C 652.32 561.00 662.55 556.26 673.75 549.75 C 684.96 543.25 689.04 531.61 694.00 521.00
C 663.85 550.08 624.16 517.43 601.00 494.00
C 606.79 473.79 610.82 453.07 617.00 433.00
C 609.45 434.38 604.34 441.78 601.98 448.98 C 599.62 456.17 597.36 465.99 595.33 473.33 C 593.29 480.66 587.74 489.43 594.25 494.75 C 600.76 500.08 603.37 504.37 609.00 510.00 Z"/>
</g>
<g fill="#E96D02" fill-opacity="1.00" stroke="None">
<path d="
M 486.00 457.00 
C 479.08 485.80 470.78 514.20 464.00 543.00
C 473.07 538.53 478.34 526.58 488.00 523.00
C 509.10 544.70 532.19 576.16 564.78 565.78 C 597.36 555.39 632.13 548.01 665.00 538.00
C 643.43 536.14 625.51 524.11 609.00 510.00
C 590.55 493.05 573.50 474.00 555.00 457.00
C 558.53 448.07 568.46 442.33 573.00 434.00
C 545.37 443.75 511.71 443.57 486.00 457.00 Z"/>
</g>
<g fill="#E9E7E6" fill-opacity="1.00" stroke="None">
<path d="
M 174.00 631.00 
C 163.08 626.97 154.17 640.41 160.25 647.75 C 166.33 655.09 171.81 658.74 177.75 665.25 C 183.70 671.75 189.37 676.64 195.25 682.75 C 201.13 688.86 206.36 693.81 212.25 699.75 C 218.14 705.69 223.76 711.35 229.75 717.25 C 235.75 723.15 241.04 728.85 247.25 734.75 C 253.46 740.65 258.08 746.31 264.75 752.25 C 271.42 758.19 273.87 763.28 281.98 769.02 C 290.08 774.77 302.31 759.61 295.25 752.75 C 288.18 745.90 284.13 741.51 277.75 735.25 C 271.37 728.99 266.32 723.70 260.25 717.75 C 254.18 711.81 249.20 706.48 243.25 700.75 C 237.30 695.02 231.72 688.77 225.75 683.25 C 219.79 677.73 214.31 670.85 208.25 665.75 C 202.18 660.65 197.07 652.44 190.75 648.25 C 184.43 644.06 180.58 633.43 174.00 631.00 Z"/>
</g>
<g fill="#E6E6E6" fill-opacity="1.00" stroke="None">
<path d="
M 150.00 655.00 
C 139.08 650.97 129.98 664.43 136.25 671.75 C 142.52 679.08 147.71 682.74 153.75 689.25 C 159.79 695.75 165.30 700.62 171.25 706.75 C 177.20 712.89 182.82 718.29 188.75 724.25 C 194.68 730.21 200.27 735.88 206.25 741.75 C 212.22 747.63 217.64 753.43 223.75 759.25 C 229.87 765.06 234.80 771.01 241.25 776.75 C 247.69 782.50 250.93 788.52 258.78 793.22 C 266.62 797.93 278.72 783.82 271.75 777.25 C 264.79 770.68 260.60 765.89 254.25 759.75 C 247.90 753.61 242.83 748.17 236.75 742.25 C 230.67 736.33 225.23 730.50 219.25 724.75 C 213.27 719.00 207.73 712.78 201.75 707.25 C 195.77 701.72 190.32 694.86 184.25 689.75 C 178.18 684.65 173.08 676.44 166.75 672.25 C 160.43 668.06 156.59 657.43 150.00 655.00 Z"/>
</g>
<g fill="#E6E6E6" fill-opacity="1.00" stroke="None">
<path d="
M 126.00 679.00 
C 115.19 675.01 105.83 688.63 112.25 695.75 C 118.67 702.87 123.64 706.84 129.75 713.25 C 135.86 719.66 141.26 724.67 147.25 730.75 C 153.23 736.83 158.80 742.33 164.75 748.25 C 170.71 754.16 176.24 759.94 182.25 765.75 C 188.26 771.56 193.56 777.57 199.75 783.25 C 205.94 788.93 210.65 795.29 217.25 800.75 C 223.85 806.21 226.58 812.78 234.33 817.67 C 242.08 822.56 254.75 807.60 247.75 801.25 C 240.75 794.89 236.61 789.80 230.25 783.75 C 223.88 777.71 218.84 772.12 212.75 766.25 C 206.66 760.37 201.23 754.48 195.25 748.75 C 189.26 743.02 183.73 736.77 177.75 731.25 C 171.77 725.73 166.32 718.85 160.25 713.75 C 154.18 708.65 149.08 700.44 142.75 696.25 C 136.43 692.06 132.59 681.43 126.00 679.00 Z"/>
</g>
<g fill="#F1F1F1" fill-opacity="1.00" stroke="None">
<path d="
M 99.00 698.00 
C 81.82 708.36 80.33 728.39 82.07 746.93 C 83.81 765.47 97.62 777.56 100.02 795.98 C 102.43 814.39 118.16 824.78 135.00 828.00 C 151.84 831.22 166.00 845.87 184.00 846.00 C 201.99 846.13 219.78 846.54 230.00 829.00
C 186.05 785.88 142.17 742.00 99.00 698.00 Z"/>
</g>
</svg>